<svg xmlns="http://www.w3.org/2000/svg" viewBox="0 0 154 50">
  <path fill="currentColor" d="M21.278 38.878A31.153 31.153 0 0 0 39.242 50v-3.698a27.485 27.485 0 0 1-16.008-10.868l-1.956 3.444Z"/>
  <path fill="currentColor" d="M8.36 35.027c3.898-3.853 6.32-9.168 6.32-15.011V3.832h3.647v16.184c0 2.846.457 6.181 1.294 8.766.84-2.585 1.296-5.92 1.296-8.766V3.832h3.647v16.184c0 5.844 2.42 11.158 6.32 15.011a21.64 21.64 0 0 0 8.359 5.139v3.776a25.315 25.315 0 0 1-10.937-6.366 25.03 25.03 0 0 1-5.362-7.808c-.951 2.542-2.001 4.948-3.314 6.78l-.009.013-.007-.012c-1.313-1.835-2.363-4.24-3.314-6.781a25.03 25.03 0 0 1-5.362 7.808c-3 2.966-6.75 5.19-10.937 6.365v-3.775a21.64 21.64 0 0 0 8.359-5.139Z"/>
  <path fill="currentColor" d="M30.396 19.677c0 4.258 1.765 8.13 4.605 10.94a15.818 15.818 0 0 0 4.242 2.994v3.923a19.448 19.448 0 0 1-6.82-4.37c-3.501-3.46-5.675-8.234-5.675-13.488V16.03h3.648v3.646ZM8.85 16.031h3.648v3.647c0 5.253-2.174 10.029-5.677 13.487a19.456 19.456 0 0 1-6.82 4.37v-3.924a15.793 15.793 0 0 0 4.242-2.995c2.842-2.807 4.607-6.681 4.607-10.94v-3.645Zm7.16 19.401A27.482 27.482 0 0 1 0 46.3v3.698a31.156 31.156 0 0 0 17.965-11.12l-1.954-3.446Zm38.45-21.443 2.382-11.08h3.546v19.39h-2.909v-8.31l.471-5.54h-.138l-2.023 9.972h-2.714L50.997 8.45h-.138l.526 5.54v8.31h-2.909V2.91h3.546l2.355 11.08h.083Zm10.505 5.541h2.909V5.678h-2.91v13.85Zm4.543 2.77H63.33c-.388 0-.702-.12-.942-.36-.222-.241-.333-.546-.333-.915V4.183c0-.37.111-.674.333-.914.24-.24.554-.36.942-.36h6.177c.388 0 .692.12.914.36.24.24.36.544.36.914v16.842c0 .37-.12.674-.36.914-.222.24-.526.36-.914.36Zm11.385 0h-7.175c-.387 0-.701-.12-.941-.36-.222-.241-.333-.546-.333-.915V4.183c0-.37.111-.674.333-.914.24-.24.554-.36.941-.36h7.175v5.54h-2.909v-2.77h-2.631v13.85h2.631v-3.601h2.909v6.371Zm7.821-10.527 2.992 10.526h-3.075l-2.548-9.141h-.748v9.141h-2.909V2.91h2.909v7.479h.83l2.466-7.48h3.075l-2.992 8.865Zm6.873 7.757h2.909V5.678h-2.909v13.85Zm4.543 2.77h-6.177c-.388 0-.702-.12-.942-.36-.221-.241-.332-.546-.332-.915V4.183c0-.37.11-.674.332-.914.24-.24.554-.36.942-.36h6.177c.388 0 .693.12.914.36.24.24.361.544.361.914v16.842c0 .37-.121.674-.361.914-.221.24-.526.36-.914.36Zm8.477-11.912v-4.71h-2.632v4.71h2.632Zm0 2.77h-2.632v6.371h2.632v-6.371Zm2.908-8.975v5.43c0 1.107-.48 1.827-1.44 2.16.96.332 1.44 1.053 1.44 2.16v7.092c0 .37-.12.674-.36.914-.221.24-.526.36-.914.36h-7.174V2.91h7.174c.388 0 .693.12.914.36.24.24.36.544.36.914ZM121.633 22.3h-7.175c-.388 0-.702-.12-.942-.36-.221-.241-.332-.546-.332-.915V4.183c0-.37.111-.674.332-.914.24-.24.554-.36.942-.36h7.175v5.54h-2.909v-2.77h-2.632v13.85h2.632v-3.601h2.909v6.371Zm7.821-10.527 2.992 10.526h-3.075l-2.549-9.141h-.748v9.141h-2.908V2.91h2.908v7.479h.831l2.466-7.48h3.075l-2.992 8.865ZM142.421 22.3h-2.908V11.44l-3.186 6.676V22.3h-2.909V2.91h2.909v9.861l3.186-6.676V2.91h2.908V22.3Zm4.426-20.222L146.293 0h4.016l-.554 2.078h-2.908Zm6.233 20.221h-2.909V11.44l-3.186 6.676V22.3h-2.908V2.91h2.908v9.861l3.186-6.676V2.91h2.909V22.3ZM56.925 50h-7.174c-.388 0-.702-.12-.942-.36-.222-.24-.333-.545-.333-.914V31.884c0-.37.111-.674.333-.915.24-.24.554-.36.942-.36h7.174v5.54h-2.908v-2.77h-2.632v13.85h2.632v-3.6h2.908V50Zm1.534-19.39h8.864V50h-2.909V33.38h-3.047V50H58.46V30.61ZM71.89 47.23h2.91V33.38h-2.91v13.85ZM76.433 50h-6.177c-.388 0-.702-.12-.942-.36-.222-.24-.332-.545-.332-.914V31.884c0-.37.11-.674.332-.915.24-.24.554-.36.942-.36h6.177c.388 0 .693.12.914.36.24.24.36.545.36.915v16.842c0 .37-.12.674-.36.914-.221.24-.526.36-.914.36Zm5.845-16.62v7.479h2.77v-7.48h-2.77Zm4.404 10.249h-4.404V50h-2.909V30.61h7.313c.388 0 .693.12.915.36.24.24.36.544.36.914v10.47c0 .37-.12.675-.36.915-.222.24-.527.36-.915.36Zm2.251-10.249v-2.77h8.448v2.77h-2.77V50h-2.908V33.38h-2.77Z"/>
</svg>