<svg xmlns="http://www.w3.org/2000/svg" width="134" height="45" fill="none" viewBox="0 0 134 45">
  <g clip-path="url(#a)">
    <path fill="#131717" d="M0 .716v35.01l.019.346.033.347.052.332.072.332.066.328.104.294.105.313.123.294.138.294.156.261.157.28.19.261.19.242.208.223.228.228.228.204.256.214.261.185.275.175.28.157.313.156.328.143.313.118.346.1.366.11.365.085.38.052.398.07.418.034.418.014.431.02h4.598l.295.018h.294l.28.033.275.02.26.033.262.052.26.033.262.052.242.052.223.072.228.07.242.067.208.072.228.085.209.09.204.085.19.105.194.085.204.105.195.104.17.104.176.119.176.123.17.124.176.118.157.124.157.137.151.138.157.123.157.138.294.294.313-.294.137-.138.157-.123.157-.138.156-.137.157-.124.17-.118.176-.124.176-.123.17-.119.195-.104.171-.104.19-.105.209-.085.19-.105.208-.085.209-.09.223-.086.213-.07.223-.067.242-.071.242-.072.242-.052.247-.052.261-.033.256-.052.262-.034.28-.019.275-.033h.299l.294-.019h4.593l.437-.019.417-.014.413-.033.384-.071.399-.052.365-.086.36-.11.333-.099.346-.118.314-.143.294-.156.294-.157.28-.175.261-.185.256-.214.228-.204.223-.228.214-.223.19-.242.19-.26.156-.28.156-.262.138-.294.123-.294.105-.313.08-.294.09-.328.072-.332.052-.332.033-.347.014-.346.02-.346V.715H0Z"/>
    <path fill="#A11E33" fill-rule="evenodd" d="M.21.94H36.8v34.44c0 3.71-2.372 6.33-6.989 6.33h-4.304c-3.321 0-5.428 1.143-6.994 2.69-1.561-1.547-3.697-2.69-6.99-2.69H7.22c-4.617 0-7.008-2.62-7.008-6.33V.94Z" clip-rule="evenodd"/>
    <path fill="#131717" fill-rule="evenodd" d="M7.77 3.194c-.222.037-.313.194-.275.474l1.542 2.183c.053.104.157.209.138.294-.119.294-.17.475.09.745l.517.503c.008.273.093.538.247.764-.123.247.034.474.242.697.048.067.067.157.157.223l.085.745c-.73.608-1.096 1.059-1.162 1.339-.038.156-.071.275.033.365l1.025-.104c.085.052.19.07.228.137a.75.75 0 0 1-.608 1.006c-1.267.313-2.187.745-1.822 1.6.475.602.223 1.143-.574 1.627a.755.755 0 0 0-.242.693 2.45 2.45 0 0 0-.555.816c-.124.346-.124.503.118.474 1.77-.588 3.507-.83 4.746.19.612.503.507.764 1.461.816-.11.399 0 .627.346.698l.053.474c-.385.081-.817.081-1.2.19a6.18 6.18 0 0 1-1.23.275 9.193 9.193 0 0 0-1.025-.607c-1.594-.987-2.932-1.04-4.095.313A8.57 8.57 0 0 0 4.397 23.3c-.086.26-.294.365-.712.118-.83-.674-.987-1.281-.57-1.68.589-.555.812-.223.504.067v.071c.474 0 .626.313.802.645.38-.991.17-1.67-.366-2.206h-.123l.052.854a1.236 1.236 0 0 0-1.495 1.177c-.047.64.247 1.215 1.077 1.699.475.156.608.697.247 1.233-.901 1.32-.764 2.724.052 4.527l.105-.052c.17-1.979.588-2.985 1.248-3.174a1.22 1.22 0 0 0 .57-.432c.194-.294.298-.261.436.052a2.439 2.439 0 0 1-.176 2.43c-1.143 1.855-1.196 3.278.437 4.408l.047.137-.432.555c-.137.223-.033.503.347.816.305.459.48.992.503 1.543a.892.892 0 0 0-.072.764c.247.346.836.536 1.67.45.086 0 .072-.085.072-.175.066-.38-.195-.66-.475-1.125-.816-.73-.991-1.423-.73-2.102l.123-.19c.713.267 1.45.464 2.202.589a2.145 2.145 0 0 0 0 1.898c.522.906 1.072 1.324 2.135 1.233 1.424-.123 2.097-1.285 1.575-2.846.503-.28.836-.261 1.006.052 0 .711.3.474.318 1.177-.835.73-1.148 1.357-.246 1.755.474.475.208.64-.399.674-.64-.157-1.11-.119-1.2.399-.589.038-.76.384-.74.949.17-.418.498-.451.673-.347.308.036.62.018.92-.052a1.04 1.04 0 0 1 .888 0 .418.418 0 0 1 .38.204c.412.432.365-.052 1.28.503.229 0 .613 0 .68.365l.085-.332c.07-.118.033-.256-.105-.38-.294-.346.176-.36.992-.208a2.09 2.09 0 0 0 1.144.228c.365-.366.45-.138.522.346.256-.712.085-1.091-.627-1.13.124-.379.176.19.432-.275.228-.104.474 0 .679.223.052-.346-.157-.555-.608-.66-.104-.293-.327-.307-.64 0-1.32-.346-1.457-1.143-.712-1.3.398-.104.555.314.868.432.226.062.459.092.693.09.323-.007.642.077.92.243l.257.085c.142-.104.28-.085.474.066.19.28.38.314.555.09.522-.417 1.3-.417 1.248-.156 0 .38.053.517.19.475.138-.043.176.175.176.45-.508 0-.85.072-.85.432-.474.143-.45.475-.242.907-.056-.836.66-.157 1.348-.608l.475-.052c.052.242.275.346.711.327.182-.049.368-.084.555-.104.85-.223 1.524-.17 2.031.522a.626.626 0 0 0-.052-.64c.589-.4 1.23-.243.85.398.346-.176.692-1.058.242-1.044.19-.517.972-.085.745.294.332-.17.384-.432 0-.759-.057-.299-.295-.384-.731-.261-.242-.418-.555-.432-.973-.071-.418.19-.745.209-.949-.071-.223-.361-.17-.532.138-.413.156.052.227-.138.417-.503.071-.157.209-.28.313-.475.451-.066.817-.474 1.282-1.262.332-.156.474-.802.507-1.808.138.071.309 0 .537-.118-.157 0-.228-.072-.228-.475h.436c.171-.071.242-.138.223-.228-.019-.09-.17-.052-.294-.242a1.395 1.395 0 0 0-.474-.726l-.413-.678c-.3-.95-.646-1.476-1.077-1.13l-.124-.066a4.118 4.118 0 0 1-.764-1.39c0-.66-.674-.693-1.039-.067l-.104-.522-.176.275-1.091-1.575c.118 0 .332-.137.45-.157a9.76 9.76 0 0 0 4.043-1.266l.95-.295a.594.594 0 0 1 .797.19l.987 1.025a.475.475 0 0 1 .085.603c-.1.213.142.474.474.783a1.2 1.2 0 0 1 .072 1.423c-.157.385-.124.627.104.75l.674.474c.474.366.678.242.66-.398a2.416 2.416 0 0 0-.328-.973 2.595 2.595 0 0 1-.398-1.181c0-.797-.124-1.21-.451-1.49a5.369 5.369 0 0 1-.973-1.23c-.09-.26-.157-.417-.294-.474-.038-.835-.646-1.248-1.025-1.025-.325.08-.661.097-.992.052v-.19a10.775 10.775 0 0 0 1.927-1.836c.28-.346.417-.209.692.067l1.078 1.129c-.034.555.052.92.436.883.256.45.38.887.138 1.077-.242.19-.437.346-.437.64a1.67 1.67 0 0 0 1.11 1.096.166.166 0 0 0 .176-.09 1.798 1.798 0 0 0 0-1.28l-.195-.646a2.637 2.637 0 0 1 0-.655.987.987 0 0 0-.474-1.163 12.761 12.761 0 0 1-1.718-2.154c0-.987-.83-1.248-1.366-.17l-1.044.725c-.261.176-.432-.104-.432-.38-.104-1.304-.992-2.343-1.96-3.35-.522-1.575-1.233-2.894-1.494-4.109.991.1 1.736.295 2.03.589.432.474.992.711 1.125.38.057-.105-.256-.295-.413-.451.255.054.482.197.64.403.433 0 .575-.332.451-.783.053-.365.034-.645-.123-.764l-.36-.209a11.368 11.368 0 0 1-1.528-2.045.433.433 0 0 1-.072-.228 1.01 1.01 0 0 0-.38-.816l.138-.066v-.105l.309.067-.309-.517c-.175-.646-.764-.745-1.65-.475-.12.033-.276-.11-.433-.28-.555-.54-1.143-.83-.949-.432.034.067.204.256 0 .242l-.949-.156c-.209-.038-.242.033-.19.137.176.162.316.357.413.574l-1.21.067c-.223.052-.45.087-.678.104-.66-.555-1.476-.137-2.325.503l-.124-.052v-.987h.105l-.09-.645h.07a2.702 2.702 0 0 0-.474-2.026c-.071-.295.223-.261.294-.352a1.42 1.42 0 0 0 .261-.949c-.052-.417-.194-.56-.398-.417h-.242a.949.949 0 0 1-.574-.242.655.655 0 0 0-.798 0c-1.252.313-1.475 1.281-3.003.626-.171 0-.209.052-.138.19.27.333.621.59 1.02.745a1.424 1.424 0 0 1-.868.085c.261.347.764.522 1.547.503a1.143 1.143 0 0 0 1.025-.047c.209-.123.223-.052.085.223-.398.332-.674.973-.73 2.135a2.18 2.18 0 0 0-.295.797c-.57-.156-1.072-.26-1.28-.085h-.229a1.125 1.125 0 0 0-1.385-.104l-.883.678c-.332.223-.612.242-.664-.038l-.36-.778c0-.555-.195-.816-.575-.85a.949.949 0 0 1-.327-.555l-.261-.332c.085-.294-.038-.398-.242-.398a1.044 1.044 0 0 1-.56-.119L7.695 3.341l.076-.147ZM6.538 24.727c1.253 1.423 1.476 3.07.474 4.959-.38.92-.332 1.509.171 1.788.165-.417.276-.854.332-1.3.105-.783.608-.692 1.267-1.371.66-.679.503-1.495.432-2.705-.123-2.605.418-4.114 1.182-4.963-1.946-.536-3.127.901-3.84 3.592h-.018Zm5.068 10.302c.28.123.28.384-.067.54-.26-.104-.247-.327.067-.54Zm4.441 1.826c-.19.138-.275.295-.17.503l.379.328a.303.303 0 0 0-.052-.475.518.518 0 0 1-.157-.346v-.01Zm9.101.74c-.299.157-.365.333-.09.504.19.123.294.142.332.052.347-.067-.142-.261-.242-.555Zm-9.836-5.599c-.627-.645-.698-1.214 0-1.703a9.434 9.434 0 0 0 1.717-1.898c.475-.038.92-.142 1.424-.209a14.924 14.924 0 0 0 5.257-1.476c.28-.085.475-.038.608.176l1.143 1.509-.327.119.868.66c-.156.118-.052.208.138.279-.104.157-.038.308.123.294.067.209.223.517-.227.086-.28-.138-.314 0-.086.431l.475.679c.028.307.172.592.403.797l.38.783c.015.12.05.238.104.346.052.295.119.451.365.475a2.66 2.66 0 0 1-1.077 1.181c-1.025.556-1.84.328-1.756-1.024.057-.726.195-1.338.214-2.083.29-1.163 0-1.752-.992-1.818a2.212 2.212 0 0 0-1.215.223c-.275.19-.673.123-1.214-.19-1.04-.783-1.822-1.2-2.344-1.2.507.574.645 1.148.246 1.718.413.194.399.384 0 .574a11.03 11.03 0 0 1-3.321-.503c-.384-.072-.45 0-.19.208.864.347 1.333.869 1.333 1.595-.428.005-.857.04-1.28.104a.52.52 0 0 1-.746-.152l-.024.02Zm-7.118 0a2.216 2.216 0 0 1 1.979-1.755c1.02-.171 2.15-.745 3.383-1.32.517-.379.588-.208.209.541l-.593.674a.64.64 0 0 0 .052 1.059c.593.294.835.574.745.816a1.733 1.733 0 0 0-1.732.38 1.965 1.965 0 0 0-1.424.246 1.313 1.313 0 0 0-1.072-.071c-.105-.261-.399-.332-.902-.242a1.22 1.22 0 0 0-.66-.328h.015Z" clip-rule="evenodd"/>
    <path fill="#fff" fill-rule="evenodd" d="M32.928 26.236c.033-.033.119.033.17.123.053.09.091.204.053.223-.038.02-.119-.033-.17-.137-.053-.105-.09-.19-.053-.21Zm.242 1.424c.052 0 .104.156.104.327 0 .17-.052.332-.104.332s-.104-.156-.104-.332c0-.176.033-.327.104-.327Zm-.365 1.247.175-.365c.086-.119.157-.119.209 0l.413.38c-.086.085-.275.085-.413.123l.138.223-.138.071-.052.19c-.261-.204-.418-.398-.332-.607v-.015Zm1.362-4.597.085-.399c0-.104.053-.085.105 0 .162.178.264.402.294.64.038.124 0 .195-.066.21a.317.317 0 0 1-.28-.12c-.124-.137-.157-.227-.138-.331Zm-.138-1.372c-.175-.204-.142-.327.086-.308-.209-.332 0-.399.223-.052.111.262.142.55.09.83 0 .104-.142.138-.175 0a1.81 1.81 0 0 0-.224-.475v.005Zm0 1.614c-.056-.048-.104-.034-.156 0-.195.227-.228.398-.123.555l.38.299c.123.1.26.047.194-.057l-.143-.19c.09.033.157.123.247.123s.086-.104 0-.175c-.085-.071-.175-.19-.09-.28.085-.09.038-.067 0-.1l-.294-.194-.014.019Zm-3.769-2.744a3.32 3.32 0 0 1 .21-1.006c.047-.156.118-.17.209-.085.308-.503.242-.223.1.156l.09.053c.379-.712.222-.138.19.17-.28.352-.475.418-.556.176l-.085.45c-.072.21-.124.243-.157.086Zm-2.011-.536c-.071-.327.033-.38.157-.066a4.27 4.27 0 0 1 .275 1.717c0 .257-.209.276-.228.034a14.923 14.923 0 0 0-.204-1.685Zm-.228-1.144c.124 0 .28.124.313.314a.327.327 0 0 1-.156.412c-.138 0-.28-.104-.332-.308-.053-.204.038-.384.175-.418Zm-.474.85c.038 0 .104.033.156.118.053.086.053.195 0 .214-.052.019-.104-.038-.156-.142-.053-.105-.053-.171 0-.19Zm1.599.137c.033 0 .104.053.152.138.047.085.057.176 0 .195-.057.018-.105-.034-.138-.124-.033-.09-.052-.19 0-.209h-.014Zm2.515-1.21a.322.322 0 0 1 0-.436.276.276 0 0 1 .38-.052c.104.052.142.123.142.17l-.21.072.257.07c.143.12 0 .347-.104.157a.266.266 0 0 0-.347-.052c0 .157-.033.19-.118.071Zm-1.841 2.13.104-.678-.119.247c-.104 0-.123-.104-.142-.313-.019-.209 0-.328.142-.28l.086.228.066-.157c.124-.071.138 0 .09.209l-.033.745c-.071.104-.123.294-.194 0Zm-2.496-1.854.066-.053h.071l.261.328a.052.052 0 0 1 0 .071l-.07.052a.043.043 0 0 1-.034.016.043.043 0 0 1-.033-.016l-.28-.327v-.071h.019Zm1.717 2.567c.034 0 .053.033.053.07a.062.062 0 0 1-.053.067c-.038 0-.052-.033-.052-.066s0-.071.052-.071Zm-1.006-2.9c0-.726.105-1.314.105-1.855 0-.223.156-.223.156.033.015.592-.02 1.184-.104 1.77 0 .09-.157.247-.157.052ZM6.644 33.884c-.124.474-.641.228-.38-.19.64-1.04 1.262-2.083 1.386-3.488.033-.503.346-.726.745-.949a2.235 2.235 0 0 0 1.129-2.168c-.19-3.92.902-5.637 2.586-6.316l-.052.157c-1.51.92-2.136 2.69-2.155 5.1-.04.56-.04 1.121 0 1.68l.053-.118c-.007-1.16.07-2.32.228-3.469a4.493 4.493 0 0 1 .782-1.898 3.74 3.74 0 0 1 .29-.417c.142-.138.299-.171.417-.295v.124a4.65 4.65 0 0 0-1.286 2.254 13.232 13.232 0 0 0-.17 3.677 1.372 1.372 0 0 1-.124.475l.072-.038a1.64 1.64 0 0 0 .156-.745c-.123-1.6 0-3.208.57-4.337.398-.783.64-1.077 1.755-1.704l-.038.124c-.949.64-1.822 1.39-1.993 3.919l.053-.052c.17-1.927.863-3.346 2.149-3.867a4.164 4.164 0 0 1 1.58-.157l-.104.085a2.771 2.771 0 0 0-2.373.95l.105.033a2.373 2.373 0 0 1 2.33-.817l-.072.143a2.212 2.212 0 0 0-1.736.536v.071a2.184 2.184 0 0 1 1.646-.474c.176 0 .228.156.176.365l-.105.95a10.76 10.76 0 0 1-.294 2.637l-.085.072.085-1.6-.365 1.98c-.034.227-.19.189-.157 0 .085-.423.228-.993.313-1.6a.21.21 0 0 0-.175.19 4.598 4.598 0 0 1-.432 1.789 8.21 8.21 0 0 0 .209-1.614l-.105.086-.256 1.509c.185.104-.057.26-.123.07l.085-.834h-.066l-.366 1.338.119-.916-.313.916h-.119l.157-.778-.522 1.423c-.157.034-.176 0-.052-.26l.327-.95h-.104c-.21.712-.361 1.215-.622 1.372h-.085a2.64 2.64 0 0 0 .431-1.267 3.365 3.365 0 0 1-.726 1.423c-.052-.052 0-.209.223-.588l.19-.503c-.085-.105-.137-.071-.19.085a2.54 2.54 0 0 1-.474 1.006l.228-.85-.034-.104a2.69 2.69 0 0 1-.66 1.196l.138.071c.475-.313 1.11-.208 1.77-.503.138-.07.276-.104.366-.033l-.124.328-.123-.19a1.13 1.13 0 0 1-.313.607l-.048-.38c-.28.603-.474.95-.474.641l.052-.365c-.208.2-.348.46-.399.745-.104 0-.118-.228-.085-.522l-.176.645c-.151.033-.19-.142-.104-.522a2.43 2.43 0 0 1-.308.627.649.649 0 0 1-.038-.504l-.171.328c0 .242-.071.332-.176.313.053-.365.053-.503 0-.418l-.208.556c-.12.07-.152-.067-.138-.38-.19.104-.138.475-.275.64-.105-.07-.124-.241-.105-.431-.09.294-.175.474-.299.474l-.033-.574c-.035.227-.11.446-.223.646l-.156-.418-.072.399c-.118.07-.223-.038-.294-.295 0 .537-.066.987-.417 1.215-.038.328-.15.643-.328.92l.555-.815c.124-.038.171.033.124.294l-.574.949c-.09.104-.19.07-.295 0a3.51 3.51 0 0 1-.54 1.11 1.98 1.98 0 0 0 .588-.949c.038-.138.194.033.142.313l-.142.119v.209h-.171v.275l-.157.071c.157.38-.038.626-.417.432h-.014ZM9.922 20.82l.678-.118-.033.137-.645-.018Zm-6.317 5.292c.145-.326.327-.635.541-.92.138-.224.19-.067.171.142-.181.305-.424.57-.712.778Z" clip-rule="evenodd"/>
    <path fill="#fff" fill-rule="evenodd" d="M10.705 20.513c-1.11-.987-2.202-1.509-3.018-1.333-1.542.346-2.292 1.77-2.743 3.122.261-.45.475-.745.764-.83a7.706 7.706 0 0 0-1.267 3.867.949.949 0 0 1-.275.45 1.31 1.31 0 0 0-.541.95c.14-.148.27-.306.384-.475.263-.28.454-.62.556-.991.156-.608.223-1.215.346-1.666.147-.532.369-1.04.66-1.509a5.09 5.09 0 0 1 2.078-2.102v.043a5.575 5.575 0 0 0-2.012 2.116c-.16.276-.294.567-.399.868a3.843 3.843 0 0 0-.313 1.144 4.048 4.048 0 0 1-.588 1.898 3.21 3.21 0 0 0-.503.693.873.873 0 0 0-.086.417c.608-1.148.883-1.044 1.144-1.86.365-1.248.123-2.529 1.789-4.351h.118a6.278 6.278 0 0 0-1.613 3.64 3.796 3.796 0 0 1-.242 1.01c-.209.394-.64.712-.764 1.11h.086c.306-.304.57-.649.783-1.024.503-.95.327-2.273.972-3.322.835-1.371 1.476-2.083 2.496-2.482h.124c-1.424.75-1.652 1.286-2.26 2.117-.236.326-.417.69-.535 1.077a11.343 11.343 0 0 0-.347 1.684 2.87 2.87 0 0 1-.64 1.457c-.157.19-.276.275-.399.45a2.487 2.487 0 0 0-.26.66l.085-.033c.384-1.025.607-.802.887-1.148.245-.327.408-.708.474-1.11.06-.845.285-1.67.66-2.43a6.79 6.79 0 0 1 1.58-2.06c.265-.235.58-.409.92-.507h.086a7.324 7.324 0 0 0-1.144.745A6.359 6.359 0 0 0 6.325 22.9a7.592 7.592 0 0 0-.536 2.183c0-.1.071.057.104-.034.313-1.803.95-3.07 1.77-3.886a3.29 3.29 0 0 1 1.49-.949h.332c-.842.19-1.577.7-2.05 1.424h.105a3.938 3.938 0 0 1 2.012-1.22h.104c-.408.117-.79.312-1.125.574l.034.105a4.983 4.983 0 0 1 2.168-.593l-.028.01Zm-6.942 7.592a.826.826 0 0 1-.118-.431c0-.21.175-.195.208-.053.034.261-.09.276-.09.475v.01Zm2.01 1.841.176-.19a.28.28 0 0 1 .261-.033c0 .085-.209.175-.437.223Zm-.148.531.223-.242a.365.365 0 0 1 .365-.056c-.033.109-.275.227-.588.299Zm.012.286.26-.223a.375.375 0 0 1 .385 0c-.186.143-.41.228-.645.242v-.019Zm.054.242.242-.204a.39.39 0 0 1 .366 0c-.052.105-.313.19-.608.223v-.019Zm.137.26.157-.171a.294.294 0 0 1 .26-.038c0 .07-.208.156-.417.209Zm.887-2.775.142-.086a.166.166 0 0 1 .185 0c0 .052-.17.066-.327.066v.02Zm-.227.294.294-.138a.38.38 0 0 1 .347.085c-.071.086-.332.105-.64.053Zm.157-.711.223-.17a.342.342 0 0 1 .317 0 .948.948 0 0 1-.54.17Zm.189-.414.223-.052a.28.28 0 0 1 .242.118c-.048.052-.257 0-.475-.066h.01Zm-.486 4.665.156-.086a.294.294 0 0 1 .19 0c0 .052-.17.086-.346.066v.02Zm.491-.536-.385.052a.474.474 0 0 0-.294.327c.124.038.399-.137.679-.38Zm-.198-.175h-.294a.332.332 0 0 0-.261.228.948.948 0 0 0 .555-.228Zm1.375 1.422.175-.365a.473.473 0 0 1 .38-.19c0 .119-.242.366-.555.555Zm.781-.365.313-.118a.473.473 0 0 1 .36.138c0 .104-.227.294-.474.432l.152-.295a.948.948 0 0 1 .123-.1h-.104a1.869 1.869 0 0 1-.365.295l.123-.247c0-.033.052-.047.071-.066-.057 0-.109 0-.175-.038h-.024Zm1.511.053c.104-.052.474.038.418.156-.057.12-.243.3-.475.475l.138-.313a.435.435 0 0 1 .104-.105h-.123a1.58 1.58 0 0 1-.351.295l.109-.261.066-.048a.813.813 0 0 1-.085 0 1.28 1.28 0 0 1-.261.209l.07-.176c.12-.156.21-.137.4-.208l-.01-.024Zm2.239-.053c0-.295.223-.475.655-.523.503-.066 1.115.038.949.261h-.053l-.085.21-.194.346.123-.38.052-.19a1.779 1.779 0 0 0-.223-.071l-.161.157-.256.294.208-.347.086-.137h-.105l-.156.156-.261.3.209-.333.085-.142h-.133l-.1.156-.246.318.175-.365.053-.09-.195.052-.119.294.053-.275a.541.541 0 0 0-.347.327l-.014-.019Zm-1.634.246v-.038h.033l.437-.275c.294-.138.66-.195.607.052 0 0-.038.053-.104.067v.299l-.119-.261h-.071c-.01.139-.01.278 0 .417l-.176-.384a.143.143 0 0 1-.085 0v.607l-.247-.503v-.038c-.033.105-.052.228-.085.332l-.052-.35c-.053.142-.12.317-.176.474v-.432l.038.033Z" clip-rule="evenodd"/>
    <path fill="#fff" fill-rule="evenodd" d="m5.95 21.187.744-.745a1.47 1.47 0 0 0-.745.745Zm4.096 13.562a.797.797 0 0 1 0-.73c.137-.361.313-.475.417-.475.119.142-.033.417.034.764l-.276-.242.086.474-.21-.228-.051.418v.019Zm2.463.474a.187.187 0 0 0-.105-.104c-.033 0 0 .09.038.156.028.047.07.083.119.105 0 0 0-.086-.052-.157Zm-.005.294c-.066-.104-.137-.157-.17-.138-.034.02 0 .1.066.205.066.104.142.156.175.142.034-.014 0-.105-.07-.209Zm-.165.295a.36.36 0 0 0-.119-.137c-.038 0 0 .104 0 .19 0 .085.104.137.123.123.02-.015 0-.09 0-.176h-.004Zm-.143.294c-.033-.138-.118-.242-.152-.223-.033.019-.033.137 0 .275.034.138.105.228.138.228.033 0 .052-.138 0-.28h.014Zm-2.026-.119c.104 0 .17.052.17.086a.29.29 0 0 1-.19 0c-.085 0-.17-.053-.156-.072.014-.018.085-.052.175-.033v.02Zm-.091-.228c.123 0 .208.071.208.104 0 .034-.104.053-.223.034-.118-.02-.209-.067-.209-.105 0-.038.105-.052.223-.033Zm-.052-.279c.143.037.242.09.242.123s-.137.071-.275.038c-.138-.033-.261-.071-.242-.124.019-.052.123-.052.275-.038Zm4.513-2.947c-.104-.347.28-.475.68-.295.382.142.798.167 1.195.072.253-.043.511-.043.764 0 .261.137.242.26-.052.313-.51.397-.874.95-1.04 1.575-.194-.256.21-.916.831-1.732-.4.323-.755.696-1.058 1.11.137-.392.343-.756.607-1.077-.678.503-1.148 1.253-1.077 2.639a2.67 2.67 0 0 1 .45-2.41l-.744.777.678-1.039-.417.138.033-.157-.26.124v-.195l-.343.28.067-.299c-.123-.066-.209.038-.313.176Zm.309 1.959a.882.882 0 0 0 .156.697c.053.048.12 0 .086-.142a1.01 1.01 0 0 1-.242-.555Z" clip-rule="evenodd"/>
    <path fill="#fff" fill-rule="evenodd" d="M15.72 34.596c.033 0 .066.086.066.21 0 .123-.033.222-.066.222-.034 0-.072-.1-.072-.223s.034-.209.072-.209Zm.796-.883a.285.285 0 0 1 0 .19c-.052.104-.105.176-.138.157-.033-.02 0-.105 0-.19 0-.086.104-.176.142-.157h-.004Zm.189-.416c.033.033 0 .104-.052.17-.053.067-.119.143-.138.124-.019-.02 0-.105.052-.171a.247.247 0 0 1 .138-.123Zm6.51.679c.299.105.332.517.17 1.02a2.193 2.193 0 0 0-.17-1.02Zm-1.509 2.13a.911.911 0 0 0-.104-.26c0 .104.033.208.052.313l.052-.053Zm-3.401-5.24a.413.413 0 0 1 .137 0l.138.223a.617.617 0 0 1-.157-.033l-.118-.209v.02Zm-.271 1.51a.34.34 0 0 1 .104.194c0 .086 0 .138-.038.119a.285.285 0 0 1-.104-.176c0-.085 0-.137.038-.137Zm.251 0s.067.052.086.142c.019.09.052.157.033.17-.019.015-.066-.051-.104-.137-.038-.085-.053-.175 0-.175h-.015Zm.319-.066c.033 0 .104.099.119.227.014.128.033.152-.053.152-.085 0-.052-.033-.066-.152-.014-.119 0-.228 0-.228Zm.291-.104c.066.06.113.137.137.223.034.123.052.242 0 .242s-.09-.071-.137-.209c-.048-.138-.057-.242 0-.256Zm.314 0c.047 0 .104.104.137.242.033.137 0 .275 0 .294 0 .019-.104-.123-.119-.261-.014-.138-.037-.275 0-.275h-.018Zm.346.052c.034 0 .138.156.157.294.019.137.052.209-.052.227-.105.02-.086-.057-.124-.213-.038-.157 0-.309 0-.309h.02Zm.225-.072c.051 0 .104.105.156.261.052.157.038.294 0 .294s-.105-.104-.138-.26c-.033-.157-.052-.295 0-.295h-.019Zm.36-.086c.033 0 .09.157.09.347 0 .19-.038.346-.09.346s-.085-.157-.085-.346c0-.19.033-.347.085-.347Zm.298.106c.038 0 .066.137.066.294 0 .157-.029.294-.067.294-.037 0-.066-.123-.066-.294 0-.17 0-.294.067-.294Zm.296-.091c.038 0 .072.157.072.346 0 .19-.034.352-.072.352-.038 0-.066-.157-.066-.352 0-.194.033-.346.066-.346Zm.31-.085c.052 0 .072.17.052.399-.018.227-.066.365-.118.365-.052 0-.057-.176-.038-.384.019-.21.052-.38.104-.38Zm.417-.02c.052 0 .052.176 0 .385-.052.209-.085.365-.133.365-.047 0-.057-.175 0-.384.057-.209.1-.366.138-.366h-.005Zm.332-.19c.052 0 .142.261.104.503-.038.242-.118.474-.17.45-.053-.023 0-.222 0-.474 0-.251 0-.503.052-.474l.014-.005Zm-1.773 1.978s.056.057.09.124a.55.55 0 0 1 .032.17s-.066-.051-.085-.118c-.019-.066-.052-.175-.038-.175Zm.246-.103c.033 0 .085.085.118.19.034.104.038.156 0 .175-.038.02-.052-.033-.09-.137a.351.351 0 0 1 0-.228h-.028Zm2.339-.73v.123l.157-.104a5.213 5.213 0 0 0 0-.85c-.043.28-.101.558-.176.83h.019Z" clip-rule="evenodd"/>
    <path fill="#fff" fill-rule="evenodd" d="M22.434 33.349c-.09.45-.104.588-.28.745a1.56 1.56 0 0 0 .038-.536.44.44 0 0 1-.123.033v.052a.878.878 0 0 1-.19.679c0-.242.086-.475.086-.712l-.138.052v.242a1.7 1.7 0 0 1-.142.38c.051-.197.064-.401.038-.603a.945.945 0 0 0-.124.033v.086c0 .057 0 .104-.052.104s-.033-.033-.033-.085c0-.053 0-.053-.038-.067a.223.223 0 0 0-.085 0v.105c0 .019-.048-.053-.086-.105a.76.76 0 0 0-.085 0c0 .09 0 .124-.052.157-.053.033-.086-.052-.105-.138-.052 0-.104 0-.156.038-.053.038 0 .119 0 .119s-.053-.033-.086-.105h-.138v.124c0 .019-.052-.038-.085-.105 0 0 0-.052-.038-.09a.35.35 0 0 1-.052-.223c.033 0 .09.052.138.176a.29.29 0 0 1 .037.118.369.369 0 0 1 .12-.033v-.071c-.034-.138-.034-.261 0-.275.032-.015.09.085.122.223a.81.81 0 0 1 0 .085l.138-.047a.688.688 0 0 1 0-.176v-.104s.105.104.138.242a.356.356 0 0 0 .085-.033V33.6a.558.558 0 0 1-.033-.208v-.09c0-.02.104.123.138.246a.065.065 0 0 0 0 .052l.085-.038v-.237c0-.071 0-.104.033-.104s.033.033.052.085c.02.052.038.157.053.242a.299.299 0 0 0 .104-.033v-.138c0-.052 0-.09.033-.09s.052.09.071.176l.138-.052v-.19c0-.052 0-.105.038-.105s.033 0 .033.067a.476.476 0 0 1 .033.175c.038 0 .072 0 .105-.052s0-.209 0-.275c0-.066.033-.123.052-.123.019 0 .033 0 .033.085.01.087.01.174 0 .261a.207.207 0 0 1 .105-.033c.157-.567.25-1.15.275-1.737-.033-.066-.067-.123-.105-.19a3.754 3.754 0 0 1-.294 1.576 4.272 4.272 0 0 0 0-1.766h-.047a4.113 4.113 0 0 1-.176 1.7 4.119 4.119 0 0 0-.185-1.851.25.25 0 0 0-.109-.038.95.95 0 0 1 .052.783c-.104-.333 0-.432-.313-.66h-.085a.764.764 0 0 1 .137.64 2.114 2.114 0 0 0-.36-.555h-.157c.228.261.228.314.19.522-.086-.223-.437-.38-.574-.474h-.152c.17.09.413.403.327.503-.119-.138-.38-.275-.474-.475-.072 0-.038.034-.105.034.01.097.01.196 0 .294a.645.645 0 0 1-.431-.261h-.105s.085.175.105.228c-.038-.053-.4-.242-.437-.295-.038-.052.071 0-.138-.038 0 .053.138.332.157.385a6.325 6.325 0 0 0-.328-.366c-.033-.033-.156 0-.242-.033l-.156-.26c.9.053 1.804-.006 2.69-.176l.95-.19c.332-.105.555.071.626.574l.052.555a1.128 1.128 0 0 1 .085 1.163c.091.375.305.709.608.949.28.26.313.621 0 1.143a7.175 7.175 0 0 1-1.073 1.737s-.038.033-.038.052a.47.47 0 0 0-.052.067.518.518 0 0 0 .052-.086c0-.085-.033-.175-.052-.26a.532.532 0 0 1 .09.189l.157-.256c0-.09-.038-.176-.052-.28.033.071.066.123.1.19.037-.067.09-.138.123-.204.033-.067-.052-.19-.086-.295.047.064.087.133.119.204.055-.08.102-.166.142-.256 0-.09-.057-.175-.07-.26.038.053.073.11.104.17a2.88 2.88 0 0 0 .104-.38l-1.789 1.11c.157-.137.332-.26.474-.398 0-.1-.033-.223-.052-.327.047.089.089.18.124.275.033-.033.085-.066.118-.104 0-.138-.033-.276-.052-.413.06.11.107.226.143.346.047-.033.1-.085.151-.123a3.4 3.4 0 0 0-.066-.555c.08.148.138.308.17.474a1.19 1.19 0 0 1 .143-.123c0-.242-.052-.517-.09-.778.118.201.189.426.209.66.038-.039.07-.053.104-.086a7.825 7.825 0 0 0-.104-.85c.13.223.213.47.242.726 0 0 .038-.033.057-.052a7.616 7.616 0 0 0-.11-1.006c.161.26.24.563.228.869l.105-.105a5.253 5.253 0 0 0-.347-1.423c-.07.242-.07.332-.137.313.033-.28 0-.399-.038-.437.004.27-.081.534-.242.75l.07-.626-.084-.005Z" clip-rule="evenodd"/>
    <path fill="#fff" fill-rule="evenodd" d="M20.877 34.44c0 .105 0 .19-.072.19-.07 0-.052-.1-.038-.19h.11Zm.184-.165c.034 0 .052.052.052.176 0 .123 0 .204-.09.204s-.085-.119-.052-.223c.033-.105.052-.157.09-.157Zm.246 0c0 .19 0 .332-.07.313-.072-.019-.067-.156-.034-.313h.104Zm-.036-.235s0 .039.034.091h-.086c0-.052.033-.09.052-.09Zm.244-.032c.034 0 .053.067.053.223 0 .157 0 .3-.124.28-.123-.019-.085-.156-.052-.313.033-.156.071-.19.123-.19Zm-1.199-4.954c.5.184.956.474 1.334.85.071.118.033.156-.071.104-.314-.104-.76-.626-1.263-.949v-.005Zm1.669 1.101c.085.052.119.104.104.123-.014.02-.09 0-.175-.038-.086-.038-.123-.118-.105-.137.02-.02.086 0 .176.052Zm-4.38.641.475.052.104.175c-.052 0 .157.555-.118-.033-.038-.071-.143-.052-.228-.085a.59.59 0 0 0-.209-.09l-.024-.02Zm-2.167 7.497c.09 0 .176.033.176.07 0 .039-.052.048-.138.048-.085 0-.175 0-.175-.047 0-.048.052-.071.137-.071Zm.22.436c.138-.038.294-.057.308 0 .015.057-.066.085-.204.138a.475.475 0 0 1-.313 0c0-.034.071-.086.209-.119v-.019Z" clip-rule="evenodd"/>
    <path fill="#fff" fill-rule="evenodd" d="M15.807 38.862c.156-.033.313-.052.346 0 .034.052-.085.105-.242.138-.156.033-.313.052-.346 0-.033-.052.066-.105.242-.143v.005Zm.207.158c.104-.03.209-.03.223 0 .014.028-.052.07-.156.103-.105.034-.223 0-.242 0-.02 0 .07-.07.175-.09v-.014Zm.12.142c.104 0 .17.033.17.066s-.047.052-.132.052c-.086 0-.176 0-.176-.052s.052-.066.138-.066Zm1.898-.694c.137-.057.28-.057.299 0 .018.057-.072.157-.21.209-.137.052-.28.052-.298 0-.02-.052.071-.138.209-.204v-.005Zm-.267-.156c.104-.052.209-.052.228 0 .019.053-.052.119-.157.157-.104.038-.208.033-.227 0-.02-.033.052-.123.156-.157ZM17.557 38a.166.166 0 0 1 .17 0c0 .052-.032.104-.118.118-.085.015-.157.038-.175 0-.02-.037.033-.085.123-.118Zm-2.53-1.443c0-.086-.105-.086-.143 0a.351.351 0 0 0 .143.346c.137.071.17-.071.1-.123a.332.332 0 0 1-.1-.209v-.014Zm-.241-.119c0-.105-.076-.157-.142-.071a.37.37 0 0 0 0 .431c.123.162.227 0 .19-.066a.367.367 0 0 1-.029-.294h-.019Zm12.101-7.791c-.104.157-.138.745.384 1.457.19.247-.038.417.242.474.105 0 .176-.104.19-.256l-.17-.09h.241l-.26-.17c.085 0 .294.032.275-.053-.02-.085-.257-.123-.38-.176l.294-.07c0-.086-.156-.157-.432-.243l.276-.071-.314-.19.247-.066-.384-.19.209-.104-.228-.072.209-.104c-.171-.071-.242-.228-.399-.052v-.024Zm-.407.449a.807.807 0 0 1-.07-.588c.122-.313.241-.399.346-.399.208.223-.138.365-.21.536-.052.034-.066.157-.066.451Zm-.094-1.076c.09-.086.19-.138.228-.105.038.033 0 .123-.104.228-.105.104-.195.156-.228.123s0-.137.104-.246Zm-.083 1.114a.114.114 0 0 1 .104.12.113.113 0 0 1-.104.104.119.119 0 0 1-.123-.105.123.123 0 0 1 .123-.119Zm.225.346c.071 0 .09.105.033.19-.057.086-.1.138-.152.105-.052-.034-.09-.105-.033-.19.057-.086.104-.143.152-.105Zm.247.361c.086.038.105.123.034.228a.265.265 0 0 1-.262.119.143.143 0 0 1-.047-.223.256.256 0 0 1 .275-.124Zm.273.404c.047.067 0 .138-.072.171a.185.185 0 0 1-.223-.052c-.038-.052 0-.119.067-.157a.204.204 0 0 1 .228.038Zm1.233.204c.034-.052.034-.138-.052-.152-.085-.014-.142 0-.19-.11-.07-.203.034-.308.21-.36.175-.052.189.052.15.138l-.085.071a.545.545 0 0 1 .314.19c-.086 0-.138 0-.157.085.294-.052.275.418 0 .332-.175-.052-.26 0-.175.309.085.308.313.436.294.07-.034-.175.56-.208.626.177l-.228-.09c.057.28.28.156.314.398h-.19c.213.138.378.339.474.574-.242-.033-.256-.294-.474-.294.294.394.645.308.816.712a1.642 1.642 0 0 1-.869-.522c.295.417.475.764.418.949-.432-.19-.522-.83-.693-1.025 0 .332.242.522.157.887a1.608 1.608 0 0 1-.261-1.058c.17.033.242-.085.242-.384 0-.3-.195-.295-.157 0 .038.294-.156.299-.626 0-.071.07.033.156.294.313v.26l.138-.227.052.73c0 .19-.071.157-.123-.032l-.053-.366c0 .261-.033.38-.118.365l-.071-.678-.19.242-.052-.38-.176.138v-.474c-.119.07-.256 0-.399-.19a.556.556 0 0 0 .475-.067c-.085-.35.071-.522.365-.56v.029Zm-4.131 2.116a.413.413 0 0 0-.104-.413c-.071-.07-.124-.085-.105 0 .02.086.171.276.21.413Zm-.275-1.057c.228.123.332.142.45.474.039.119 0 .209-.07.104-.072-.104-.204-.417-.38-.574v-.005Zm.031-.674a.99.99 0 0 1 .555.73c.038.19 0 .295-.118.133-.176-.237-.228-.602-.437-.863Zm.144-.484a.95.95 0 0 1 .575.844c0 .195-.09.313-.142.142a2.468 2.468 0 0 0-.432-.987Zm.15-.26a.983.983 0 0 1 .588.64c0 .171 0 .261-.118.119a1.964 1.964 0 0 0-.475-.76h.005Zm2.034 8.583a.476.476 0 0 1 .641-.204c.138.033.119.204.119.328-.086-.086-.171-.19-.257-.086-.242-.194-.332-.09-.503-.038Zm-.938.071c.071 0 .119.033.119.104 0 .072-.048.086-.12.086a.095.095 0 0 1-.104-.086.1.1 0 0 1 .105-.104Zm-.622 0c.033 0 .09.052.119.137.028.086 0 .176 0 .176s-.086-.038-.124-.142c-.038-.105 0-.171 0-.171h.005Zm.226-.034s.052.033.066.1c.015.066 0 .104 0 .123 0 .019-.052-.033-.07-.105-.02-.07 0-.104 0-.118h.004Zm.05-2.239s-.037.034-.037.053c0 .018-.138.118-.157.085-.019-.033 0-.104.038-.17l.067-.072s0-.033-.034-.052c-.033-.02 0 .033-.033.052-.033.019-.156.138-.19.104-.033-.033 0-.123.048-.208.047-.086.057-.053.071-.072.014-.019 0-.033-.033-.033-.071.086-.157.124-.19.105-.033-.02 0-.124.047-.21a.043.043 0 0 1 .038-.032.31.31 0 0 1-.052-.072c-.052.034-.085.053-.123.034-.038-.02 0-.086.057-.152-.038-.071-.057-.143 0-.176s.152.033.256.261c.033.086 0 .138.052.19.052.052.138.104.176.157a.44.44 0 0 1 .085.365c-.033 0 0 0-.085-.157Zm-.002.177c.052.037 0 .142-.072.246-.07.105-.17.157-.208.119-.038-.038 0-.138.052-.242.052-.105.19-.152.228-.123Zm2.132-1.028s0 .105-.034.21c-.033.104-.104.17-.138.156-.033-.014 0-.104.034-.208.033-.105.104-.176.137-.157Zm-.26-.103c.038 0 0 .157-.048.314-.047.156-.175.26-.227.242-.053-.02-.034-.157.052-.313.085-.157.175-.261.223-.242Zm-.605-.241c.034 0 0 .118-.038.26-.038.143-.118.204-.151.19-.034-.014 0-.123.033-.246.033-.124.118-.223.156-.204ZM9.385 5.955a.446.446 0 0 1 .384-.384l.38.071c.137.105.123.138-.034.157-.313-.052-.474 0-.574.223-.1.223-.17.194-.156-.067Zm1.213.726a.095.095 0 0 1 .085.105.11.11 0 0 1-.085.104.095.095 0 0 1-.086-.104c0-.067.033-.105.086-.105Z" clip-rule="evenodd"/>
    <path fill="#fff" fill-rule="evenodd" d="M9.334 6.335c-.119.157-.086.332.123.536l.275.351c.247.171.366.138.333-.123-.038-.17 0-.242.175-.242a.318.318 0 0 0 .223-.157c.033-.137 0-.208-.104-.242a1.632 1.632 0 0 1-.574.261c.157-.085.299-.197.417-.332a.2.2 0 0 1 .223-.033.195.195 0 0 0-.156-.209 1.063 1.063 0 0 0-.707.418.698.698 0 0 1 .66-.475.199.199 0 0 0-.086-.223.745.745 0 0 0-.541.157l-.261.308v.005Zm1.406 2.153a7.591 7.591 0 0 1 1.424 1.96v.64l-.208-.725c0 .498 0 .83-.053.726l-.17-1.04-.124.451-.104-.64c-.086-.071-.105.327-.086.882-.156-.156-.142-.607-.123-1.11l-.176.475a1.9 1.9 0 0 1 0-.95c-.104-.085-.17.086-.208.608a1.818 1.818 0 0 1-.034-.95l-.123.262-.028-.608.014.02Zm4.25-4.896c.212.132.461.193.711.175v.138c.464-.03.91-.194 1.281-.475a.223.223 0 0 0-.19 0c-.313.157-.275.053.314-.242.085-.052.156 0 .294-.038l.384-.085c-.313.28-.626.555-.949.816a1.556 1.556 0 0 1-1.319.209 3.643 3.643 0 0 1-.66-.399c-.052-.09-.104-.142.138-.09l-.005-.01Zm2.396.091a.07.07 0 0 1 .09.069.071.071 0 0 1-.09.068.071.071 0 0 1-.061-.125.072.072 0 0 1 .061-.012Zm.517 1.037c.038-.051.07-.07.104-.032.033.038.038.066 0 .104-.038.038-.085.066-.104.052-.02-.014-.034-.071 0-.123Zm1.235-.468h.118a.095.095 0 0 1-.066.123c-.052.033-.104.033-.119 0-.014-.033 0-.085.067-.123Zm-.28-.191c.057-.033.109-.052.123 0 .014.053 0 .086 0 .119s-.109.052-.123 0c-.014-.052 0-.071 0-.123v.004Zm-1.89.365a.095.095 0 0 1 .119.034.095.095 0 0 1-.086.09.095.095 0 0 1-.118-.038c0-.033.033-.067.085-.086Zm.676 1.287c.067-.038.157-.038.171 0 .014.038 0 .085-.104.118-.105.034-.157 0-.171 0-.014 0 0-.085.104-.1v-.018Zm-2.216-1.182c.277-.04.546-.121.797-.242l.4-.194c.189-.085.222-.067.066.09a4.85 4.85 0 0 1-.556.38.83.83 0 0 1-.759.137c-.19-.052-.123-.156.052-.17Z" clip-rule="evenodd"/>
    <path fill="#fff" fill-rule="evenodd" d="M16.637 4.38c.2-.174.43-.31.679-.4a2.32 2.32 0 0 1 .887-.156c.204-.19.394.071.17.28a1.056 1.056 0 0 1-.241.157 2.097 2.097 0 0 1-.712.313c-.313.085-.346.047-.086-.123a1.323 1.323 0 0 1 .83-.346c-.293-.19-.867.104-1.423.379-.17.09-.227.033-.09-.105h-.014Z" clip-rule="evenodd"/>
    <path fill="#fff" fill-rule="evenodd" d="M18.203 3.454a1.31 1.31 0 0 1 .366 0c.223.066.327.19.346.346-.057.157-.123.242-.228.275-.052-.275-.157-.431-.313-.474a.527.527 0 0 0-.17 0v-.147Zm-.262.072a.503.503 0 0 1 .157-.066v.1l-.143.032c-.071 0-.137-.033 0-.066h-.014Zm-.313-.176a.949.949 0 0 1 .536-.275c.219-.029.44-.029.66 0 .431.151.26.294 0 .19a.721.721 0 0 0-.627 0c0 .17-.313.033-.474.156-.162.123-.138 0-.067-.09l-.028.019Zm1.267.053c.137 0 .242 0 .26.138a.351.351 0 0 1-.123.35c.052-.331-.104-.293-.137-.474v-.014Zm.38-.087c.05.135.05.283 0 .418l-.137.26c-.034.12 0 .157.085.12a.404.404 0 0 0 .209-.38c0-.261 0-.385.104-.475-.156-.26-.313-.223-.26.052v.005Zm-1.111 1.538c0 .171.403.209.475 0 .07-.209-.067-.36 0-.57a.546.546 0 0 0-.432.556l-.043.014Zm-.106.442a.399.399 0 0 1 .436-.19c.157 0 .242.033.242.19.02.157.02.317 0 .474-.052.143-.066.124-.242.143-.175.018-.26-.086-.474.033.123-.294 0-.418.052-.64l-.014-.01Zm.756-.679c-.09-.138 0-.19.105-.086a.475.475 0 0 1 .17.333c0 .118-.123.223-.208.118-.086-.104 0-.209-.067-.365Zm.08.66c-.053-.171 0-.19.223-.105.223.086.156.209.09.28a.431.431 0 0 1 0 .55c-.086-.066-.19-.033-.261-.132-.071-.1-.067-.038-.033-.3a.427.427 0 0 0-.034-.293h.015Zm.24 1.423c.09 0 .137.052.137.104s-.066.086-.137.067c-.072-.02-.138-.048-.138-.105 0-.057.071-.066.138-.066Zm-1.076-.157c.085 0 .157.052.138.104-.02.052-.067.104-.152.09-.086-.014-.162-.057-.143-.109.02-.052.072-.104.157-.085Z" clip-rule="evenodd"/>
    <path fill="#fff" fill-rule="evenodd" d="M18.307 7.896a.261.261 0 0 1 .275 0c.052.038.033.09 0 .124a.427.427 0 0 1-.19 0c-.052-.053 0-.086-.066-.124h-.02Zm-.214-.118c.157-.036.319-.036.475 0 .275.066.294.17.033.327-.17.008-.339-.01-.503-.052.052-.086.105-.119 0-.275h-.005Zm1.286-1.424a1.001 1.001 0 0 0-.745-.346 2.629 2.629 0 0 0-.92.118 1.187 1.187 0 0 0-.223.95l.156.033-.142.104h.195l-.124.176.104.033-.085.223.105.071-.053.138h.138l-.038.137h.11l-.039.138.104.033c.089.115.2.21.328.28.104.047.22.059.332.033.162-.14.307-.3.432-.474.052 0 .071-.124.071-.28a.247.247 0 0 0 .138-.257l.09-.123v-.417a.474.474 0 0 1-.261.038l-.247-.105-.066.536c0 .105-.053.261-.176.21l-.294-.139c-.066-.037-.052-.142.038-.175h.1v-.475a.603.603 0 0 1-.537-.052.475.475 0 0 0-.209-.033.702.702 0 0 1 .195-.247l-.11-.156h.158c.241 0 .365-.053.431 0a.95.95 0 0 0 .195.156V6.36c.047-.138.152-.176.308-.123l-.033.35.555-.175v-.104l.02.047Z" clip-rule="evenodd"/>
    <path fill="#fff" fill-rule="evenodd" d="M18.354 7.359c.038 0 .052 0 .052.053 0 .052 0 .033-.052.033-.053 0-.053 0-.053-.033a.058.058 0 0 1 .053-.053Zm.283-.796v-.124c.085-.085.118-.137.118-.052a.52.52 0 0 1 0 .176h-.118Zm-.106.848c0-.228.053-.417.086-.693h.123a6.39 6.39 0 0 1-.104.726c-.038.072-.067.038-.105-.033ZM17.2 6.217c0-.143.118-.124.132 0a.632.632 0 0 1-.119.555c-.085.052-.208 0-.137-.105a.522.522 0 0 0 .123-.45Zm-.118 1.009c-.038-.157.067-.209.105-.033a2.6 2.6 0 0 0 .797 1.352c.19.157 0 .294-.19.138a2.41 2.41 0 0 1-.712-1.457Zm1.744 1.425a.442.442 0 0 1 .19-.399c.109-.07.142.053.09.124-.053.071-.19.119-.28.275Zm-4.529 1.898a.503.503 0 0 1 .104-.294.678.678 0 0 1-.123-.09c-.103.206-.23.398-.38.574.093-.343.265-.658.503-.921a3 3 0 0 1-.104.313c.033.033.085.067.119.105a.558.558 0 0 0 .09-.105c.01.052.01.105 0 .157v.052a.65.65 0 0 1-.171.228l-.038-.02Zm-.211.313a.475.475 0 0 1 .119-.242.314.314 0 0 1-.12.242Zm.926.161c.012-.065.03-.128.052-.19l.033-.038a.148.148 0 0 1 .033-.066c.038-.038.071-.09.105-.124a.508.508 0 0 1-.223.418Zm-.042.475c-.048-.176 0-.294.209-.399 0 .261 0 .328-.209.399Zm.42-.148c.162-.353.212-.748.143-1.13a.992.992 0 0 1-.142 1.13Zm2.828 1.57a3.55 3.55 0 0 0 .104-1.072.631.631 0 0 1-.085.034c-.028.237-.087.47-.175.692.056-.22.08-.447.07-.673a.3.3 0 0 1-.104.033 3.586 3.586 0 0 1-.137.555 3.11 3.11 0 0 0 .052-.536h-.157c0 .228-.052.474-.104.783v-.764h-.176a6.271 6.271 0 0 1-.085.887c0-.313 0-.607-.033-.906-.053 0-.105 0-.176-.034a7.003 7.003 0 0 1-.085.95c0-.333-.034-.646-.034-.95l-.156-.047c-.03.29-.076.579-.138.864v-.902l-.161-.052c0 .346-.048.66-.067 1.025a4.62 4.62 0 0 1-.052-1.077.434.434 0 0 1-.142-.067 4.054 4.054 0 0 0-.08 1.196 2.102 2.102 0 0 1 0-1.234.38.38 0 0 0-.105-.066 2.947 2.947 0 0 1-.242.474c.07-.163.127-.33.17-.503-.052-.033-.118-.066-.17-.104a2.44 2.44 0 0 1-.313.764 4.746 4.746 0 0 0 .26-1.732c.05.216.08.438.086.66.071.033.119.047.19.085.037-.299.055-.6.052-.902.09.298.115.613.071.921a.6.6 0 0 0 .157.048.844.844 0 0 1 .085-.138c0 .052-.038.104-.052.156-.014.053.085 0 .123 0 .029-.123.063-.245.105-.365v.399h.138v-.3c.022.104.04.209.052.314h.17v-.399c.034.157.072.276.086.399.07.009.14.009.209 0a3.163 3.163 0 0 1 0-.418c.033.157.052.295.085.418h.176v-.627c.058.199.097.402.118.608h.157a4.13 4.13 0 0 0-.052-.475c.068.138.116.285.142.437h.104c0-.157-.052-.313-.07-.475.062.147.114.297.156.451.034.01.07.01.104 0-.033-.242-.052-.503-.104-.797a2.746 2.746 0 0 1 .033 2.444v.019Zm.485-1.138.067.156.242-.227c.07-.086.142-.067.194.057v-.28c.09-.053.157 0 .228.07a.266.266 0 0 0 0-.26l.038-.347c-.143-.227-.247-.365-.404-.417a.592.592 0 0 1 .038.474.537.537 0 0 0-.294-.474.589.589 0 0 1 .072.413.516.516 0 0 0-.176-.152l.033.204-.104.071.038.693.028.019Zm1.594-1.233c0 .052 0 .085-.038.085s-.066-.033-.118-.085h.156Zm-.101-.289a.76.76 0 0 1 .066.204h-.185a.81.81 0 0 1-.104-.171v-.034h.223Zm-.313-.334c.052 0 .175.105.26.261h-.213c-.066-.142-.085-.26-.033-.26h-.014Zm-.106.623s.09.052.156.156c.067.104.072.19.052.209-.018.019-.085-.052-.137-.157-.052-.104-.085-.208-.071-.208Zm-.326-.086s.105.07.19.194c.085.123.104.242.071.256-.033.015-.104-.066-.194-.19-.09-.123-.1-.242-.067-.26Zm-5.603-.674c.052.033.085.066.118.085l.09-.085a.36.36 0 0 1-.142.242l.052-.138a.519.519 0 0 0-.118-.104Zm-1.546 17.404-.067.223-.07-.033.032-.19h.105Zm-5.38 7.646c.223-.085.28 0 .346.28.19.17.313.313.313.474.399.328.328.475-.208.418a.38.38 0 0 1-.276-.418l-.175-.73v-.024Zm.084 1.332a.555.555 0 0 0 .071.679.435.435 0 0 0 .346.156l-.07-.194.208.142c0-.104-.085-.228-.275-.365l.256.066c0-.137-.119-.256-.327-.365h.175c-.09-.242-.247-.313-.384-.119Zm.681.129c.066 0 .119.067.138.171.019.105 0 .19-.086.21-.085.018-.118-.072-.137-.176-.02-.105.033-.205.085-.205Zm3.52-11.887c.038-.583.23-1.146.555-1.632-.222.53-.408 1.076-.555 1.632Zm1.25-3.227c-.209.085-.223-.085-.066-.209.31-.26.706-.395 1.11-.38h.736c.28 0 .242.276 0 .257h-.518a2.334 2.334 0 0 0-1.233.332h-.029Z" clip-rule="evenodd"/>
    <path fill="#fff" fill-rule="evenodd" d="M14.038 20.927c.19 0 .346.037.346.07 0 .034-.156.067-.346.067-.19 0-.347 0-.347-.066 0-.067.157-.072.347-.072Zm1.423-3.678c-.033-.038-.123.085-.242.242a.707.707 0 0 0-.156.28s.118-.09.223-.242a.73.73 0 0 0 .175-.28Zm-1.225 1.195c-.085.157-.052.242.124.314a2.6 2.6 0 0 0 2.045-.4l.85-.398c.156-.194.123-.242-.086-.175l-.418.209.105-.347a1.668 1.668 0 0 0-.475.536l-.07-.17a.641.641 0 0 0-.224.365l-.085-.195a.54.54 0 0 0-.21.228l.034-.242c-.066-.052-.17.067-.308.346l.066-.26c-.052-.053-.137.052-.26.313l.28-.835c-.138 0-.333.332-.542.887-.085 0-.118 0-.104-.085l.313-.608c-.157 0-.328.204-.536.608l.242-.698-.451.593v-.228a.632.632 0 0 0-.294.242h.005Zm.096 11.295c-.066-.067.052-.138.09-.1l.204.19c.053.052-.066.138-.118.104l-.176-.194Zm.156-.139c-.033-.051.052-.118.09-.085l.171.176c.052.047-.052.119-.085.085l-.176-.175Zm.102-.157c-.066-.067.052-.157.104-.105l.21.21c.047.052-.086.142-.12.09l-.194-.195Zm.09-.261c-.066-.085.09-.204.176-.152l.313.308c.085.086-.124.228-.176.157l-.313-.313Zm.33-.275c-.104-.105.033-.242.119-.157l.384.328c.105.09-.052.246-.137.175l-.366-.346Zm.223-.176a.086.086 0 0 1-.016-.121.086.086 0 0 1 .12-.017l.333.28c.085.086-.052.204-.123.157l-.314-.299Zm.297-.104a.073.073 0 0 1-.016-.102.073.073 0 0 1 .102-.016l.275.242c.071.066-.052.19-.1.137l-.26-.26Zm-1.386-1.944c0-.085-.138-.052-.157 0l-.038.313c0 .067.162.033.162 0l.033-.313Zm-.456.422c0-.137-.157-.07-.157 0l.034.247c0 .119.175.052.156 0l-.033-.242v-.005Zm-.521.326c0-.118-.104-.085-.104 0v.228c0 .123.118.066.118 0v-.228h-.014Zm.66-.431a.086.086 0 0 1 .085.085.085.085 0 0 1-.085.085.095.095 0 0 1 0-.17Zm-.483.312a.095.095 0 0 1 .086.105c0 .066-.034.104-.086.104-.052 0-.09-.038-.09-.104a.1.1 0 0 1 .09-.105Zm-.432.319c0-.109-.143-.109-.143 0v.204c0 .105.157.09.157 0v-.204h-.014Zm3.765-13.124c.052 0 .085.052.085.123 0 .071-.033.137-.085.137-.052 0-.072-.07-.072-.137s.034-.123.072-.123Zm.207.313c-.038 0-.052-.086-.052-.19 0-.105 0-.205.052-.205s.067.086.067.204c0 .12-.034.19-.067.19Zm.326-.066c.09 0 .157.033.157.066s-.067.052-.157.052-.128-.052-.128-.052.066-.066.138-.066h-.01Zm.178.293a.071.071 0 0 1 .067.066.08.08 0 0 1-.067.09s-.052-.038-.052-.09a.071.071 0 0 1 .052-.066Zm.272-.02h.646c.204 0 .242.105.1.295.07.35-.361.574-.342 0-.038-.105-.162-.157-.404-.157-.104-.033-.104-.137 0-.156v.018Zm-1.007 4.063a.086.086 0 0 1 .085.09.095.095 0 0 1-.085.1c-.033 0-.066-.053-.066-.1a.08.08 0 0 1 .066-.09Zm-.276.103a.114.114 0 0 1 .065.183.114.114 0 0 1-.065.04.1.1 0 0 1-.093-.065.1.1 0 0 1-.006-.04c0-.07.033-.118.1-.118Zm.35.19c.223-.156.45-.26.474-.209.024.053-.119.223-.365.399-.247.176-.451.242-.503.19-.052-.052.142-.223.384-.38h.01Zm.828-.54c.138-.12.28-.19.294-.171.014.019-.066.156-.204.275-.137.119-.28.19-.299.157-.019-.034.071-.157.21-.261Zm-.532 1.319c.049-.12.106-.235.171-.346h-.033a.66.66 0 0 1 .399-.475h.038a.949.949 0 0 1 .256-.17 2.29 2.29 0 0 1-.138.242l.052.033a1.16 1.16 0 0 1 .451-.275 2.289 2.289 0 0 1-.327.346l.104.066a1.9 1.9 0 0 1 .498-.308c-.118.119-.242.256-.38.38l.124.07a1.33 1.33 0 0 1 .517-.246c-.085.071-.17.142-.242.209.144-.028.29-.044.437-.048-.228.1-.365.138-.541.204l.142.09c.156-.096.334-.15.518-.156-.119.066-.257.157-.399.223l.123.071a.877.877 0 0 1 .503-.104c-.13.047-.257.104-.38.17l.067.057c.149-.068.31-.104.475-.104-.138.048-.247.119-.366.171l.105.052a.778.778 0 0 1 .398-.033 2.71 2.71 0 0 0-.313.1l.366.227-.072.034-.555-.186a.086.086 0 0 0-.066.029s0-.029.033-.047l-.138-.038c-.07.038-.156.085-.242.123a.659.659 0 0 1 .138-.157l-.138-.052c-.07.038-.156.086-.246.123.041-.061.087-.12.137-.175l-.137-.052a2.118 2.118 0 0 1-.295.19 1.01 1.01 0 0 1 .176-.223l-.19-.072c-.09.09-.175.157-.26.228a.517.517 0 0 1 .137-.26L17.754 20c-.092.093-.19.18-.294.261.047-.104.106-.203.176-.294l-.28-.105c-.097.112-.207.21-.328.295l-.005.004Zm-2.746 6.696a2.23 2.23 0 0 1 .123-.864c.033-.123.157-.194.366-.213l2.32-.342c.123 0 .142.052.123.204a1.684 1.684 0 0 1-.17.608c-.086.07-.105-.223-.086-.674-.175.417-.11.85-.384.92-.124-.194.066-.555.104-.835-.26.242-.175.541-.398.85-.09 0-.072-.276 0-.745-.069.267-.186.52-.347.745a1.3 1.3 0 0 1-.052-.64 1.642 1.642 0 0 1-.327.815 2.597 2.597 0 0 1 0-.745l-.053-.057c-.017.289-.1.57-.242.821a.992.992 0 0 1 .038-.802h-.109c-.066.228-.104.418-.209.475-.137 0-.204-.176-.204-.437a1.585 1.585 0 0 1-.474.902l-.02.014Zm3.61-5.67c.053-.072.139-.052.12.033a16.412 16.412 0 0 0-.242 2.638h-.053a9.386 9.386 0 0 1 .176-2.671Zm.262.033c-.124.868-.124 1.39-.209 2.287l.066.161c.024-.812.124-1.621.3-2.415.047-.138-.09-.17-.157-.033Zm.19.555.104-.522c.119-.066.17-.033.157.11l-.228.431h-.033v-.019Zm-2.847-.712h.056a10.258 10.258 0 0 0-.156 3.474c-.085-1.647.119-3.402.432-3.697l.052.124a7.17 7.17 0 0 0-.157 3.554c-.156-1.803 0-2.847.295-3.398v.171a7 7 0 0 0-.034 3.122l.072-.052a10.052 10.052 0 0 1 .137-3.364h.119a9.016 9.016 0 0 0-.067 3.322l.067-.072a9.524 9.524 0 0 1 .085-3.193h.11a9.489 9.489 0 0 0-.039 3.207h.072a9.614 9.614 0 0 1 .118-3.23l.071.07a12.587 12.587 0 0 0 0 3.108l.072-.038a14.197 14.197 0 0 1 .052-2.965l.085-.105a11.69 11.69 0 0 0 .038 3.09h.066a12.596 12.596 0 0 1 .043-3.204l.067.048a22.224 22.224 0 0 0 0 3.18h.07a11.74 11.74 0 0 1 .138-3.123c.138-.052.138.123 0 .313a12.455 12.455 0 0 0 0 2.79h.1a11.016 11.016 0 0 1 .142-3.089c.086-.085.171 0 .067.228-.141.942-.17 1.898-.086 2.847h.124c.137.052.156.104 0 .156a18.37 18.37 0 0 1-2.444.38c-.157 0-.209-.066-.209-.294a10.58 10.58 0 0 1 .38-3.383l.062.023Zm-.399-.36a7.484 7.484 0 0 0-.607 2.548 5.757 5.757 0 0 0 0 1.898c.07.346.227.474.38.45l2.585-.417c.19-.033.38-.19.294-.365l-.104-.21-.085.295-.138-.242-.104.28-.157-.346-.123.413-.157-.328-.085.346-.086-.294-.104.36-.123-.326-.105.398-.137-.38-.105.276-.123-.228-.086.213-.118-.175a.446.446 0 0 0-.366 0l-.052.085-.066-.085c-.195-.052-.404-.085-.593-.123l.242-.12c0-.09-.086-.122-.242-.104l.256-.19-.27-.051.256-.157c0-.071-.067-.138-.276-.228l.276-.085v-.072l-.276-.033.29-.137c.038-.071-.048-.124-.242-.19l.242-.071c0-.071-.029-.157-.204-.228l.204-.066-.204-.157.26-.104c0-.086-.037-.124-.189-.19l.275-.124a.366.366 0 0 0-.26-.19l.26-.09-.209-.137.242-.1-.19-.071.228-.138c.048-.052-.038-.104-.227-.123l.213-.128v-.105l-.242.034.123-.105-.156-.118.365-.086.034-.07-.261-.072.213-.119a.199.199 0 0 0-.213-.137l.047.019Z" clip-rule="evenodd"/>
    <path fill="#fff" fill-rule="evenodd" d="M18.876 26.929c-.085-.105-.066-.19.052-.261l.627-.053a.422.422 0 0 1 .327.21l.294.331c.124.152 0 .276-.1.242a7.337 7.337 0 0 1-1.2-.474v.005Zm-.138 0c-.137-.072-.208.033-.123.104.223.189.468.348.73.474.25.117.524.17.798.152.19 0 .28-.123.033-.17a6.164 6.164 0 0 1-1.423-.556l-.015-.004Zm-1.11-1.044c-.19-.119.033-.366.157-.261l.275.28c.157.137.052.26-.085.194l-.347-.213Zm-.209.332c-.19-.119 0-.399.157-.28l.522.384c.152.119 0 .328-.123.242l-.556-.346Zm1.248-4.27c-.137.104-.19.222.09.208-.194.17-.208.294-.052.346-.35.432-.35.556 0 .366-.384.474-.332.555-.07.474-.328.399-.276.451-.172.475-.228.313-.228.474 0 .45a.531.531 0 0 0-.327.475c-.071.275-.816.588-.195.85.195.1.347.36.475.81.052.248.156.262.365.177.17-.047.343-.076.517-.086.333.033.347-.332 0-.38.034-.142-.085-.213-.275-.123.152-.26-.038-.195-.104-.228.104-.052.085-.17-.195 0l-.033-.09a.293.293 0 0 0 .228-.242l-.475.157c.138-.124.209-.209.19-.294l-.332.066c.351-.242.474-.413.474-.503l-.365.104c.261-.204.437-.38.418-.474l-.314.123c0-.104.143-.209.404-.28.26-.07.308-.242.275-.436l-.474.227c.307-.241.572-.533.782-.863-.033-.123-.417.137-.92.55v-.085c.45-.3.834-.69 1.13-1.144l-.921.712.835-.992c-.057-.118-.3 0-.764.503l.033-.104.432-.475c.296-.167.534-.422.678-.73.086-.228-.208.07-.66.474-.104.105-.222.157-.345.275l1.058-1.105v-.143c-.105-.104-.779.693-1.353.95l-.038.004Z" clip-rule="evenodd"/>
    <path fill="#fff" fill-rule="evenodd" d="M20.992 24.347a.085.085 0 0 0 .052 0c.123-.142.123-.209 0-.242h-.033v.261l-.02-.019Zm-.157.067s.038 0 .052-.034v-.28h-.066v.295l.014.019Zm-.209.07h.09v-.331l-.156.038.066.313v-.02Zm-.19.048h.034v-.346l-.086.038.052.308Zm.798-.745c.07 0 .123 0 .142.038.019.038-.038.086-.11.1-.07.014-.118 0-.137-.047-.019-.048.038-.072.105-.09Zm.07.228a.033.033 0 0 1 .034.033c0 .038 0 .053-.033.053s-.038 0-.038-.053a.038.038 0 0 1 .038-.033Zm-.692-.365a.08.08 0 0 1 .086.085.087.087 0 0 1-.024.064.084.084 0 0 1-.062.026.081.081 0 0 1-.071-.09.077.077 0 0 1 .017-.058.075.075 0 0 1 .054-.027Zm-.66.45c-.137.086-.137.157 0 .21h.072c0 .07.038.123.07.123.034 0 .067-.052.067-.124v-.052l.157-.033v.346a1.397 1.397 0 0 1-.171.034.062.062 0 0 0-.052-.053.08.08 0 0 0-.071.072.047.047 0 0 1 0 .033c-.038 0 0 0 .066.07l1.163-.26c.346 0 .436-.261.346-.679.052-.137 0-.19-.104-.17l-.261-.039.156-.104c.209-.1.209-.152.038-.152l-.365-.052.294-.052c.09 0 .123-.123 0-.176l-.313-.033.242-.052c.156-.123.071-.209-.223-.242.1-.123.085-.209-.038-.209-.052-.123-.209-.209-.157 0l.072 1.148c.033.12 0 .21-.157.257l-.85.175.02.015Zm.608-.901c0-.176.157-.033.157.071l-.053.275c-.052.052-.07 0-.123-.085v-.261h.019Zm1.267.313a.475.475 0 0 1 .152.413c0 .175-.152.299-.152.175a1.125 1.125 0 0 0-.124-.536c-.07-.09.053-.123.124-.052Zm.256.503c.052 0 .09.071.11.157.018.085 0 .175-.039.175-.038 0-.071-.057-.085-.142a.3.3 0 0 1 0-.19h.014Zm0 1.058c.033 0 .052 0 .052.071a.062.062 0 0 1-.052.067.071.071 0 0 1-.066-.067c0-.056.033-.07.066-.07Zm-.085.261s.033.052.033.119c0 .066 0 .123-.033.123-.034 0-.038-.052-.038-.123 0-.071 0-.119.038-.119Zm.052-.712c0-.19.223-.137.137.053l-.104.242h-.052v-.295h.019Zm-2.572.66c.1-.194.27-.343.474-.418a8.35 8.35 0 0 0 1.737-.417c.171-.119.242-.085.223.104a2.23 2.23 0 0 1-.275 1.13v-.95h-.071a2.059 2.059 0 0 1-.242.95l.033-.869h-.085l-.19.85.052-.745c0-.105-.038-.119-.085-.067-.124.869-.28 1.234-.475 1.353.14-.407.188-.84.142-1.267l-.052-.034c-.03.416-.124.824-.28 1.21-.175-.256.157-.707.086-1.143h-.034l-.313 1.077c-.1 0-.066-.138.034-.418l.038-.607-.053.033a3.119 3.119 0 0 1-.294.783l.052-.797-.227.574v-.474l-.247.104.052.038Zm2.07-16.399a1.931 1.931 0 0 1 1.319-.309c.313.034.313.223.138.21a2.373 2.373 0 0 0-1.424.17c-.175.085-.142 0-.038-.071h.005Zm-.38.54c.314-.365.85-.607 1.856-.592.208 0 .17.227 0 .208a1.586 1.586 0 0 0-.475.09 2.22 2.22 0 0 0-.574.171c-.393.23-.72.557-.95.95-.103.052-.122 0-.07-.105a1.646 1.646 0 0 1 1.2-.992V9.12c-.242-.052-.536.052-.973.45-.052.053-.066 0 0-.137l-.014-.01Zm1.163-.17c.156 0 .223.066.104.204a2.886 2.886 0 0 0-1.096.868.355.355 0 0 1-.209.399c0 .261-.156.384-.412.418l-.38.474c.085.123-.057.313-.332.588-.176.195-.242.143-.209-.17.209-.575.607-1.424.797-1.424.104 0 .104-.038.138-.228.033-.19.156-.104.123 0-.033.105 0 .157.104.053a2.468 2.468 0 0 1 1.372-1.21v.028Zm-3.09 4.541c-.051-.626.086-.987.38-1.196.802-.474 1.078-1.196 1.338-1.181.31-.503.69-.959 1.13-1.353.346-.242.417-.19.223.19-.503.712-1.006 1.561-1.457 1.808a.616.616 0 0 0-.474.328l.313-.157c.152 0 .17.038.066.138-.26.142-.693.816-.797.384-.175.327-.475.28-.475.607l-.037.432c-.067.123-.12.123-.19 0h-.02Zm2.293-3.54c.219-.269.498-.482.816-.621.327-.143.308.118.085.118-.223 0-.417.157-.816.66-.104.142-.228 0-.085-.157Zm-1.927 2.97a.124.124 0 0 1 .138-.056.114.114 0 0 1 0 .156.105.105 0 0 1-.152.057.138.138 0 0 1 .033-.156h-.019Zm-.033.85c0 .138.033.104.1 0l.156-.432c.232-.183.448-.386.646-.607.104.152.294 0 .588-.385a1.181 1.181 0 0 0 .64-.797c.086-.299.038-.346-.156-.156-.275.365-.475.503-.588.764-.333.104-.589.474-.973.64a.333.333 0 0 0-.138.313c-.156.105-.26.276-.275.66Zm.033.555c.157-.417.209-.64.366-.783.156-.142.242-.17.118.053-.141.26-.213.553-.209.849 0 .346-.431.28-.275-.119Zm.475-.28.28-.674c.066-.246.19-.384.346-.403l.38-.36c.085-.105.137.033.085.123l-.275.45c-.06.403-.242.778-.522 1.073-.067.071-.19.071-.123-.033l.332-.66-.418.574c-.119.152-.138.034-.085-.09Zm.83.09.123-.626c.017-.242.108-.472.261-.66l.19-.521c.052-.21.143-.19.143.07l-.124.333c.105.047.052.152 0 .256-.052.104 0 .261-.137.294.021.34-.058.678-.228.973-.209.261-.275.228-.209-.119h-.019Zm-1.091.798a1.91 1.91 0 0 0 .66-.575c.241-.346.346-.365.28 0a1.072 1.072 0 0 1-.712.764c-.366.138-.475-.033-.228-.19Zm-.807 1.006c.142-.295.522-.475 1.063-.66a2.12 2.12 0 0 0 .916-.693c.28-.17.228 0 .137.176a.797.797 0 0 1-.346.327 3.368 3.368 0 0 1-.764.432 1.86 1.86 0 0 0-.83.593c-.157.119-.228.067-.176-.175Zm.052 1.006c-.085.156-.104.28-.033.365.332-.123.228-.64 1.044-1.058.1-.138.066-.19-.105-.138l-.763.555c.26-.417.517-.75.901-.835.261-.034.5-.162.674-.36.085-.195.052-.247-.085-.157-.475.308-.869.432-1.23.707a1.898 1.898 0 0 0-.645 1.025l.242-.105Zm.052.574c-.104.19 0 .26.09.104a6.471 6.471 0 0 1 1.092-1.286c.53-.388.935-.925 1.162-1.542.138-.418 0-.536-.123-.28a3.26 3.26 0 0 1-.901 1.509c-.54.4-.99.91-1.32 1.495Zm.143.365c-.124.157-.105.209.104.119.184-.362.438-.684.745-.95l.588-.521c.451-.105.712-.589.798-1.424l-.034-.104c-.149.48-.44.903-.835 1.215a3.86 3.86 0 0 0-.811.83c-.104.104-.104.228-.195.365a4.42 4.42 0 0 0-.36.437v.033Zm1.49-1.162a.997.997 0 0 0-.556.474c-.085.214-.052.228.105.071.16-.155.335-.295.522-.417.066-.048.137-.171-.071-.119v-.01Zm-.731 1.319a1.206 1.206 0 0 1 .474-.816c.242-.176.295-.124.105.118a6.863 6.863 0 0 0-.418.75c-.052.1-.209.223-.175-.052h.014Zm-.09-.631s.057.09.057.175c0 .085-.038.176-.057.176-.02 0-.048-.072-.048-.176s0-.175.048-.175Zm1.253-.499c.052.034.066.138.033.257-.034.118-.124.194-.176.175-.052-.019-.085-.137-.052-.242.033-.104.123-.209.195-.19Zm2.514-9.267c-1.423-.119-2.135.346-2.514.835a2.467 2.467 0 0 0-.541 1.424c.038.085.194-.105.417-.399l-.137-.052c.036-.106.088-.205.156-.294.033-.057.033-.143.119-.19a.36.36 0 0 0 .175-.195h-.123a1.831 1.831 0 0 1 1.58-.588l.475.052c.08.01.16-.008.227-.052.053-.033.072-.085 0-.085a4.361 4.361 0 0 0-1.646.066c.398-.261.973-.275 1.789-.242.327 0 .346-.228.033-.26l-.01-.02Zm1.011-.208c-.07.053 0 .176.067.228.066.052.156.034.123-.07-.033-.105-.123-.21-.19-.157Zm-.745-.275c-.123-.156-.038-.242.171-.227.46.038.904.181 1.3.417.176.123.038.242-.085.157l-.365-.19c0 .156-.12.085-.328-.086-.142.138-.313.067-.503-.142l.119.347c0 .07-.052.07-.086 0l-.223-.295v.02Zm1.855.711c-.053-.038-.176-.085 0-.123-.176-.105-.105-.242 0-.261.474 0 .83-.275 1.366 0l.247.28c.156.36 0 .536-.195.275-.104-.157 0-.294-.275-.417.147.247.23.528.242.816.399.38.033.474-.071.227l-.157-.716c.038.351.053.612 0 .612-.052 0-.052-.247-.104-.536-.033-.124-.066-.351-.133-.366a1.75 1.75 0 0 0-.802 0c.38 0 .64 0 .73.105a.612.612 0 0 1 .086.536c-.085.138-.137.104-.137-.071l-.057-.223c0-.123-.152-.142-.342-.124a.536.536 0 0 1-.398-.033v.02Zm.535 12.456c-.09-.137.138-.228.313 0 .388.531.73 1.095 1.02 1.685.157.346 0 .436-.151.123a11.35 11.35 0 0 0-1.182-1.822v.014Zm.536.171c-.118-.17.053-.256.19-.052.274.422.518.863.73 1.319.091.209-.032.261-.122.071a8.546 8.546 0 0 0-.798-1.338Zm-5.898.332c.565.933 1.21 1.816 1.927 2.638.085.105 0-.208.085-.085.13.27.3.52.503.74.104-.085-.223-.38-.275-.726l.987 1.144c.085-.157-.475-.83-.95-1.424l.072-.07 1.13 1.475h.047a10.288 10.288 0 0 0-1.04-1.613l.034-.124c.209.261.474.66.712.992.204.33.443.64.711.92.418.105-.987-1.37-1.632-2.605v-.066c.764 1.158 1.424 2.22 2.188 2.705.085.052.156-.053.066-.157a24.191 24.191 0 0 1-1.96-2.448l.034-.067c.73.869 1.11 1.855 2.5 2.69.09.053.138.138.223.067.313-.242-1.196-.607-2.372-2.567v-.138c.27.416.572.811.901 1.182.555.603 1.424 1.314 1.561 1.21.138-.105-1.248-1.073-1.993-2.235l.034-.038a7.63 7.63 0 0 0 2.638 2.43c.17.09.104.07.313.07.536.034-1.2-.849-2.102-1.84v-.086c.261.228.588.522.949.816.402.288.818.554 1.248.797.327.176.588.28.712.228.313-.156-1.196-.697-1.58-1.096.227.123.474.209.645.294.655.332 1.125.555 1.229.437.104-.119-.28-.28-.883-.503-.07-.071 0-.085.157-.052.693.275 1.091.474 1.177.412.228-.066-.138-.223-.555-.474a2.52 2.52 0 0 0 1.214.365c.09 0-.294-.223-.621-.521.474.298 1.575.697.517-.053l.071-.033c.399.294.902.418.294-.071h.086c.346.28.54.474.28-.086.346.503.692.693.223-.033l.54.413c-.19.09-.175.142 0 .247.451.294.475.242.4 0a.949.949 0 0 0-.437-.95c-.347-.222-.328.039.07.66a1.668 1.668 0 0 1-.364-.398.433.433 0 0 0-.4-.223c-.795.044-1.587.136-2.372.275a1.931 1.931 0 0 1-1.252-.142c-.21-.171-.276-.242-.176-.432a.236.236 0 0 0-.025-.269.235.235 0 0 0-.075-.059l-.56-1.11c.072.119.157.17.228.275.223.366.38.66.432.64-.085-.241-.38-.777-.603-1.385.432.764.812 1.424.916 1.338a6.776 6.776 0 0 0-.745-1.461c.074.072.144.148.209.228.138.175.261.327.327.294a1.865 1.865 0 0 0-.882-1.04c-.475-.175-.783-.241-.712.067l-.242-.275-.26-.033c-.086.033.032.17.208.474l-.052.033-.294-.474c-.09-.052-.21-.104-.228 0l.156.313-.327-.365c-.161-.086-.332-.124-.332-.052l.474.797c-.09-.124-.227-.242-.346-.418-.195-.256-.351-.45-.574-.474-.223-.024.223.346.536 1.091l-.745-1.072c-.071-.053-.365-.105-.384 0l.868 1.248a7.32 7.32 0 0 1-1.025-1.267.185.185 0 0 0-.157-.053c-.033 0-.066 0-.1.034l1.059 1.37a6.04 6.04 0 0 1-.574-.587c-.228-.314-.432-.522-.608-.798a.157.157 0 0 0-.223 0c-.085.124.797 1.025 1.177 1.562a8.539 8.539 0 0 1-1.333-1.562c-.176-.085-.294-.085-.351 0-.057.086 1.077 1.182 1.513 1.856a19.391 19.391 0 0 1-1.632-1.856c-.071-.085-.28-.085-.28 0 0 .176.973 1.059 1.756 2.136a15.247 15.247 0 0 0-1.561-1.633c-.138 0 .346.589 1.456 1.856a14.858 14.858 0 0 1-1.528-1.614c-.137.124.475.888 1.353 1.856l-1.386-1.457c-.194-.119-.228-.1-.123.071l.085-.076Z" clip-rule="evenodd"/>
    <path fill="#fff" fill-rule="evenodd" d="M25.676 9.788c-.034 0-.034.242-.052.36a.583.583 0 0 0 .038.333c.052.123.066.137.066.104a2.72 2.72 0 0 1 0-.645.185.185 0 0 0-.038-.152h-.014Zm.194 0a3.866 3.866 0 0 0-.038.474.746.746 0 0 0 .072.432c.052.143.085.176.085.124a4.811 4.811 0 0 1-.067-.816c0-.124 0-.157-.052-.19v-.024Zm.223 0c-.038-.033 0 .365 0 .574a.869.869 0 0 0 .09.517c.067.176.105.21.105.157a5.504 5.504 0 0 1-.105-1.02c0-.143 0-.195-.07-.228h-.02Zm.261.26c-.038 0 0 .347 0 .523a.877.877 0 0 0 .086.474c.07.157.123.195.109.138a4.832 4.832 0 0 1-.11-.916.265.265 0 0 0-.066-.209l-.019-.01Zm.242.276c-.038-.033 0 .3 0 .451a.801.801 0 0 0 .086.436c.085.124.123.157.104.105-.059-.27-.1-.542-.123-.816 0-.119-.029-.157-.067-.176Zm.242.261c-.033 0 0 .261 0 .399a.622.622 0 0 0 .105.384c.066.104.104.138.085.085a3.9 3.9 0 0 1-.137-.711c0-.105 0-.138-.072-.157h.02Zm.261.261c-.033 0 0 .242 0 .365a.55.55 0 0 0 .105.314c.066.085.104.118.085.085a2.372 2.372 0 0 1-.138-.626.247.247 0 0 0-.07-.138h.018Zm.242.261c-.033 0 0 .209.034.313.001.097.038.19.104.261.071.086.109.105.09.067a2.236 2.236 0 0 1-.157-.518.132.132 0 0 0-.07-.123Zm1.424 2.15c-.19-.19-.313.038-.052.28.26.242.474.137.403.066l-.351-.346ZM24.2 8.649c.052 0 .123.209.19.399.067.135.126.275.175.417a.95.95 0 0 1-.365-.816Zm-2.287 3.417a4.873 4.873 0 0 0 1.817 2.756c-.066-.222-.868-.948-1.248-1.575-.38-.626-.431-1.006-.57-1.181Zm.137-.328c.072.816.707 1.784 1.628 2.515-.066-.209-.745-.816-1.106-1.423-.36-.608-.398-.95-.521-1.092Zm.124-.346a3.75 3.75 0 0 0 1.504 2.34c-.052-.19-.674-.746-1.001-1.301-.328-.555-.384-.902-.503-1.04Zm.137-.332c.17.872.666 1.647 1.386 2.168-.033-.17-.607-.693-.92-1.21-.314-.517-.347-.835-.475-.949l.01-.01Zm.171-.328c.14.802.588 1.517 1.248 1.993-.033-.156-.555-.621-.811-1.11-.256-.489-.332-.778-.437-.883Zm.176-.332a2.785 2.785 0 0 0 1.124 1.841c-.033-.137-.474-.588-.726-1.025-.251-.436-.313-.726-.398-.816Zm.19-.327a2.449 2.449 0 0 0 .987 1.665c0-.123-.413-.522-.622-.92-.209-.399-.28-.66-.365-.745Zm.208-.314c.122.22.231.447.328.679.194.346.522.707.54.811a2.04 2.04 0 0 1-.868-1.49Zm.242-.313c.104.198.198.4.28.608.167.233.317.477.451.73a1.9 1.9 0 0 1-.73-1.338Zm.261-.275c.097.167.184.34.261.517.138.28.347.541.366.627a1.482 1.482 0 0 1-.627-1.144Zm-2.102 7.284c.03-.125.047-.252.052-.38a13.972 13.972 0 0 0 2.24 2.605c-.071-.35-1.177-1.305-1.855-2.206a9.337 9.337 0 0 1-.346-.66c0-.104 0-.19.033-.313a8.932 8.932 0 0 0 2.254 2.743c-.119-.313-1.196-1.182-1.765-2.102a6.17 6.17 0 0 1-.475-.902v-.156a9.258 9.258 0 0 0 2.259 2.742c-.105-.313-1.215-1.215-1.751-2.097a7.733 7.733 0 0 1-.475-.92v-.176a10.964 10.964 0 0 0 2.373 2.918c-.105-.294-1.353-1.39-1.875-2.24a6.32 6.32 0 0 1-.474-.949v-.242A8.821 8.821 0 0 0 23.958 17c-.104-.294-1.3-1.285-1.784-2.101a5.608 5.608 0 0 1-.475-1.006 1.15 1.15 0 0 1 0-.261 6.97 6.97 0 0 0 2.221 2.775c-.104-.26-1.215-1.162-1.666-1.921a9.024 9.024 0 0 1-.536-1.078 2.034 2.034 0 0 1 0-.294 6.486 6.486 0 0 0 2.117 2.757c-.067-.26-1.11-1.077-1.562-1.803-.18-.37-.33-.754-.445-1.148v-.052c0-.105 0-.228.033-.328a5.898 5.898 0 0 0 2.012 2.847c-.067-.228-1.02-1.044-1.424-1.718-.23-.396-.437-.805-.622-1.224.3-2.5 1.353-3.971 2.9-4.232h.033c-.05.345.012.697.175 1.006a6.434 6.434 0 0 0-.07-.712v-.261l.137.033c0 .346.138.679.294.712a1.215 1.215 0 0 1-.137-.64l.19.051c0 .366.123.764.298.783a1.067 1.067 0 0 1-.142-.711h.038a.758.758 0 0 0 .157.346c.066-.085.033-.256 0-.45a.621.621 0 0 1 .659.07c.085.105.052.152-.071.152h-.119l.276.124c0 .038.07.07-.086.09l-.104.085.365.033c.123.053.104.09.066.143l-.085.104c.364.003.722.097 1.04.275 0 .138-.172.124-.475-.033.066.17.346.19.327.294-.033.19-.45 0-.64.261h.474c.1.067.066.119-.09.119.242.294.436.384.503.17.066-.213.142-.156.209 0 .299.176.346.195.175.229l-.28.052.332.052a.085.085 0 0 1 .034.156c-.223.034-.242.067.175.086.171.085.242.175.171.242-.365 0-.346.071.09.104.1.052.138.124.119.176-.223.052-.19.104.085.104.038.053.071.086 0 .138-.26.066-.223.104.105.104 0 .124.208.105.28.261.275-.052.398.138.151.138v.052c.399 0 .57.123.518.365-.034.105-.57-.208-.347.622l.09.09c.152.033 0-.384.242-.351.034 0 .067.142 0 .351-.066.209-.17.275-.36.152-.19-.123-.28-.242-.261-.38v-.26c-.19 0-.223-.105-.242-.295 0-.033-.067 0-.052-.07-.314-.053-.451.051-.537.279 0 .085-.085 0-.123-.071-.038-.071-.1 0-.17 0-.072 0-.034-.123-.091-.104-.057.018-.033.052-.1.052-.066 0-.038-.143-.142-.034-.104.11-.085.067-.104-.037-.02-.105.09-.262-.105 0-.066.037-.085.037-.118-.053-.105-.29-.176-.308-.21-.052-.051.104-.104.123-.104-.033-.104-.45-.123-.45-.085 0 0 .19-.071.17-.175-.052-.124-.366-.176.033-.262-.138-.085-.17-.033-.508-.241-.593l.118.607c0 .086-.137.105-.152-.033-.07-.403-.332-1.096-.28-.868l.157.83c0 .071-.17.038-.209-.066l-.204-1.044c-.052-.294-.052.555.067.92 0 .053-.138.053-.12 0-.03-.348-.1-.692-.208-1.025-.123.119.209 1.11-.052.95-.038 0-.123-1.007-.157-1.026-.033-.019 0 .95-.038.95-.275-.347 0-1.282-.17-1.334-.038 0-.124 1.144-.157 1.11.119.883.835.916.783 1.182l-.508-.266c.142.266.351.541.475.835-.157.053 0 .261.123.366-.157 0-.123.085.17.365a.137.137 0 0 1 .072.157c-.365-.086-.399-.086.19.38-.365-.053-.38 0 .033.26a.441.441 0 0 1 .17.261c0 .067-.047.034-.08.034s-.175-.105-.209-.124c-.104 0-.038.123.451.475.119.104.176.19.086.227-.589-.365-.556-.28.09.28.152.238.17.342.118.38-.522-.436-.868-.712.034.19.156.156.19.26.07.275-.9-.678-.417-.223.19.399.034.033 0 .09-.037.07-.864-.64-.897-.474 0 .475.038.086.085.157.052.223-.033.067-.086 0-.119 0-.626-.593-.574-.474.138.503.104.157.156.29 0 .204-.783-.882-1.025-1.072 0 .28.1.171.118.261 0 .21-.712-.974-.73-.85-.038.189.057.123.057.137 0 .123-.636-.783-.83-.973-.033.171.104.209.09.242 0 .138-.783-.95-.802-.85-.038.156.07.124.104.195 0 .143-.902-1.025-.902-.992-.038.118 0 .28 0 .261-.157.124-.08-.105-.08-.19-.17-.28-.556-.674-.627-.622.032.242-.07.07-.156.07-.26 0-.57-.75-.622-.75-.171-.034l-.313-.056a.948.948 0 0 0-.171-.223c-.541-.523-.731-.575-.195.104 0 0-.033.033 0 .052l-.612-.104a.293.293 0 0 1-.223-.124 3.762 3.762 0 0 0-.85-1.039c.034.157.366.432.622.869.071.275-.242.156-.346.104-.19-.261-.256-.299-.536-.627-.783-.92-1.614-1.96-2.292-2.69l-.048-.052Zm-.052.365c0-.104.038-.19.052-.275.522.655 1.547 1.898 2.136 2.62.313.379.294.36.474.555 0 .085-.071.052-.19 0a2.941 2.941 0 0 1-.294-.361c-.73-.85-1.528-1.841-2.173-2.553l-.005.014Zm-.085.418c.626.693.854 1.006 1.528 1.803.07.104.431.474.503.555.085.176.38.176.242.052-.138-.123 0-.033-.171-.26-.56-.68-1.476-1.785-2.031-2.478 0 .119-.052.223-.071.328Zm-.105.365c.593.674 1.13 1.281 1.751 2.031a.27.27 0 0 0 .247 0c-.071-.071-.475-.574-.555-.66-.503-.626-.797-.948-1.372-1.646a1.946 1.946 0 0 1-.07.26v.015Zm-.123.432c.475.522.887.973 1.357 1.542.138.071.242.071.294 0-.474-.588-1.025-1.234-1.542-1.874-.038.09-.052.156-.09.228a.143.143 0 0 0 0 .085l-.019.019Zm-.066.555c.365.366.64.593.948.95.105.051.176.051.224 0-.399-.504-.764-.883-1.163-1.386a2.15 2.15 0 0 0-.033.474l.024-.038Zm.066.475c.175.175.351.28.522.474a.251.251 0 0 0 .26-.033c-.274-.294-.535-.474-.83-.764 0 .104.034.223.048.327v-.004Zm.351.45c-.26 0-.313-.033-.332-.294.123.124.228.176.332.294Zm3.07-11.17a1.238 1.238 0 0 0 .275 1.059 2.727 2.727 0 0 0-.156-.575c-.048-.227-.067-.45-.119-.474v-.01Zm.261 9.49a.756.756 0 0 0-.417-.607c0 .048.156.19.26.347.105.156.124.223.157.26Zm.071.674a3.244 3.244 0 0 1-.227-.398c-.138-.223-.366-.45-.38-.522a1.271 1.271 0 0 1 .607.92Zm.067.66a5.461 5.461 0 0 1-.294-.517c-.171-.3-.475-.593-.475-.679a1.824 1.824 0 0 1 .778 1.196h-.01Zm0 .522a1.758 1.758 0 0 0-.869-1.286c0 .123.366.418.57.783.204.365.213.432.299.503ZM23.835 8.863a1.23 1.23 0 0 0 .474.972 4.92 4.92 0 0 0-.26-.503c-.105-.242-.157-.431-.229-.474l.015.005Z" clip-rule="evenodd"/>
    <path fill="#D0AA3A" fill-rule="evenodd" d="M11.018 7.726c-.242-.09-.313 0-.261.275 3.468 4.892 8.726 12.043 14.918 20.47l-.052.11.522.294-.175-.693-.105.071C21.096 21.61 15.564 13.747 11 7.711l.019.015ZM10.41 8c.053.142-.052.209-.156.071a.66.66 0 0 1 .066-.887.589.589 0 0 1 .887-.086c.176.138.124.157-.085.157-.593 0-.816.294-.712.745ZM7.791 3.545c.517.64 1.006 1.248 1.561 1.974 0 .123-.052.195-.19.195A78.68 78.68 0 0 1 7.74 3.612c-.086-.119 0-.138.071-.067h-.019Z" clip-rule="evenodd"/>
    <path fill="#188CCC" fill-rule="evenodd" d="M20.279 9.249c-.119-.086-.17.123.038.052l.294-.257c.138-.246.052.067.138.053a.593.593 0 0 0 .228-.475l.241-.123c.138-.119.105-.171-.085-.157a3.22 3.22 0 0 0-.645.627l-.209.275v.005Zm-.555-.138c.033.033 0 .085-.052.156a.152.152 0 0 1-.157.053.147.147 0 0 1 .057-.157c.066-.052.119-.066.152-.052Zm-7.146-.399c-.21.071-.21.157 0 .19a.474.474 0 0 0 .227 0c.124 0 .171 0 .228.105.057.104.185.242.275.19.09-.053-.332-.328-.137-.328h.104c.294.275.57.432.55.38l-.118-.309c-.033-.104.119-.057.19 0l.398.346c.053.072 0-.052-.066-.275-.038-.07.066-.07.138 0 .242.242.536.66.536.503v-.156c0-.072.085-.072.142 0 .138.17.328.332.309.26l-.034-.142c0-.085.053-.085.157 0l.418.351c.085.067.156.034.118 0l-.071-.104c-.047-.085 0-.104.09-.033l.366.26c.066.053.066 0-.038-.175h.208c.038.124.124.157.332.242.053.038.072-.033.171-.066l.508-.157c.152-.052.133-.156 0-.123-.73.19-1.495-.176-2.31-.622a3.251 3.251 0 0 0-2.672-.332l-.02-.005Zm.85-.536c-.086.052-.086.086 0 .104.118-.104.241-.123.393.034 0-.223.09-.21.28.07-.071-.28 0-.345.294.072 0-.228 0-.26.209.119.052.07.104.07.123.038-.104-.404-.052-.385.171.033.071.085.104.085.104.033 0-.275.105-.223.366.157.071.085.104.123.118.033-.047-.223.057-.209.28.071.171 0 .418.123.731.399.033.052.067.066.105.052-.176-.313.033-.19.308 0 .176-.09.195-.138.09-.176a5.219 5.219 0 0 1-1.423-.692c-.399-.314-.575-.224-1.04-.518a1.01 1.01 0 0 0-1.096.171h-.014Zm1.959-.104c.4.045.785.176 1.13.384 0 .052.032.085-.034.052a.655.655 0 0 0-.366-.156c.034.156 0 .223-.052.204-.142-.242-.26-.276-.365-.223-.033 0-.052.033-.085 0-.105-.228-.157-.228-.21-.143-.104-.085-.104-.137 0-.137l-.018.019Zm-5.76 3.018c.26-.399.474-.518.607-.21.175-.554.365-.602.607-.118.327 0 .399.503.346 1.248l-.308-.835v.541c-.209-.92-1.547-.384-1.253-.626Zm1.774.208c.047 0 .1.072.133.195.033.123.038.223 0 .223s-.105-.071-.138-.19a.351.351 0 0 1 0-.228h.005Zm-1.984 1.899c.101-.138.233-.25.385-.328l.033.157.418-.138.033.138.474-.242c-.26.327-.313.474-.227.474.085 0 .398-.384.503-.28-.223.347 0 .242.365-.071.104.038-.143.28-.104.313.037.033.17-.066.474-.26.066-.053.223-.224.261-.138.038.085-.09.156-.142.227-.276.328-.204.276.28-.038.066-.033.17-.118.242-.085-.328.432-.19.346.294.052.071-.033.156-.156.247-.071-.613.541-.508.612.275.228-.366.417-.275.432.294.066a.795.795 0 0 0 .19-.033c-.256.261-.294.45-.171.384.167-.102.36-.156.555-.156-.247.242-.228.346.085.294.105.033 0 .157-.313.365-.047.086-.104 0-.156-.208-.034.123-.086.123-.138.052l-.071.45h-.1v-.256c-.057-.07-.104-.07-.161 0l-.085.347-.157-.09a.688.688 0 0 1-.242.332c-.104-.143-.17-.105-.209 0-.066 0-.104-.034-.17 0-.053.156-.105.19-.19.085a2.36 2.36 0 0 0-.404.313l-.066-.175c-.123.175-.228.28-.294.242l-.124-.119-.19.313-.313.086c0 .085.124.085.328.052.393-.06.781-.147 1.162-.261.39-.087.773-.198 1.149-.332.327-.152.711-.432 1.09-.622.086.071 0 .242-.706.816l-.351-.104.19.26a.266.266 0 0 1-.242.105l-.309-.156.104.327c-.227 0-.332-.275-.54-.157l.085.261-.474-.137.09.313-.399-.175-.09.175c-.119 0-.19.033-.204.085.916.157 1.898-.175 2.966-.673.052 0 .066 0 .066.104a1.87 1.87 0 0 1-.85 1.106l.138-.556c-.308.143-.66.817-.916.907l.276-.73-.817.678c-.066-.09.038-.28.21-.522-.243 0-.66.574-.727.536-.175-.086.138-.261.204-.38-.223 0-.38.19-.57.294 0-.104.105-.227.314-.412l-.678.308c0-.123.26-.223.313-.399a1.698 1.698 0 0 1-.66.328l.209-.328-.589.314.366-.385-.627.3.171-.333-.45.294.19-.365c-.15.157-.344.266-.556.313.124-.157.209-.275.19-.365-.14.14-.313.24-.503.294l.09-.294a1.424 1.424 0 0 1-.574.365l.209-.346c.033-.053 0-.119-.052-.072l-.475.385c.104-.19.157-.313.09-.365l-.332.175.038-.195-.384.418c-.053 0 0-.119.07-.313l-.398.266a1.59 1.59 0 0 1 1.02-.835 7.718 7.718 0 0 1 1.339-.247 4.713 4.713 0 0 0 1.47-.36c.277-.096.535-.237.764-.419.143-.104.09-.137-.066-.123l-.626.038v-.28l-.242.332-.052-.332-.21.574-.118-.707-.156.712-.086-.693-.26.797-.072-.835-.157.85-.156-.864-.105.864-.17-.812-.072.779-.223-.798v.83l-.26-.796-.048.711-.176-.693-.07.627-.138-.574-.086.621c-.26-.474-.365-.882-.194-1.105a1.015 1.015 0 0 1 .949-.318l-.015.024ZM7.216 16.93l-.071.19c.09 0 .156-.105.242-.157l-.067.313c.104 0 .346-.242.522-.365l-.123.313c.156 0 .26-.228.384-.346l-.071.332c.19 0 .313-.261.474-.403l-.038.313c.143 0 .247-.21.385-.328l.066.223c.124 0 .195-.156.3-.223l.051.204.257-.256.052.223.299-.104.085.118.242-.118v.26l.332-.142.033.176.247-.138v.176l.275-.067v.21l.418-.172-.138.309.366-.223-.052.242.398-.176-.228.366c.261 0 .347-.171.522-.261l-.123.332c.292-.095.542-.286.712-.541.057.085 0 .228-.171.522a1.01 1.01 0 0 0 .517-.522l-.085.365a.76.76 0 0 0 .503-.398v.346a.897.897 0 0 0 .313-.418c.175.072.365-.033.436-.308.072-.275.034-.351-.19-.261-.744.517-1.736.655-3.193.223a12.25 12.25 0 0 0-2.88-.327c-.437 0-.802.052-.973.45l-.028.048Zm5.78 1.234c.07-.11.137-.162.156-.138.019.024 0 .138-.052.237-.053.1-.143.143-.176.124a.274.274 0 0 1 .071-.223Zm.346-.072c.07-.123.156-.19.19-.156.033.033 0 .156-.072.275-.07.119-.17.195-.204.157-.033-.038 0-.157.086-.276Zm.38-.208c.104-.157.227-.228.26-.19.034.038 0 .209-.104.346-.104.138-.223.247-.261.19-.038-.057 0-.19.104-.346Zm-1.178.242c.157 0 .295.052.295.104s-.138.123-.295.123c-.156 0-.313-.052-.313-.123 0-.071.138-.104.313-.104Zm6.91-9.12c0-.124.45-.432 1.043-.83a1.13 1.13 0 0 1 .726-.28c.104.02.21.02.314 0 .137.085.09.156-.072.189a.176.176 0 0 0-.204-.033c-.156.033-.175.137-.28.17l-.07-.104c-.205.143-.347.522-.504.712l-.033-.19c-.104 0-.176.242-.332.366 0-.143 0-.21-.067-.21-.26.176-.474.262-.522.19v.02Z" clip-rule="evenodd"/>
    <path fill="#2A3B4D" d="M51.414 9.723V3.056h-1.922a18.377 18.377 0 0 1-2.083 6.667h4.005Zm2.05 3.089h-.95V10.61h-5.85v2.202h-.95v-3.09h.656a18.226 18.226 0 0 0 2.22-7.553h3.796v7.554h1.068v3.089h.01Zm3.691-7.839a1.547 1.547 0 0 0-1.214.475 2.28 2.28 0 0 0-.537 1.376h3.322a2.102 2.102 0 0 0-.403-1.39 1.424 1.424 0 0 0-1.153-.475l-.015.014Zm.261 5.756A2.888 2.888 0 0 1 55.2 9.87a3.293 3.293 0 0 1-.811-2.372 3.672 3.672 0 0 1 .754-2.43 2.51 2.51 0 0 1 2.022-.901 2.372 2.372 0 0 1 1.898.782c.48.578.728 1.314.693 2.065v.607h-4.361a2.53 2.53 0 0 0 .565 1.694 1.94 1.94 0 0 0 1.504.574 5.125 5.125 0 0 0 2.021-.427v.854a5.426 5.426 0 0 1-.949.318c-.36.068-.725.1-1.091.095h-.029Zm4.914-.114h-.959v-6.33h5.31v6.33h-.968V5.12H62.33v5.495Zm8.114-.68a1.974 1.974 0 0 0 1.423-.474 1.821 1.821 0 0 0 .508-1.376V7.51l-.95.043a3.526 3.526 0 0 0-1.65.356 1.072 1.072 0 0 0-.508.978.997.997 0 0 0 .318.792c.25.194.562.29.878.27l-.02-.014Zm2.168.674-.19-.902h-.047a2.69 2.69 0 0 1-.95.807 2.848 2.848 0 0 1-1.176.214 2.102 2.102 0 0 1-1.471-.475 1.751 1.751 0 0 1-.536-1.376c0-1.281 1.022-1.952 3.065-2.012l1.073-.033v-.394a1.604 1.604 0 0 0-.318-1.1 1.334 1.334 0 0 0-1.025-.352 4.209 4.209 0 0 0-1.794.475l-.294-.736a4.532 4.532 0 0 1 2.145-.541 2.372 2.372 0 0 1 1.675.503 2.08 2.08 0 0 1 .545 1.609v4.318l-.702-.005ZM78.1 4.982a1.713 1.713 0 0 0-1.424.536 2.747 2.747 0 0 0-.441 1.709v.213a3.17 3.17 0 0 0 .441 1.898 1.695 1.695 0 0 0 1.424.58 1.485 1.485 0 0 0 1.285-.67 3.142 3.142 0 0 0 .475-1.827 3.051 3.051 0 0 0-.475-1.817 1.528 1.528 0 0 0-1.31-.631l.025.01Zm.137 5.747a2.741 2.741 0 0 1-1.13-.228 2.144 2.144 0 0 1-.853-.702h-.072c.046.347.07.697.072 1.048v2.605h-.95V4.285h.784l.133.863h.047c.214-.322.51-.58.859-.75a2.643 2.643 0 0 1 1.124-.232 2.335 2.335 0 0 1 1.941.864 4.564 4.564 0 0 1 0 4.835 2.345 2.345 0 0 1-1.931.864h-.024Zm8.57-5.623h-2.06v5.509h-.954v-5.51h-2.035v-.82h5.049v.82Zm2.976 4.829a1.974 1.974 0 0 0 1.424-.474 1.822 1.822 0 0 0 .508-1.376V7.51l-.95.043a3.526 3.526 0 0 0-1.65.356 1.072 1.072 0 0 0-.508.978.997.997 0 0 0 .317.792c.25.194.563.29.878.27l-.019-.014Zm2.169.674-.19-.902h-.047a2.69 2.69 0 0 1-.95.807c-.37.153-.77.226-1.171.214a2.107 2.107 0 0 1-1.476-.475 1.751 1.751 0 0 1-.536-1.376c0-1.281 1.022-1.952 3.065-2.012l1.072-.033v-.394a1.604 1.604 0 0 0-.317-1.1 1.333 1.333 0 0 0-1.025-.352 4.209 4.209 0 0 0-1.794.475l-.294-.736a4.53 4.53 0 0 1 2.145-.541 2.372 2.372 0 0 1 1.675.503 2.078 2.078 0 0 1 .545 1.609v4.318l-.702-.005Zm5.965-.919.176-.536.251-.684 1.713-4.175h1.22v6.315h-.85V5.39l-.118.338-.332.882-1.633 4.005h-.802l-1.637-4.019a11.053 11.053 0 0 1-.417-1.205v5.22h-.86V4.294h1.173l1.66 4.014c.162.422.319.883.475 1.38h-.019Zm7.816-4.717a1.557 1.557 0 0 0-1.215.475 2.308 2.308 0 0 0-.531 1.376h3.321a2.1 2.1 0 0 0-.408-1.39 1.418 1.418 0 0 0-1.153-.475l-.014.014Zm.261 5.756a2.899 2.899 0 0 1-2.216-.859 3.295 3.295 0 0 1-.807-2.372 3.7 3.7 0 0 1 .75-2.43 2.513 2.513 0 0 1 2.026-.901 2.37 2.37 0 0 1 1.898.782c.483.577.73 1.314.693 2.065v.607h-4.375a2.521 2.521 0 0 0 .56 1.694 1.95 1.95 0 0 0 1.504.574 5.091 5.091 0 0 0 2.022-.427v.854a5.224 5.224 0 0 1-.949.318c-.36.068-.726.1-1.092.095h-.014Zm4.918-6.444v2.652h3.549V4.285h.954v6.33h-.954V7.763h-3.549v2.852h-.959v-6.33h.959Zm10.809.821h-2.06v5.509h-.953v-5.51h-2.036v-.82h5.049v.82ZM49.192 24.521a2.71 2.71 0 0 1-2.126-.844 3.488 3.488 0 0 1-.754-2.396 3.601 3.601 0 0 1 .764-2.454 2.763 2.763 0 0 1 2.178-.863c.306 0 .612.034.91.1.249.042.49.119.717.227l-.294.816a4.399 4.399 0 0 0-.693-.213 3 3 0 0 0-.664-.086c-1.284 0-1.926.821-1.926 2.463-.04.632.127 1.26.474 1.789a1.632 1.632 0 0 0 1.395.626 4.35 4.35 0 0 0 1.6-.327v.845a3.412 3.412 0 0 1-1.6.332l.02-.015Zm4.06-.112h-.959v-6.325h5.31v6.325h-.968v-5.495h-3.383v5.495Zm7.012-3.175c-.047.652.12 1.302.474 1.85a1.922 1.922 0 0 0 2.848 0 2.961 2.961 0 0 0 .474-1.85 2.928 2.928 0 0 0-.474-1.832 1.718 1.718 0 0 0-1.424-.626 1.694 1.694 0 0 0-1.423.617 2.994 2.994 0 0 0-.475 1.84Zm4.821 0a3.507 3.507 0 0 1-.778 2.42 2.753 2.753 0 0 1-2.154.868 2.847 2.847 0 0 1-1.51-.398 2.656 2.656 0 0 1-1.015-1.144 4.01 4.01 0 0 1-.356-1.746 3.47 3.47 0 0 1 .774-2.406 2.737 2.737 0 0 1 2.145-.863 2.676 2.676 0 0 1 2.111.882c.547.666.826 1.512.783 2.373v.014Zm4.499-2.458a1.699 1.699 0 0 0-1.4.536 2.78 2.78 0 0 0-.446 1.708v.214a3.16 3.16 0 0 0 .446 1.898 1.69 1.69 0 0 0 1.424.574 1.49 1.49 0 0 0 1.286-.665 3.17 3.17 0 0 0 .474-1.831 3.023 3.023 0 0 0-.474-1.813 1.528 1.528 0 0 0-1.31-.636v.015Zm.142 5.746a2.728 2.728 0 0 1-1.13-.228 2.15 2.15 0 0 1-.858-.702h-.071c.046.348.07.698.071 1.049v2.605h-.949v-9.168h.778l.133.864h.048c.218-.319.513-.577.858-.75a2.68 2.68 0 0 1 1.13-.228 2.335 2.335 0 0 1 1.94.86 4.593 4.593 0 0 1 0 4.834 2.372 2.372 0 0 1-1.93.864h-.02Zm8.565-5.622h-2.055v5.509h-.958v-5.51h-2.036v-.815h5.049v.816Zm2.982 4.83a1.933 1.933 0 0 0 1.424-.474 1.818 1.818 0 0 0 .512-1.376v-.57l-.949.039a3.502 3.502 0 0 0-1.646.355 1.072 1.072 0 0 0-.508.978.99.99 0 0 0 .313.792c.252.194.565.29.883.27l-.029-.013Zm2.164.68-.19-.902H83.2a2.62 2.62 0 0 1-.95.802 2.847 2.847 0 0 1-1.176.213 2.112 2.112 0 0 1-1.476-.474 1.772 1.772 0 0 1-.536-1.381c0-1.281 1.025-1.95 3.065-2.007l1.077-.038v-.394a1.59 1.59 0 0 0-.322-1.096 1.314 1.314 0 0 0-1.025-.356 4.175 4.175 0 0 0-1.79.474l-.293-.73a4.506 4.506 0 0 1 2.145-.546 2.42 2.42 0 0 1 1.674.503 2.103 2.103 0 0 1 .546 1.608v4.323h-.702Zm-32.963 8.284h-2.851v5.509h-.959v-6.33h3.81v.82Zm1.891 2.335c-.046.652.12 1.301.475 1.85a1.923 1.923 0 0 0 2.847 0 2.961 2.961 0 0 0 .474-1.85 2.928 2.928 0 0 0-.474-1.832 1.956 1.956 0 0 0-2.847 0 2.994 2.994 0 0 0-.475 1.841v-.01Zm4.821 0a3.492 3.492 0 0 1-.778 2.42 2.752 2.752 0 0 1-2.154.868 2.847 2.847 0 0 1-1.504-.398 2.634 2.634 0 0 1-1.02-1.144 4.01 4.01 0 0 1-.356-1.746 3.488 3.488 0 0 1 .773-2.41 2.748 2.748 0 0 1 2.15-.864 2.67 2.67 0 0 1 2.107.887 3.47 3.47 0 0 1 .782 2.372v.015Zm4.499-2.459a1.698 1.698 0 0 0-1.423.536 2.78 2.78 0 0 0-.446 1.709v.213a3.16 3.16 0 0 0 .446 1.898 1.704 1.704 0 0 0 1.423.574 1.48 1.48 0 0 0 1.282-.664 3.17 3.17 0 0 0 .474-1.832 3.05 3.05 0 0 0-.474-1.817 1.523 1.523 0 0 0-1.31-.631l.029.014Zm.143 5.746a2.743 2.743 0 0 1-1.13-.227 2.15 2.15 0 0 1-.858-.703h-.067c.042.348.064.699.067 1.05v2.604h-.95v-9.167h.784l.128.863h.047a2.32 2.32 0 0 1 .859-.75c.355-.158.74-.237 1.13-.232a2.334 2.334 0 0 1 1.94.864 4.593 4.593 0 0 1 0 4.835 2.373 2.373 0 0 1-1.931.863h-.02Zm4.924-3.287c-.046.652.12 1.301.475 1.85a1.924 1.924 0 0 0 2.847 0 2.961 2.961 0 0 0 .474-1.85 2.928 2.928 0 0 0-.474-1.832 1.718 1.718 0 0 0-1.424-.626 1.694 1.694 0 0 0-1.423.617 2.994 2.994 0 0 0-.475 1.84Zm4.821 0a3.516 3.516 0 0 1-.778 2.42 2.753 2.753 0 0 1-2.154.868 2.847 2.847 0 0 1-1.51-.399 2.657 2.657 0 0 1-1.015-1.143 4.008 4.008 0 0 1-.356-1.746 3.487 3.487 0 0 1 .774-2.41 2.739 2.739 0 0 1 2.145-.864 2.68 2.68 0 0 1 2.111.887c.547.666.826 1.512.783 2.372v.015Zm5.353 2.343v-4.745h-1.424a10.381 10.381 0 0 1-.474 2.596 7.315 7.315 0 0 1-1.04 2.15h2.938Zm1.827 3.018h-.95v-2.192h-4.421v2.192h-.921v-3.018h.498a8.285 8.285 0 0 0 1.21-2.462c.302-.985.462-2.007.475-3.037h3.203v5.5h.925v3.017h-.02Zm2.992-2.867a1.946 1.946 0 0 0 1.423-.474 1.818 1.818 0 0 0 .508-1.376v-.57l-.949.038a3.526 3.526 0 0 0-1.651.356 1.067 1.067 0 0 0-.503.977.99.99 0 0 0 .313.793c.252.194.565.29.883.27l-.024-.014Zm2.164.674-.19-.897h-.048a2.72 2.72 0 0 1-.949.802c-.37.153-.77.226-1.172.214a2.112 2.112 0 0 1-1.475-.475 1.766 1.766 0 0 1-.537-1.376c0-1.281 1.025-1.95 3.066-2.012l1.077-.033v-.394a1.603 1.603 0 0 0-.323-1.1 1.335 1.335 0 0 0-1.025-.352 4.176 4.176 0 0 0-1.789.474l-.294-.73c.323-.174.666-.31 1.02-.404a4.563 4.563 0 0 1 1.12-.142 2.372 2.372 0 0 1 1.675.503 2.08 2.08 0 0 1 .55 1.609v4.318l-.706-.005Zm9.634.001-2.847-7.478h-.062c.057.588.08 1.295.08 2.111v5.367h-.905v-8.437h1.48l2.667 6.961h.047l2.695-6.96h1.467v8.436h-.983V32.76c0-.621.029-1.3.081-2.03h-.043l-2.89 7.468h-.787Zm7.432-3.169c-.047.652.12 1.301.474 1.85a1.894 1.894 0 0 0 1.424.643 1.901 1.901 0 0 0 1.423-.643 2.955 2.955 0 0 0 .475-1.85 2.925 2.925 0 0 0-.475-1.832 1.945 1.945 0 0 0-1.423-.615 1.957 1.957 0 0 0-1.424.615 2.994 2.994 0 0 0-.474 1.841v-.01Zm4.821 0a3.492 3.492 0 0 1-.778 2.42 2.75 2.75 0 0 1-2.155.868 2.85 2.85 0 0 1-1.504-.398 2.632 2.632 0 0 1-1.02-1.144 4.012 4.012 0 0 1-.356-1.746 3.49 3.49 0 0 1 .773-2.41 2.755 2.755 0 0 1 2.15-.864 2.669 2.669 0 0 1 2.107.887 3.47 3.47 0 0 1 .783 2.372v.015Zm4.212 3.289a2.7 2.7 0 0 1-2.125-.85 3.465 3.465 0 0 1-.755-2.372 3.608 3.608 0 0 1 .764-2.453 2.762 2.762 0 0 1 2.178-.869c.308.003.615.036.916.1.248.047.488.125.717.232l-.295.812a4.754 4.754 0 0 0-.692-.209 3.075 3.075 0 0 0-.665-.086c-1.287 0-1.929.821-1.926 2.463-.039.632.127 1.26.474 1.79a1.644 1.644 0 0 0 1.395.62 4.27 4.27 0 0 0 1.623-.34v.849a3.403 3.403 0 0 1-1.599.332l-.01-.02Zm6.789-6.445h1.054l-2.734 3.056 2.957 3.274h-1.12L114.064 35v3.203h-.959v-6.33h.959v3.08l2.733-3.08Zm6.82 4.422a.798.798 0 0 0-.389-.75 2.685 2.685 0 0 0-1.291-.232h-1.736v2.083h1.746c1.106 0 1.656-.365 1.656-1.1h.014Zm-.175-2.742a.689.689 0 0 0-.356-.655 2.347 2.347 0 0 0-1.077-.195h-1.808v1.784h1.623c.429.034.86-.041 1.252-.218a.775.775 0 0 0 .366-.716Zm.949-.09a1.2 1.2 0 0 1-.356.948c-.284.236-.63.386-.997.432v.052c.435.028.849.194 1.182.475a1.344 1.344 0 0 1 .37 1.001 1.58 1.58 0 0 1-.645 1.362 3.161 3.161 0 0 1-1.898.475h-2.805v-6.335h2.776c1.582 0 2.373.53 2.373 1.59Zm8.652 4.735h-.949v-6.325h.949v6.325Zm-6.112-2.885v2.083h1.618c1.02 0 1.528-.356 1.528-1.068a.874.874 0 0 0-.351-.773 2.225 2.225 0 0 0-1.205-.242h-1.59Zm0-.826h1.727a2.939 2.939 0 0 1 1.785.446 1.578 1.578 0 0 1 .578 1.338 1.728 1.728 0 0 1-.612 1.424 2.893 2.893 0 0 1-1.812.474h-2.624v-6.296h.949v2.614h.009Z"/>
  </g>
  <defs>
    <clipPath id="a">
      <path fill="#fff" d="M0 .716h134v44H0z"/>
    </clipPath>
  </defs>
</svg>
