<svg xmlns="http://www.w3.org/2000/svg" fill="none" viewBox="0 0 117 117">
  <path fill="#EB3333" d="M60.265 66.12c.623.665 1.29 1.298 2 1.895 3.326 2.793 7.588 4.801 12.345 5.653v-2.51c-3.951-.807-7.492-2.526-10.286-4.872a19.814 19.814 0 0 1-2.497-2.505l-1.562 2.338Z"/>
  <path fill="#EB3333" d="M49.95 63.505c3.112-2.615 5.047-6.222 5.047-10.188V42.332h2.912v10.985c0 1.932.364 4.195 1.033 5.95.67-1.755 1.035-4.018 1.035-5.95V42.332h2.912v10.985c0 3.966 1.933 7.573 5.047 10.188 1.858 1.562 4.136 2.768 6.674 3.488v2.563c-3.342-.798-6.337-2.308-8.733-4.32-1.8-1.513-3.262-3.31-4.281-5.3-.76 1.725-1.599 3.358-2.647 4.602l-.007.008-.006-.008c-1.048-1.245-1.886-2.878-2.646-4.602-1.02 1.99-2.481 3.787-4.282 5.3-2.396 2.013-5.389 3.522-8.733 4.32v-2.563c2.539-.72 4.817-1.926 6.675-3.487Z"/>
  <path fill="#EB3333" d="M67.546 53.086c0 2.89 1.41 5.519 3.677 7.425a12.837 12.837 0 0 0 3.387 2.033v2.663c-2.06-.658-3.912-1.678-5.445-2.966-2.796-2.349-4.532-5.589-4.532-9.155v-2.475h2.913v2.475ZM50.34 50.612h2.914v2.475c0 3.566-1.736 6.807-4.533 9.155-1.532 1.288-3.385 2.307-5.445 2.966v-2.664a12.817 12.817 0 0 0 3.386-2.032c2.27-1.906 3.679-4.535 3.679-7.426v-2.474Zm5.72 13.168a19.743 19.743 0 0 1-2.499 2.505c-2.793 2.346-6.334 4.065-10.287 4.872v2.51c4.757-.852 9.02-2.859 12.346-5.652.71-.597 1.378-1.23 2-1.896l-1.56-2.339Z"/>
  <path fill="#2A3B4D" d="M85.246 3.646h3.619v-1.81a1.777 1.777 0 0 0-1.81-1.809h-1.809v3.619Z"/>
  <path fill="#2A3B4D" d="M85.351.027h-3.619v3.619h3.62V.027Z"/>
  <path fill="#2A3B4D" d="M80.028 3.646h1.81V.027h-1.81c-1.025 0-1.81.784-1.81 1.81 0 1.025.785 1.809 1.81 1.809Zm-8.836 0h3.619v-1.81A1.778 1.778 0 0 0 73 .028h-1.81v3.619Z"/>
  <path fill="#2A3B4D" d="M67.678 3.646h3.62V.027h-1.81c-1.025 0-1.81.784-1.81 1.81v1.809Zm-10.54 0h3.619v-1.81a1.777 1.777 0 0 0-1.81-1.809c-1.025 0-1.81.784-1.81 1.81v1.809Zm-12.245 0a1.81 1.81 0 1 1 0-3.619 1.81 1.81 0 0 1 0 3.619Zm-12.35 0h1.81c1.025 0 1.81-.784 1.81-1.81a1.778 1.778 0 0 0-1.81-1.809h-1.81v3.619Z"/>
  <path fill="#2A3B4D" d="M29.03 3.646h3.619V.027h-1.81c-1.025 0-1.81.784-1.81 1.81v1.809Zm59.835-.106h-3.619v3.62h3.619V3.54Zm-14.055 0h-3.618v3.62h3.619V3.54Z"/>
  <path fill="#2A3B4D" d="M71.297 3.54h-3.619v3.62h3.62V3.54Z"/>
  <path fill="#2A3B4D" d="M67.784 3.54h-3.62v3.62h3.62V3.54Z"/>
  <path fill="#2A3B4D" d="M64.27 3.54h-3.619v3.62h3.62V3.54Z"/>
  <path fill="#2A3B4D" d="M58.947 7.16h1.81V3.54h-3.62v1.81c0 1.025.785 1.81 1.81 1.81Zm-10.54 0a1.81 1.81 0 1 1 0-3.62 1.81 1.81 0 0 1 0 3.62Zm-8.837 0h3.62V5.35c0-1.025-.785-1.81-1.81-1.81h-1.81v3.62Z"/>
  <path fill="#2A3B4D" d="M36.057 7.16h3.619V3.54h-1.81c-1.025 0-1.81.785-1.81 1.81v1.81Zm-3.408-3.62h-3.62v3.62h3.62V3.54Zm52.597 7.133h1.81a1.777 1.777 0 0 0 1.809-1.81V7.055h-3.619v3.619Z"/>
  <path fill="#2A3B4D" d="M81.732 10.673h3.62V7.054h-1.81c-1.026 0-1.81.784-1.81 1.81v1.809Zm-7.027 0h1.81c1.025 0 1.81-.784 1.81-1.81a1.778 1.778 0 0 0-1.81-1.809h-1.81v3.619Z"/>
  <path fill="#2A3B4D" d="M73.001 10.673h1.81V7.054h-3.62v1.81c0 1.025.785 1.809 1.81 1.809ZM64.27 7.054h-3.619v3.619h3.62V7.054Zm-10.646 3.619h3.62v-1.81a1.778 1.778 0 0 0-1.81-1.809h-1.81v3.619Z"/>
  <path fill="#2A3B4D" d="M50.11 10.673h3.62V7.054h-1.81c-1.025 0-1.81.784-1.81 1.81v1.809Zm-7.026 0h1.81a1.777 1.777 0 0 0 1.809-1.81 1.777 1.777 0 0 0-1.81-1.809h-1.81v3.619Z"/>
  <path fill="#2A3B4D" d="M43.19 7.054h-3.62v3.619h3.62V7.054Z"/>
  <path fill="#2A3B4D" d="M39.676 7.054h-3.62v3.619h3.62V7.054Z"/>
  <path fill="#2A3B4D" d="M36.162 7.054h-3.619v3.619h3.62V7.054Z"/>
  <path fill="#2A3B4D" d="M30.84 10.673h1.809V7.054h-3.62v1.81c0 1.025.785 1.809 1.81 1.809Zm54.511-.105h-3.619v3.619h3.62v-3.62Z"/>
  <path fill="#2A3B4D" d="M80.028 14.187h1.81v-3.62h-1.81c-1.025 0-1.81.785-1.81 1.81s.785 1.81 1.81 1.81Zm-15.863 0h3.619v-1.81c0-1.025-.784-1.81-1.81-1.81h-1.81v3.62Z"/>
  <path fill="#2A3B4D" d="M64.27 10.568h-3.619v3.619h3.62v-3.62Z"/>
  <path fill="#2A3B4D" d="M60.757 10.568h-3.62v3.619h3.62v-3.62Z"/>
  <path fill="#2A3B4D" d="M57.243 10.568h-3.619v3.619h3.62v-3.62Z"/>
  <path fill="#2A3B4D" d="M53.73 10.568h-3.62v3.619h3.62v-3.62Zm-17.673 3.619h1.81a1.778 1.778 0 0 0 1.809-1.81v-1.81h-3.62v3.62Z"/>
  <path fill="#2A3B4D" d="M34.353 14.187h1.81v-3.62h-3.62v1.81c0 1.025.784 1.81 1.81 1.81Zm50.998-.106h-3.619V17.7h3.62v-3.619ZM64.165 17.7h1.81a1.777 1.777 0 0 0 1.809-1.81v-1.809h-3.62V17.7Z"/>
  <path fill="#2A3B4D" d="M64.27 14.081h-3.619V17.7h3.62v-3.619Z"/>
  <path fill="#2A3B4D" d="M60.757 14.081h-3.62V17.7h3.62v-3.619ZM50.11 17.7h1.81c1.026 0 1.81-.784 1.81-1.81v-1.809h-3.62V17.7Z"/>
  <path fill="#2A3B4D" d="M46.597 17.7h3.62v-3.619h-1.81c-1.026 0-1.81.784-1.81 1.81V17.7Zm-15.757 0a1.81 1.81 0 1 1 0-3.619 1.81 1.81 0 0 1 0 3.619Zm54.406 3.513h3.619v-1.809c0-1.025-.784-1.81-1.81-1.81h-1.809v3.62Z"/>
  <path fill="#2A3B4D" d="M83.542 21.213h1.81v-3.618h-3.62v1.81c0 1.024.784 1.808 1.81 1.808Zm-22.785-3.618h-3.62v3.619h3.62v-3.62Z"/>
  <path fill="#2A3B4D" d="M55.434 21.213h1.81v-3.618h-1.81c-1.026 0-1.81.784-1.81 1.81 0 1.024.784 1.808 1.81 1.808Zm-7.027 0c1.025 0 1.81-.784 1.81-1.809v-1.81h-3.62v1.81c0 1.025.784 1.81 1.81 1.81Zm-12.35 0h3.619v-1.809c0-1.025-.784-1.81-1.81-1.81-1.025 0-1.81.785-1.81 1.81v1.81Zm52.808-.105h-3.619v3.619h3.619v-3.619Zm-10.646 3.619h3.619v-1.81a1.777 1.777 0 0 0-1.81-1.809c-1.025 0-1.81.784-1.81 1.81v1.809Zm-5.218 0a1.81 1.81 0 1 1 0-3.619 1.81 1.81 0 0 1 0 3.619Zm-8.836 0h3.619v-1.81a1.777 1.777 0 0 0-1.81-1.809c-1.025 0-1.81.784-1.81 1.81v1.809Z"/>
  <path fill="#2A3B4D" d="M58.947 24.727c1.026 0 1.81-.784 1.81-1.81v-1.809h-3.62v1.81c0 1.025.785 1.809 1.81 1.809Zm-7.027 0a1.81 1.81 0 1 1 0-3.619 1.81 1.81 0 0 1 0 3.619Zm-8.836 0h3.619v-1.81a1.777 1.777 0 0 0-1.81-1.809c-1.025 0-1.81.784-1.81 1.81v1.809Zm-3.408-3.619h-3.62v3.619h3.62v-3.619ZM29.03 24.727h3.619v-1.81a1.777 1.777 0 0 0-1.81-1.809c-1.025 0-1.81.784-1.81 1.81v1.809Zm59.835-.105h-3.619v3.619h3.619v-3.62Z"/>
  <path fill="#2A3B4D" d="M85.351 24.622h-3.619v3.619h3.62v-3.62Z"/>
  <path fill="#2A3B4D" d="M81.838 24.622h-3.62v3.619h3.62v-3.62Z"/>
  <path fill="#2A3B4D" d="M74.705 28.24h3.62v-3.618h-1.81c-1.025 0-1.81.784-1.81 1.81v1.809Zm-6.921-3.618h-3.62v3.619h3.62v-3.62Z"/>
  <path fill="#2A3B4D" d="M62.46 28.24h1.81v-3.618h-1.81a1.777 1.777 0 0 0-1.809 1.81c0 1.024.784 1.809 1.81 1.809Zm-8.836 0h3.62v-1.809c0-1.025-.785-1.81-1.81-1.81-1.026 0-1.81.785-1.81 1.81v1.81Zm-7.027 0h1.81c1.025 0 1.81-.784 1.81-1.809s-.785-1.81-1.81-1.81h-1.81v3.62Z"/>
  <path fill="#2A3B4D" d="M46.703 24.622h-3.62v3.619h3.62v-3.62Z"/>
  <path fill="#2A3B4D" d="M43.19 24.622h-3.62v3.619h3.62v-3.62Z"/>
  <path fill="#2A3B4D" d="M39.676 24.622h-3.62v3.619h3.62v-3.62Zm-7.027 0h-3.62v3.619h3.62v-3.62Zm73.678 7.132h3.619v-1.81a1.777 1.777 0 0 0-1.81-1.809h-1.809v3.62Z"/>
  <path fill="#2A3B4D" d="M106.432 28.135h-3.618v3.62h3.618v-3.62Z"/>
  <path fill="#2A3B4D" d="M101.109 31.754h1.81v-3.619h-1.81a1.777 1.777 0 0 0-1.809 1.81c0 1.025.784 1.81 1.809 1.81Zm-7.027 0a1.81 1.81 0 1 1 0-3.619 1.81 1.81 0 0 1 0 3.62Zm-8.836 0h1.81a1.777 1.777 0 0 0 1.809-1.81v-1.809h-3.619v3.62Z"/>
  <path fill="#2A3B4D" d="M85.351 28.135h-3.619v3.62h3.62v-3.62Z"/>
  <path fill="#2A3B4D" d="M81.838 28.135h-3.62v3.62h3.62v-3.62Z"/>
  <path fill="#2A3B4D" d="M78.324 28.135h-3.619v3.62h3.62v-3.62Zm-12.35 3.619c1.026 0 1.81-.784 1.81-1.81v-1.809h-3.62v1.81c0 1.025.785 1.81 1.81 1.81Zm-8.836 0h1.81a1.777 1.777 0 0 0 1.809-1.81 1.777 1.777 0 0 0-1.81-1.809h-1.81v3.62Z"/>
  <path fill="#2A3B4D" d="M57.243 28.135h-3.619v3.62h3.62v-3.62Z"/>
  <path fill="#2A3B4D" d="M51.92 31.754h1.81v-3.619h-1.81c-1.025 0-1.81.784-1.81 1.81 0 1.025.785 1.81 1.81 1.81Zm-5.217-3.619h-3.62v3.62h3.62v-3.62Zm-7.027 0h-3.62v3.62h3.62v-3.62ZM29.03 31.754h1.81a1.777 1.777 0 0 0 1.809-1.81v-1.809h-3.62v3.62Z"/>
  <path fill="#2A3B4D" d="M29.135 28.135h-3.619v3.62h3.62v-3.62Z"/>
  <path fill="#2A3B4D" d="M25.622 28.135h-3.62v3.62h3.62v-3.62Z"/>
  <path fill="#2A3B4D" d="M20.299 31.754h1.81v-3.619h-1.81c-1.026 0-1.81.784-1.81 1.81 0 1.025.784 1.81 1.81 1.81Zm-12.35 0h1.81a1.778 1.778 0 0 0 1.809-1.81 1.777 1.777 0 0 0-1.81-1.809h-1.81v3.62Z"/>
  <path fill="#2A3B4D" d="M8.054 28.135H4.435v3.62h3.62v-3.62Z"/>
  <path fill="#2A3B4D" d="M.922 31.754H4.54v-3.619H2.73c-1.025 0-1.81.784-1.81 1.81v1.81Zm105.405 3.514h1.809c1.026 0 1.81-.785 1.81-1.81v-1.81h-3.619v3.62Z"/>
  <path fill="#2A3B4D" d="M106.432 31.649h-3.618v3.619h3.618v-3.62Zm-10.645 3.619h3.618v-1.81c0-1.025-.784-1.81-1.81-1.81a1.777 1.777 0 0 0-1.808 1.81v1.81Zm-10.436-3.619h-3.619v3.619h3.62v-3.62Z"/>
  <path fill="#2A3B4D" d="M81.838 31.649h-3.62v3.619h3.62v-3.62Z"/>
  <path fill="#2A3B4D" d="M76.515 35.268h1.81v-3.62h-3.62v1.81c0 1.026.785 1.81 1.81 1.81Zm-7.027 0a1.81 1.81 0 1 1 0-3.62 1.81 1.81 0 0 1 0 3.62Zm-8.837 0h3.62v-1.81c0-1.025-.785-1.81-1.81-1.81-1.026 0-1.81.785-1.81 1.81v1.81Zm-15.758 0c1.026 0 1.81-.785 1.81-1.81v-1.81h-3.62v1.81c0 1.026.785 1.81 1.81 1.81Zm-5.217-3.619h-3.62v3.619h3.62v-3.62Z"/>
  <path fill="#2A3B4D" d="M34.353 35.268h1.81v-3.62h-1.81c-1.026 0-1.81.785-1.81 1.81 0 1.026.784 1.81 1.81 1.81Zm-8.837 0h1.81c1.025 0 1.81-.785 1.81-1.81v-1.81h-3.62v3.62Z"/>
  <path fill="#2A3B4D" d="M23.812 35.268h1.81v-3.62h-3.62v1.81c0 1.026.785 1.81 1.81 1.81Zm-10.54 0a1.81 1.81 0 1 1 0-3.62 1.81 1.81 0 0 1 0 3.62Zm-5.218-3.619H4.435v3.619h3.62v-3.62Z"/>
  <path fill="#2A3B4D" d="M2.731 35.268h1.81v-3.62H.92v1.81c0 1.026.785 1.81 1.81 1.81Zm107.11 3.513h3.618v-1.81a1.777 1.777 0 0 0-1.809-1.809 1.777 1.777 0 0 0-1.809 1.81v1.81Zm-3.409-3.619h-3.618v3.62h3.618v-3.62Zm-10.645 3.619h1.809c1.025 0 1.81-.784 1.81-1.81v-1.809h-3.62v3.62Z"/>
  <path fill="#2A3B4D" d="M95.892 35.162h-3.619v3.62h3.619v-3.62Z"/>
  <path fill="#2A3B4D" d="M92.378 35.162H88.76v3.62h3.618v-3.62Z"/>
  <path fill="#2A3B4D" d="M88.865 35.162h-3.619v3.62h3.619v-3.62Z"/>
  <path fill="#2A3B4D" d="M85.351 35.162h-3.619v3.62h3.62v-3.62Z"/>
  <path fill="#2A3B4D" d="M81.838 35.162h-3.62v3.62h3.62v-3.62Zm-17.673 3.619h1.81a1.777 1.777 0 0 0 1.809-1.81 1.777 1.777 0 0 0-1.81-1.809h-1.81v3.62Z"/>
  <path fill="#2A3B4D" d="M64.27 35.162h-3.619v3.62h3.62v-3.62Z"/>
  <path fill="#2A3B4D" d="M58.947 38.781h1.81v-3.619h-1.81c-1.025 0-1.81.784-1.81 1.81 0 1.025.785 1.81 1.81 1.81Zm-10.54 0a1.81 1.81 0 1 1 0-3.619 1.81 1.81 0 0 1 0 3.62Zm-10.541 0c1.026 0 1.81-.784 1.81-1.81v-1.809h-3.62v1.81c0 1.025.785 1.81 1.81 1.81Zm-7.026 0a1.81 1.81 0 1 1 0-3.619 1.81 1.81 0 0 1 0 3.62Zm-10.541 0a1.81 1.81 0 1 1 0-3.619 1.81 1.81 0 0 1 0 3.62ZM8.054 35.162H4.435v3.62h3.62v-3.62Zm103.596 7.133a1.777 1.777 0 0 0 1.809-1.81v-1.81h-3.618v1.81c0 1.026.784 1.81 1.809 1.81Zm-5.218-3.619h-3.618v3.619h3.618v-3.62Zm-14.054 0H88.76v3.619h3.618v-3.62Zm-14.159 3.619h1.81a1.778 1.778 0 0 0 1.809-1.81v-1.81h-3.62v3.62Z"/>
  <path fill="#2A3B4D" d="M78.324 38.676h-3.619v3.619h3.62v-3.62Z"/>
  <path fill="#2A3B4D" d="M73.001 42.295h1.81v-3.62H73c-1.025 0-1.81.785-1.81 1.81 0 1.026.785 1.81 1.81 1.81Zm-21.081 0a1.81 1.81 0 1 1 0-3.62 1.81 1.81 0 0 1 0 3.62Zm-28.108 0a1.81 1.81 0 1 1 0-3.62 1.81 1.81 0 0 1 0 3.62Zm-12.35 0h3.62v-1.81c0-1.025-.785-1.81-1.81-1.81h-1.81v3.62Z"/>
  <path fill="#2A3B4D" d="M11.568 38.676h-3.62v3.619h3.62v-3.62Z"/>
  <path fill="#2A3B4D" d="M8.054 38.676H4.435v3.619h3.62v-3.62Z"/>
  <path fill="#2A3B4D" d="M2.731 42.295h1.81v-3.62H2.73c-1.025 0-1.81.785-1.81 1.81 0 1.026.785 1.81 1.81 1.81Zm112.433 3.513a1.81 1.81 0 1 1-.001-3.619 1.81 1.81 0 0 1 .001 3.62Zm-8.732-3.618h-3.618v3.618h3.618V42.19Z"/>
  <path fill="#2A3B4D" d="M101.109 45.808h1.81V42.19h-1.81A1.777 1.777 0 0 0 99.3 44c0 1.025.784 1.81 1.809 1.81Zm-8.836 0h1.81a1.777 1.777 0 0 0 1.809-1.81 1.777 1.777 0 0 0-1.81-1.809h-1.809v3.62Z"/>
  <path fill="#2A3B4D" d="M92.378 42.19H88.76v3.618h3.618V42.19Z"/>
  <path fill="#2A3B4D" d="M87.055 45.808h1.81V42.19h-1.81A1.777 1.777 0 0 0 85.246 44c0 1.025.784 1.81 1.81 1.81Zm-8.731-3.618h-3.619v3.618h3.62V42.19ZM39.57 45.808h1.81c1.025 0 1.81-.784 1.81-1.81a1.778 1.778 0 0 0-1.81-1.809h-1.81v3.62Z"/>
  <path fill="#2A3B4D" d="M37.866 45.808h1.81V42.19h-1.81c-1.025 0-1.81.784-1.81 1.81 0 1.025.785 1.81 1.81 1.81Zm-8.836 0h1.81a1.777 1.777 0 0 0 1.809-1.81 1.777 1.777 0 0 0-1.81-1.809h-1.81v3.62Z"/>
  <path fill="#2A3B4D" d="M25.516 45.808h3.62V42.19h-1.81c-1.026 0-1.81.784-1.81 1.81v1.81Zm-5.217 0a1.81 1.81 0 1 1 0-3.619 1.81 1.81 0 0 1 0 3.62Zm-5.218-3.618h-3.619v3.618h3.62V42.19Zm91.351 3.513h-3.618v3.619h3.618v-3.62Zm-8.836 3.619a1.81 1.81 0 1 1 0-3.62 1.81 1.81 0 0 1 0 3.62Zm-5.218-3.619H88.76v3.619h3.618v-3.62Zm-10.646 3.619h3.62v-1.81c0-1.025-.785-1.81-1.81-1.81-1.026 0-1.81.785-1.81 1.81v1.81Zm-5.217 0c1.025 0 1.81-.785 1.81-1.81v-1.81h-3.62v1.81c0 1.026.785 1.81 1.81 1.81Zm-42.162 0a1.81 1.81 0 1 1 0-3.62 1.81 1.81 0 0 1 0 3.62Z"/>
  <path fill="#2A3B4D" d="M29.135 45.703h-3.619v3.619h3.62v-3.62Z"/>
  <path fill="#2A3B4D" d="M22.003 49.322h3.619v-3.62h-1.81c-1.025 0-1.81.785-1.81 1.81v1.81Zm-7.027 0h3.619v-1.81c0-1.025-.784-1.81-1.81-1.81h-1.81v3.62Z"/>
  <path fill="#2A3B4D" d="M13.272 49.322h1.81v-3.62h-3.62v1.81c0 1.026.784 1.81 1.81 1.81Zm-10.541 0a1.81 1.81 0 1 1 0-3.62 1.81 1.81 0 0 1 0 3.62Zm110.623 3.513h3.619v-1.81a1.777 1.777 0 0 0-1.809-1.809c-1.026 0-1.81.784-1.81 1.81v1.81Zm-7.027 0h1.809c1.026 0 1.81-.784 1.81-1.81a1.777 1.777 0 0 0-1.81-1.809h-1.809v3.62Z"/>
  <path fill="#2A3B4D" d="M106.432 49.216h-3.618v3.62h3.618v-3.62Z"/>
  <path fill="#2A3B4D" d="M99.3 52.835h3.619v-3.619h-1.81a1.777 1.777 0 0 0-1.809 1.81v1.81Zm-7.027 0h1.81a1.777 1.777 0 0 0 1.809-1.81 1.777 1.777 0 0 0-1.81-1.809h-1.809v3.62Z"/>
  <path fill="#2A3B4D" d="M90.569 52.835h1.81v-3.619h-3.62v1.81c0 1.025.785 1.81 1.81 1.81Zm-5.218-3.619h-3.619v3.62h3.62v-3.62Zm-49.294 3.619h3.619v-1.81a1.777 1.777 0 0 0-1.81-1.809c-1.025 0-1.81.784-1.81 1.81v1.81Zm-7.027 0h1.81a1.777 1.777 0 0 0 1.809-1.81 1.777 1.777 0 0 0-1.81-1.809h-1.81v3.62Z"/>
  <path fill="#2A3B4D" d="M29.135 49.216h-3.619v3.62h3.62v-3.62Z"/>
  <path fill="#2A3B4D" d="M25.622 49.216h-3.62v3.62h3.62v-3.62Z"/>
  <path fill="#2A3B4D" d="M22.108 49.216H18.49v3.62h3.62v-3.62Z"/>
  <path fill="#2A3B4D" d="M18.595 49.216h-3.62v3.62h3.62v-3.62Zm-12.35 3.619a1.81 1.81 0 1 1 0-3.619 1.81 1.81 0 0 1 0 3.62Zm108.919 3.514a1.777 1.777 0 0 0 1.809-1.81v-1.81h-3.619v1.81c0 1.026.784 1.81 1.81 1.81Zm-8.732-3.619h-3.618v3.619h3.618v-3.62Z"/>
  <path fill="#2A3B4D" d="M101.109 56.349h1.81v-3.62H99.3v1.81c0 1.026.784 1.81 1.809 1.81ZM85.351 52.73h-3.619v3.619h3.62v-3.62Z"/>
  <path fill="#2A3B4D" d="M80.028 56.349h1.81v-3.62h-1.81c-1.025 0-1.81.785-1.81 1.81 0 1.026.785 1.81 1.81 1.81Zm-40.458 0h1.81c1.025 0 1.81-.784 1.81-1.81 0-1.025-.785-1.81-1.81-1.81h-1.81v3.62Z"/>
  <path fill="#2A3B4D" d="M39.676 52.73h-3.62v3.619h3.62v-3.62Z"/>
  <path fill="#2A3B4D" d="M32.543 56.349h3.62v-3.62h-1.81c-1.026 0-1.81.785-1.81 1.81v1.81Zm-3.408-3.619h-3.619v3.619h3.62v-3.62Z"/>
  <path fill="#2A3B4D" d="M23.812 56.349h1.81v-3.62h-3.62v1.81c0 1.026.785 1.81 1.81 1.81Zm-5.217-3.619h-3.62v3.619h3.62v-3.62Z"/>
  <path fill="#2A3B4D" d="M13.272 56.349h1.81v-3.62h-1.81c-1.026 0-1.81.785-1.81 1.81 0 1.026.784 1.81 1.81 1.81Zm-12.35 0H4.54v-1.81c0-1.025-.785-1.81-1.81-1.81s-1.81.785-1.81 1.81v1.81Zm108.919 3.513h3.618v-1.81a1.777 1.777 0 0 0-1.809-1.809 1.777 1.777 0 0 0-1.809 1.81v1.81Zm-5.218 0a1.777 1.777 0 0 0 1.809-1.81v-1.809h-3.618v1.81c0 1.025.784 1.81 1.809 1.81Zm-10.541 0a1.81 1.81 0 1 1 0-3.619 1.81 1.81 0 0 1 0 3.62Zm-8.836 0h1.81a1.777 1.777 0 0 0 1.809-1.81 1.777 1.777 0 0 0-1.81-1.809h-1.809v3.62Z"/>
  <path fill="#2A3B4D" d="M85.351 56.243h-3.619v3.62h3.62v-3.62Zm-8.836 3.619a1.81 1.81 0 1 1 0-3.619 1.81 1.81 0 0 1 0 3.62Zm-40.353-3.619h-3.619v3.62h3.62v-3.62Zm-7.027 0h-3.619v3.62h3.62v-3.62ZM18.49 59.862h3.618v-1.81a1.777 1.777 0 0 0-1.81-1.809H18.49v3.62Z"/>
  <path fill="#2A3B4D" d="M16.785 59.862h1.81v-3.619h-3.62v1.81c0 1.025.785 1.81 1.81 1.81Zm-7.027 0a1.81 1.81 0 1 1 0-3.619 1.81 1.81 0 0 1 0 3.62Zm-7.027 0c1.025 0 1.81-.784 1.81-1.81v-1.809H.92v1.81c0 1.025.785 1.81 1.81 1.81Zm110.623 3.514h1.81a1.777 1.777 0 0 0 1.809-1.81c0-1.025-.784-1.81-1.809-1.81h-1.81v3.62Z"/>
  <path fill="#2A3B4D" d="M111.65 63.376h1.809v-3.62h-3.618v1.81c0 1.026.784 1.81 1.809 1.81Zm-14.054 0a1.81 1.81 0 1 1 0-3.62 1.81 1.81 0 0 1 0 3.62Zm-15.864 0h1.81c1.025 0 1.81-.784 1.81-1.81v-1.81h-3.62v3.62Z"/>
  <path fill="#2A3B4D" d="M78.219 63.376h3.619v-3.62h-1.81c-1.025 0-1.81.785-1.81 1.81v1.81Zm-45.676 0h1.81c1.025 0 1.81-.784 1.81-1.81v-1.81h-3.62v3.62Z"/>
  <path fill="#2A3B4D" d="M32.649 59.757h-3.62v3.619h3.62v-3.62Z"/>
  <path fill="#2A3B4D" d="M29.135 59.757h-3.619v3.619h3.62v-3.62Z"/>
  <path fill="#2A3B4D" d="M25.622 59.757h-3.62v3.619h3.62v-3.62Z"/>
  <path fill="#2A3B4D" d="M20.299 63.376h1.81v-3.62h-3.62v1.81c0 1.026.784 1.81 1.81 1.81Zm80.81 3.514a1.81 1.81 0 1 1 0-3.62 1.81 1.81 0 0 1 0 3.62Zm-7.027 0a1.81 1.81 0 1 1 0-3.62 1.81 1.81 0 0 1 0 3.62Zm-12.244-3.62h-3.62v3.62h3.62v-3.62Z"/>
  <path fill="#2A3B4D" d="M76.515 66.89h1.81v-3.62h-1.81c-1.025 0-1.81.784-1.81 1.81 0 1.025.785 1.81 1.81 1.81Zm-40.458 0h3.619v-1.81c0-1.026-.784-1.81-1.81-1.81-1.025 0-1.81.784-1.81 1.81v1.81Zm-28.108 0h3.619v-1.81c0-1.026-.784-1.81-1.81-1.81-1.025 0-1.81.784-1.81 1.81v1.81Zm105.405 3.513h3.619v-1.81c0-1.025-.784-1.81-1.809-1.81-1.026 0-1.81.785-1.81 1.81v1.81Zm-17.567 0h3.618v-1.81c0-1.025-.784-1.81-1.81-1.81a1.777 1.777 0 0 0-1.808 1.81v1.81Zm-14.055 0h1.81c1.025 0 1.81-.784 1.81-1.81 0-1.025-.785-1.81-1.81-1.81h-1.81v3.62Z"/>
  <path fill="#2A3B4D" d="M81.838 66.784h-3.62v3.619h3.62v-3.62ZM39.57 70.403h1.81c1.025 0 1.81-.784 1.81-1.81 0-1.025-.785-1.81-1.81-1.81h-1.81v3.62Z"/>
  <path fill="#2A3B4D" d="M39.676 66.784h-3.62v3.619h3.62v-3.62Z"/>
  <path fill="#2A3B4D" d="M36.162 66.784h-3.619v3.619h3.62v-3.62Z"/>
  <path fill="#2A3B4D" d="M32.649 66.784h-3.62v3.619h3.62v-3.62Z"/>
  <path fill="#2A3B4D" d="M27.326 70.403h1.81v-3.62h-1.81c-1.026 0-1.81.785-1.81 1.81 0 1.026.784 1.81 1.81 1.81Zm-15.864 0h3.62v-1.81c0-1.025-.785-1.81-1.81-1.81h-1.81v3.62Z"/>
  <path fill="#2A3B4D" d="M11.568 66.784h-3.62v3.619h3.62v-3.62Z"/>
  <path fill="#2A3B4D" d="M4.435 70.403h3.62v-3.62h-1.81c-1.026 0-1.81.785-1.81 1.81v1.81Zm112.538-.106h-3.619v3.62h3.619v-3.62Z"/>
  <path fill="#2A3B4D" d="M113.459 70.297h-3.618v3.62h3.618v-3.62Z"/>
  <path fill="#2A3B4D" d="M109.946 70.297h-3.619v3.62h3.619v-3.62Z"/>
  <path fill="#2A3B4D" d="M102.814 73.916h3.618v-3.619h-1.809a1.777 1.777 0 0 0-1.809 1.81v1.81Zm-3.409-3.619h-3.618v3.62h3.618v-3.62Z"/>
  <path fill="#2A3B4D" d="M94.082 73.916h1.81v-3.619h-1.81a1.777 1.777 0 0 0-1.809 1.81c0 1.025.784 1.81 1.81 1.81Zm-7.027 0a1.81 1.81 0 1 1 0-3.619 1.81 1.81 0 0 1 0 3.62Zm-5.217-3.619h-3.62v3.62h3.62v-3.62Z"/>
  <path fill="#2A3B4D" d="M76.515 73.916h1.81v-3.619h-1.81c-1.025 0-1.81.784-1.81 1.81 0 1.025.785 1.81 1.81 1.81Zm-36.839-3.619h-3.62v3.62h3.62v-3.62Zm-8.836 3.619a1.777 1.777 0 0 0 1.809-1.81v-1.809h-3.62v1.81c0 1.025.785 1.81 1.81 1.81Zm-15.864 0h1.81a1.778 1.778 0 0 0 1.809-1.81 1.777 1.777 0 0 0-1.81-1.809h-1.81v3.62Z"/>
  <path fill="#2A3B4D" d="M13.272 73.916h1.81v-3.619h-3.62v1.81c0 1.025.784 1.81 1.81 1.81Zm-7.027 0c1.025 0 1.81-.784 1.81-1.81v-1.809h-3.62v1.81c0 1.025.784 1.81 1.81 1.81Zm110.728-.106h-3.619v3.62h3.619v-3.62Zm-7.027 0h-3.619v3.62h3.619v-3.62Z"/>
  <path fill="#2A3B4D" d="M104.623 77.43h1.809v-3.62h-3.618v1.81c0 1.026.784 1.81 1.809 1.81Zm-7.027 0c1.025 0 1.81-.784 1.81-1.81v-1.81h-3.62v1.81c0 1.026.785 1.81 1.81 1.81Zm-15.864 0h1.81c1.025 0 1.81-.784 1.81-1.81 0-1.025-.785-1.81-1.81-1.81h-1.81v3.62Z"/>
  <path fill="#2A3B4D" d="M80.028 77.43h1.81v-3.62h-3.62v1.81c0 1.026.785 1.81 1.81 1.81Zm-8.836 0h3.619v-1.81c0-1.025-.784-1.81-1.81-1.81-1.025 0-1.81.785-1.81 1.81v1.81Zm-7.027 0h3.619v-1.81c0-1.025-.784-1.81-1.81-1.81h-1.81v3.62Z"/>
  <path fill="#2A3B4D" d="M64.27 73.81h-3.619v3.62h3.62v-3.62Z"/>
  <path fill="#2A3B4D" d="M58.947 77.43h1.81v-3.62h-1.81c-1.025 0-1.81.785-1.81 1.81 0 1.026.785 1.81 1.81 1.81Zm-15.863 0h3.619v-1.81c0-1.025-.784-1.81-1.81-1.81h-1.81v3.62Z"/>
  <path fill="#2A3B4D" d="M43.19 73.81h-3.62v3.62h3.62v-3.62Z"/>
  <path fill="#2A3B4D" d="M37.866 77.43h1.81v-3.62h-3.62v1.81c0 1.026.785 1.81 1.81 1.81Zm-10.54 0a1.81 1.81 0 1 1 0-3.62 1.81 1.81 0 0 1 0 3.62Zm-19.377 0h3.619v-1.81c0-1.025-.784-1.81-1.81-1.81-1.025 0-1.81.785-1.81 1.81v1.81Zm-5.218 0a1.81 1.81 0 1 1 0-3.62 1.81 1.81 0 0 1 0 3.62Zm114.242-.106h-3.619v3.62h3.619v-3.62Zm-7.027 0h-3.619v3.62h3.619v-3.62ZM99.3 80.943h3.619v-1.81a1.777 1.777 0 0 0-1.81-1.809 1.777 1.777 0 0 0-1.809 1.81v1.81Zm-5.218 0a1.81 1.81 0 1 1 0-3.619 1.81 1.81 0 0 1 0 3.62Zm-7.027 0a1.81 1.81 0 1 1 0-3.619 1.81 1.81 0 0 1 0 3.62ZM74.81 77.324h-3.618v3.62h3.619v-3.62Zm-7.026 0h-3.62v3.62h3.62v-3.62Z"/>
  <path fill="#2A3B4D" d="M62.46 80.943h1.81v-3.619h-3.619v1.81c0 1.025.784 1.81 1.81 1.81Zm-8.836 0h3.62v-1.81a1.778 1.778 0 0 0-1.81-1.809c-1.026 0-1.81.784-1.81 1.81v1.81Zm-8.731 0c1.026 0 1.81-.784 1.81-1.81v-1.809h-3.62v1.81c0 1.025.785 1.81 1.81 1.81Zm-12.35 0h3.62v-1.81a1.778 1.778 0 0 0-1.81-1.809h-1.81v3.62Z"/>
  <path fill="#2A3B4D" d="M30.84 80.943h1.809v-3.619h-1.81c-1.025 0-1.81.784-1.81 1.81 0 1.025.785 1.81 1.81 1.81Zm-15.864 0h3.619v-1.81a1.777 1.777 0 0 0-1.81-1.809c-1.025 0-1.81.784-1.81 1.81v1.81Zm-3.408-3.619h-3.62v3.62h3.62v-3.62Zm105.405 3.514h-3.619v3.619h3.619v-3.62Zm-7.027 0h-3.619v3.619h3.619v-3.62Zm-7.027 0H99.3v3.619h3.619v-3.62Zm-21.187 3.619h1.81c1.025 0 1.81-.784 1.81-1.81 0-1.025-.785-1.81-1.81-1.81h-1.81v3.62Z"/>
  <path fill="#2A3B4D" d="M78.219 84.457h3.619v-3.62h-1.81c-1.025 0-1.81.785-1.81 1.81v1.81Zm-5.218 0c1.026 0 1.81-.784 1.81-1.81v-1.81h-3.62v1.81c0 1.026.785 1.81 1.81 1.81Zm-5.217-3.619h-3.62v3.619h3.62v-3.62Zm-10.646 3.619h1.81a1.777 1.777 0 0 0 1.809-1.81c0-1.025-.784-1.81-1.81-1.81h-1.81v3.62Z"/>
  <path fill="#2A3B4D" d="M55.434 84.457h1.81v-3.62h-3.62v1.81c0 1.026.784 1.81 1.81 1.81Zm-14.054 0a1.81 1.81 0 1 1 0-3.62 1.81 1.81 0 0 1 0 3.62Zm-5.218-3.619h-3.619v3.619h3.62v-3.62Zm-17.567 0h-3.62v3.619h3.62v-3.62Z"/>
  <path fill="#2A3B4D" d="M15.081 80.838h-3.619v3.619h3.62v-3.62Z"/>
  <path fill="#2A3B4D" d="M11.568 80.838h-3.62v3.619h3.62v-3.62Z"/>
  <path fill="#2A3B4D" d="M8.054 80.838H4.435v3.619h3.62v-3.62Z"/>
  <path fill="#2A3B4D" d="M2.731 84.457h1.81v-3.62H2.73c-1.025 0-1.81.785-1.81 1.81 0 1.026.785 1.81 1.81 1.81Zm112.433 3.513a1.777 1.777 0 0 0 1.809-1.81v-1.809h-3.619v1.81c0 1.025.784 1.81 1.81 1.81Zm-7.028 0c1.026 0 1.81-.784 1.81-1.81v-1.809h-3.619v1.81c0 1.025.784 1.81 1.809 1.81Zm-8.836 0h1.809c1.026 0 1.81-.784 1.81-1.81v-1.809H99.3v3.62Z"/>
  <path fill="#2A3B4D" d="M99.405 84.351h-3.618v3.62h3.618v-3.62Z"/>
  <path fill="#2A3B4D" d="M95.892 84.351h-3.619v3.62h3.619v-3.62Z"/>
  <path fill="#2A3B4D" d="M92.378 84.351H88.76v3.62h3.618v-3.62Z"/>
  <path fill="#2A3B4D" d="M85.246 87.97h3.619v-3.619h-1.81a1.777 1.777 0 0 0-1.809 1.81v1.81Zm-5.218 0c1.026 0 1.81-.784 1.81-1.81v-1.809h-3.62v1.81c0 1.025.785 1.81 1.81 1.81Zm-12.35 0h3.62v-1.81a1.778 1.778 0 0 0-1.81-1.809h-1.81v3.62Z"/>
  <path fill="#2A3B4D" d="M67.784 84.351h-3.62v3.62h3.62v-3.62Z"/>
  <path fill="#2A3B4D" d="M62.46 87.97h1.81v-3.619h-1.81a1.777 1.777 0 0 0-1.809 1.81c0 1.025.784 1.81 1.81 1.81Zm-26.403 0h1.81a1.777 1.777 0 0 0 1.809-1.81 1.777 1.777 0 0 0-1.81-1.809h-1.81v3.62Z"/>
  <path fill="#2A3B4D" d="M36.162 84.351h-3.619v3.62h3.62v-3.62Z"/>
  <path fill="#2A3B4D" d="M32.649 84.351h-3.62v3.62h3.62v-3.62Z"/>
  <path fill="#2A3B4D" d="M29.135 84.351h-3.619v3.62h3.62v-3.62Z"/>
  <path fill="#2A3B4D" d="M25.622 84.351h-3.62v3.62h3.62v-3.62Z"/>
  <path fill="#2A3B4D" d="M22.108 84.351H18.49v3.62h3.62v-3.62Z"/>
  <path fill="#2A3B4D" d="M18.595 84.351h-3.62v3.62h3.62v-3.62Zm66.651 7.133h1.81a1.777 1.777 0 0 0 1.809-1.81v-1.81h-3.619v3.62Z"/>
  <path fill="#2A3B4D" d="M83.542 91.484h1.81v-3.62h-1.81c-1.026 0-1.81.785-1.81 1.81 0 1.026.784 1.81 1.81 1.81Zm-14.054 0c1.025 0 1.81-.784 1.81-1.81v-1.81h-3.62v1.81c0 1.026.785 1.81 1.81 1.81Zm-10.541 0a1.81 1.81 0 1 1 0-3.62 1.81 1.81 0 0 1 0 3.62Zm-8.837 0h1.81c1.026 0 1.81-.784 1.81-1.81 0-1.025-.784-1.81-1.81-1.81h-1.81v3.62Z"/>
  <path fill="#2A3B4D" d="M46.597 91.484h3.62v-3.62h-1.81c-1.026 0-1.81.785-1.81 1.81v1.81Zm-7.027 0h3.62v-1.81c0-1.025-.785-1.81-1.81-1.81-1.026 0-1.81.785-1.81 1.81v1.81Zm-3.408-3.619h-3.619v3.619h3.62v-3.62Z"/>
  <path fill="#2A3B4D" d="M32.649 87.865h-3.62v3.619h3.62v-3.62Zm-14.054 0h-3.62v3.619h3.62v-3.62ZM7.949 91.484h1.81a1.778 1.778 0 0 0 1.809-1.81c0-1.025-.784-1.81-1.81-1.81h-1.81v3.62Z"/>
  <path fill="#2A3B4D" d="M8.054 87.865H4.435v3.619h3.62v-3.62Z"/>
  <path fill="#2A3B4D" d="M2.731 91.484h1.81v-3.62H2.73c-1.025 0-1.81.785-1.81 1.81 0 1.026.785 1.81 1.81 1.81Zm75.488 3.513h3.619v-1.81a1.777 1.777 0 0 0-1.81-1.809c-1.025 0-1.81.784-1.81 1.81v1.81Zm-14.054 0h3.619v-1.81a1.777 1.777 0 0 0-1.81-1.809c-1.025 0-1.81.784-1.81 1.81v1.81Zm-13.949-3.619h-3.619v3.62h3.62v-3.62Z"/>
  <path fill="#2A3B4D" d="M46.703 91.378h-3.62v3.62h3.62v-3.62Z"/>
  <path fill="#2A3B4D" d="M43.19 91.378h-3.62v3.62h3.62v-3.62Zm-7.028 0h-3.619v3.62h3.62v-3.62Z"/>
  <path fill="#2A3B4D" d="M32.649 91.378h-3.62v3.62h3.62v-3.62Zm-8.837 3.619a1.81 1.81 0 1 1 0-3.619 1.81 1.81 0 0 1 0 3.62Zm-5.217-3.619h-3.62v3.62h3.62v-3.62Zm-10.541 0H4.435v3.62h3.62v-3.62Zm73.678 7.132h3.62v-1.809c0-1.025-.785-1.81-1.81-1.81h-1.81v3.62Z"/>
  <path fill="#2A3B4D" d="M81.838 94.892h-3.62v3.619h3.62v-3.62ZM71.192 98.51h3.619v-1.809c0-1.025-.784-1.81-1.81-1.81h-1.81v3.62Z"/>
  <path fill="#2A3B4D" d="M71.297 94.892h-3.619v3.619h3.62v-3.62Z"/>
  <path fill="#2A3B4D" d="M67.784 94.892h-3.62v3.619h3.62v-3.62Z"/>
  <path fill="#2A3B4D" d="M64.27 94.892h-3.619v3.619h3.62v-3.62Z"/>
  <path fill="#2A3B4D" d="M58.947 98.51h1.81v-3.618h-1.81c-1.025 0-1.81.784-1.81 1.81 0 1.025.785 1.809 1.81 1.809Zm-8.837 0h3.62v-1.809c0-1.025-.784-1.81-1.81-1.81h-1.81v3.62Z"/>
  <path fill="#2A3B4D" d="M50.216 94.892h-3.619v3.619h3.62v-3.62Zm-7.026 0h-3.62v3.619h3.62v-3.62Z"/>
  <path fill="#2A3B4D" d="M39.676 94.892h-3.62v3.619h3.62v-3.62Z"/>
  <path fill="#2A3B4D" d="M36.162 94.892h-3.619v3.619h3.62v-3.62Z"/>
  <path fill="#2A3B4D" d="M32.649 94.892h-3.62v3.619h3.62v-3.62Zm-14.054 0h-3.62v3.619h3.62v-3.62Z"/>
  <path fill="#2A3B4D" d="M15.081 94.892h-3.619v3.619h3.62v-3.62Z"/>
  <path fill="#2A3B4D" d="M11.568 94.892h-3.62v3.619h3.62v-3.62Z"/>
  <path fill="#2A3B4D" d="M8.054 94.892H4.435v3.619h3.62v-3.62Z"/>
  <path fill="#2A3B4D" d="M.922 98.51H4.54v-3.618H2.73c-1.025 0-1.81.784-1.81 1.81v1.809Zm84.324 3.514h3.619v-1.809c0-1.026-.784-1.81-1.81-1.81h-1.809v3.619Z"/>
  <path fill="#2A3B4D" d="M85.351 98.405h-3.619v3.619h3.62v-3.619Z"/>
  <path fill="#2A3B4D" d="M81.838 98.405h-3.62v3.619h3.62v-3.619Zm-7.028 0h-3.618v3.619h3.619v-3.619Zm-10.645 3.619h1.81a1.777 1.777 0 0 0 1.809-1.809v-1.81h-3.62v3.619Z"/>
  <path fill="#2A3B4D" d="M62.46 102.024h1.81v-3.619h-3.619v1.81c0 1.025.784 1.809 1.81 1.809Zm-12.35 0h1.81c1.026 0 1.81-.784 1.81-1.809v-1.81h-3.62v3.619Z"/>
  <path fill="#2A3B4D" d="M50.216 98.405h-3.619v3.619h3.62v-3.619Zm-8.836 3.619c1.025 0 1.81-.784 1.81-1.809v-1.81h-3.62v1.81c0 1.025.784 1.809 1.81 1.809Zm-12.35 0h1.81a1.777 1.777 0 0 0 1.809-1.809v-1.81h-3.62v3.619Z"/>
  <path fill="#2A3B4D" d="M29.135 98.405h-3.619v3.619h3.62v-3.619Z"/>
  <path fill="#2A3B4D" d="M25.622 98.405h-3.62v3.619h3.62v-3.619Z"/>
  <path fill="#2A3B4D" d="M22.108 98.405H18.49v3.619h3.62v-3.619Z"/>
  <path fill="#2A3B4D" d="M18.595 98.405h-3.62v3.619h3.62v-3.619Z"/>
  <path fill="#2A3B4D" d="M13.272 102.024h1.81v-3.619h-3.62v1.81c0 1.025.784 1.809 1.81 1.809Zm-5.218-3.619H4.435v3.619h3.62v-3.619Z"/>
  <path fill="#2A3B4D" d="M2.731 102.024h1.81v-3.619H.92v1.81c0 1.025.785 1.809 1.81 1.809Zm86.134-.105h-3.619v3.619h3.619v-3.619Z"/>
  <path fill="#2A3B4D" d="M85.351 101.919h-3.619v3.619h3.62v-3.619Z"/>
  <path fill="#2A3B4D" d="M81.838 101.919h-3.62v3.619h3.62v-3.619Z"/>
  <path fill="#2A3B4D" d="M78.324 101.919h-3.619v3.619h3.62v-3.619Z"/>
  <path fill="#2A3B4D" d="M73.001 105.538h1.81v-3.619h-3.62v1.809c0 1.026.785 1.81 1.81 1.81Zm-15.863 0h3.619v-1.81a1.777 1.777 0 0 0-1.81-1.809h-1.81v3.619Z"/>
  <path fill="#2A3B4D" d="M55.434 105.538h1.81v-3.619h-1.81c-1.026 0-1.81.784-1.81 1.809 0 1.026.784 1.81 1.81 1.81Zm-5.218-3.619h-3.619v3.619h3.62v-3.619Zm-14.159 3.619h3.619v-1.81a1.777 1.777 0 0 0-1.81-1.809h-1.81v3.619Z"/>
  <path fill="#2A3B4D" d="M34.353 105.538h1.81v-3.619h-1.81c-1.026 0-1.81.784-1.81 1.809 0 1.026.784 1.81 1.81 1.81Zm-5.218-3.619h-3.619v3.619h3.62v-3.619Zm-12.35 3.619c1.026 0 1.81-.784 1.81-1.81v-1.809h-3.62v1.809c0 1.026.785 1.81 1.81 1.81Zm-8.836 0h3.619v-1.81a1.777 1.777 0 0 0-1.81-1.809h-1.81v3.619Z"/>
  <path fill="#2A3B4D" d="M6.245 105.538h1.81v-3.619h-3.62v1.809c0 1.026.784 1.81 1.81 1.81Zm80.81 3.513c1.026 0 1.81-.784 1.81-1.809v-1.81h-3.619v1.81c0 1.025.784 1.809 1.81 1.809Zm-28.108 0c1.026 0 1.81-.784 1.81-1.809v-1.81h-3.62v1.81c0 1.025.785 1.809 1.81 1.809Zm-8.837 0h1.81c1.026 0 1.81-.784 1.81-1.809s-.784-1.81-1.81-1.81h-1.81v3.619Z"/>
  <path fill="#2A3B4D" d="M48.407 109.051h1.81v-3.619h-3.62v1.81c0 1.025.784 1.809 1.81 1.809Zm-10.541 0c1.026 0 1.81-.784 1.81-1.809v-1.81h-3.62v1.81c0 1.025.785 1.809 1.81 1.809Zm-8.836 0h1.81c1.025 0 1.809-.784 1.809-1.809s-.784-1.81-1.81-1.81h-1.81v3.619Z"/>
  <path fill="#2A3B4D" d="M29.135 105.432h-3.619v3.619h3.62v-3.619Z"/>
  <path fill="#2A3B4D" d="M23.812 109.051h1.81v-3.619h-1.81c-1.025 0-1.81.785-1.81 1.81s.785 1.809 1.81 1.809Zm-12.35 0h1.81c1.025 0 1.81-.784 1.81-1.809s-.785-1.81-1.81-1.81h-1.81v3.619Z"/>
  <path fill="#2A3B4D" d="M11.568 105.432h-3.62v3.619h3.62v-3.619Zm70.164 7.133h3.62v-1.81a1.777 1.777 0 0 0-1.81-1.809h-1.81v3.619Z"/>
  <path fill="#2A3B4D" d="M78.219 112.565h3.619v-3.619h-1.81c-1.025 0-1.81.784-1.81 1.809v1.81Zm-7.027 0h3.619v-1.81a1.777 1.777 0 0 0-1.81-1.809h-1.81v3.619Z"/>
  <path fill="#2A3B4D" d="M71.297 108.946h-3.619v3.619h3.62v-3.619Z"/>
  <path fill="#2A3B4D" d="M65.974 112.565h1.81v-3.619h-1.81c-1.025 0-1.81.784-1.81 1.809 0 1.026.785 1.81 1.81 1.81Zm-10.54 0a1.81 1.81 0 1 1 0-3.62 1.81 1.81 0 0 1 0 3.62Zm-10.541 0a1.81 1.81 0 1 1 0-3.619 1.81 1.81 0 0 1 0 3.619Zm-17.567 0c1.025 0 1.81-.784 1.81-1.81v-1.809h-3.62v1.809c0 1.026.784 1.81 1.81 1.81Zm-7.027 0a1.81 1.81 0 1 1 0-3.619 1.81 1.81 0 0 1 0 3.619Zm-8.731-3.619h-3.62v3.619h3.62v-3.619Zm70.164 7.132h1.81c1.025 0 1.81-.784 1.81-1.809v-1.81h-3.62v3.619Z"/>
  <path fill="#2A3B4D" d="M80.028 116.078h1.81v-3.619h-3.62v1.81c0 1.025.785 1.809 1.81 1.809Zm-8.836 0h1.81a1.777 1.777 0 0 0 1.809-1.809v-1.81h-3.62v3.619Z"/>
  <path fill="#2A3B4D" d="M69.488 116.078h1.81v-3.619h-3.62v1.81c0 1.025.785 1.809 1.81 1.809Zm-29.918 0h1.81c1.025 0 1.81-.784 1.81-1.809s-.785-1.81-1.81-1.81h-1.81v3.619Z"/>
  <path fill="#2A3B4D" d="M37.866 116.078h1.81v-3.619h-1.81c-1.025 0-1.81.785-1.81 1.81s.785 1.809 1.81 1.809Zm-7.026 0a1.81 1.81 0 1 1-.001-3.619 1.81 1.81 0 0 1 0 3.619Zm-19.378 0h1.81c1.025 0 1.81-.784 1.81-1.809s-.785-1.81-1.81-1.81h-1.81v3.619Z"/>
  <path fill="#2A3B4D" d="M11.568 112.459h-3.62v3.619h3.62v-3.619Z"/>
  <path fill="#2A3B4D" d="M6.245 116.078h1.81v-3.619h-1.81c-1.026 0-1.81.785-1.81 1.81s.784 1.809 1.81 1.809Zm102.823-91.456h-8.96c-4.216 0-7.73-3.514-7.73-7.73v-8.96a7.873 7.873 0 0 1 7.906-7.905h8.959c4.216 0 7.73 3.514 7.73 7.73v8.96a7.873 7.873 0 0 1-7.905 7.905ZM95.892 8.459v7.73c0 2.635 2.284 4.92 4.919 4.92h7.73c2.81 0 4.918-2.109 4.918-4.92V8.46c0-2.635-2.283-4.918-4.918-4.918h-7.73c-2.811 0-4.92 2.108-4.92 4.918ZM17.716 24.622h-8.96c-4.215 0-7.729-3.514-7.729-7.73v-8.96A7.873 7.873 0 0 1 8.932.027h8.96c4.216 0 7.73 3.514 7.73 7.73v8.96a7.873 7.873 0 0 1-7.906 7.905ZM4.541 8.459v7.73c0 2.635 2.283 4.92 4.918 4.92h7.73c2.811 0 4.92-2.109 4.92-4.92V8.46c0-2.635-2.285-4.918-4.92-4.918H9.46c-2.81 0-4.918 2.108-4.918 4.918Zm104.527 107.514h-8.96c-4.216 0-7.73-3.514-7.73-7.73v-8.96a7.873 7.873 0 0 1 7.906-7.905h8.959c4.216 0 7.73 3.514 7.73 7.73v8.96a7.873 7.873 0 0 1-7.905 7.905ZM95.892 99.811v7.73c0 2.635 2.284 4.918 4.919 4.918h7.73c2.81 0 4.918-2.108 4.918-4.918v-7.73c0-2.635-2.283-4.92-4.918-4.92h-7.73c-2.811 0-4.92 2.109-4.92 4.92Z"/>
  <path fill="#2A3B4D" d="M99.405 10.04v4.744c0 1.405 1.406 2.81 2.987 2.81h4.567c1.757 0 2.987-1.23 2.987-2.986v-4.567c0-1.582-1.405-2.987-2.987-2.987h-4.743c-1.581 0-2.81 1.23-2.81 2.987Zm-91.351 0v4.744c0 1.405 1.405 2.81 2.986 2.81h4.568c1.757 0 2.987-1.23 2.987-2.986v-4.567c0-1.582-1.406-2.987-2.987-2.987h-4.743c-1.581 0-2.81 1.23-2.81 2.987Zm91.351 91.352v4.743c0 1.406 1.406 2.811 2.987 2.811h4.567c1.757 0 2.987-1.23 2.987-2.987v-4.567c0-1.581-1.405-2.987-2.987-2.987h-4.743c-1.581 0-2.81 1.23-2.81 2.987Z"/>
</svg>
