<svg xmlns="http://www.w3.org/2000/svg" width="513" height="513" fill="none" viewBox="0 0 513 513">
  <path fill="#EB3333" d="M273.77 380.367a328.15 328.15 0 0 0 26.092 29.042c43.425 42.785 99.045 73.543 161.145 86.591v-38.447c-51.576-12.368-97.795-38.69-134.256-74.628a285.837 285.837 0 0 1-32.604-38.367l-20.377 35.809Z"/>
  <path fill="#EB3333" d="M139.124 340.333c40.629-40.066 65.878-95.317 65.878-156.072V16h38.007v168.261c0 29.593 4.762 64.268 13.491 91.141 8.744-26.873 13.507-61.548 13.507-91.141V16h38.006v168.261c0 60.755 25.234 116.006 65.879 156.072 24.25 23.91 53.98 42.397 87.115 53.422v39.256c-43.628-12.222-82.712-35.355-113.988-66.178-23.5-23.165-42.582-50.685-55.885-81.184-9.916 26.435-20.862 51.446-34.54 70.5l-.094.13-.078-.13c-13.679-19.07-24.625-44.081-34.54-70.5-13.304 30.499-32.385 58.019-55.885 81.184-31.277 30.839-70.345 53.956-113.989 66.178v-39.256c33.135-11.025 62.866-29.512 87.116-53.422Z"/>
  <path fill="#EB3333" d="M368.802 180.732c0 44.275 18.394 84.536 48 113.74a164.853 164.853 0 0 0 44.205 31.13v40.794c-26.889-10.085-51.06-25.707-71.079-45.44-36.491-35.971-59.148-85.604-59.148-140.224v-37.913h38.022v37.913ZM144.23 142.836h38.022v37.913c0 54.619-22.657 104.269-59.165 140.223a202.834 202.834 0 0 1-71.079 45.44v-40.81a164.614 164.614 0 0 0 44.206-31.13c29.621-29.188 48.016-69.465 48.016-113.74v-37.896Zm74.638 201.706a284.767 284.767 0 0 1-32.603 38.366c-36.461 35.938-82.681 62.261-134.272 74.629v38.447c62.084-13.048 117.72-43.79 161.145-86.575a323.195 323.195 0 0 0 26.092-29.042l-20.362-35.825Z"/>
</svg>
