<svg xmlns="http://www.w3.org/2000/svg" width="24" height="24" fill="none" viewBox="0 0 24 24">
  <path fill="#000" d="M19.239 10.142c.453-.8 1.1-1.473 1.883-1.955a5.602 5.602 0 0 0-4.389-2.378c-1.847-.194-3.637 1.107-4.577 1.107-.96 0-2.408-1.088-3.968-1.056A5.89 5.89 0 0 0 3.27 8.867c-2.127 3.69-.54 9.114 1.496 12.097 1.02 1.46 2.21 3.092 3.769 3.034 1.525-.063 2.095-.974 3.936-.974 1.824 0 2.359.974 3.949.938 1.636-.027 2.667-1.467 3.651-2.942a12.094 12.094 0 0 0 1.67-3.408 5.261 5.261 0 0 1-2.334-1.94c-1.096-1.657-1.143-3.808-.168-5.53Zm-3.711-6.295A5.378 5.378 0 0 0 16.753 0a5.447 5.447 0 0 0-3.527 1.83 5.112 5.112 0 0 0-1.258 3.704 4.553 4.553 0 0 0 3.56-1.687Z"/>
</svg>
