<svg xmlns="http://www.w3.org/2000/svg" width="24" height="24" fill="currentColor" viewBox="0 0 24 24">
  <path fill-rule="evenodd" d="M12.608 3.688a.202.202 0 0 0-.202.202v3.324l3.726 2.899c.36.28.57.71.57 1.166v8.177c0 .297-.058.587-.168.856h4.564c.111 0 .202-.09.202-.202V3.89a.202.202 0 0 0-.202-.202h-8.49Zm8.49 18.024c.885 0 1.602-.717 1.602-1.602V3.89c0-.885-.717-1.602-1.602-1.602h-8.49c-.885 0-1.602.717-1.602 1.602v2.235l-1.097-.853a1.478 1.478 0 0 0-1.815 0l-6.223 4.84a1.48 1.48 0 0 0-.571 1.167v8.177a2.256 2.256 0 0 0 2.256 2.256h17.542Zm-9.063-1.4h2.412a.856.856 0 0 0 .856-.856V11.28a.078.078 0 0 0-.03-.061l-3.991-3.104a.56.56 0 0 1-.011-.009L9.049 6.377a.078.078 0 0 0-.095 0l-6.224 4.84a.078.078 0 0 0-.03.062v8.177a.856.856 0 0 0 .856.856h2.412V14.01c0-.817.661-1.478 1.477-1.478h3.112c.816 0 1.478.661 1.478 1.478v6.3Zm-4.667 0h3.267V14.01a.078.078 0 0 0-.078-.078H7.445a.078.078 0 0 0-.077.078v6.3Zm5.95-13.785a.7.7 0 0 1 .7-.7h5.567a.7.7 0 0 1 0 1.4H14.02a.7.7 0 0 1-.7-.7Zm4.28 2.698a.7.7 0 0 1 .7-.7h1.287a.7.7 0 1 1 0 1.4h-1.287a.7.7 0 0 1-.7-.7Zm0 2.707a.7.7 0 0 1 .7-.7h1.287a.7.7 0 1 1 0 1.4h-1.287a.7.7 0 0 1-.7-.7Zm0 2.706a.7.7 0 0 1 .7-.7h1.287a.7.7 0 1 1 0 1.4h-1.287a.7.7 0 0 1-.7-.7Z" clip-rule="evenodd"/>
</svg>
