<svg xmlns="http://www.w3.org/2000/svg" fill="currentColor" viewBox="0 0 24 24">
  <path fill-rule="evenodd" d="M7.758 4.5H7.72c-.817 0-1.484 0-2.027.042-.561.043-1.068.135-1.542.362a3.83 3.83 0 0 0-1.722 1.618c-.24.445-.339.921-.385 1.45C2 8.48 2 9.107 2 9.875v4.248c0 .768 0 1.395.044 1.905.046.527.144 1.004.385 1.45a3.83 3.83 0 0 0 1.722 1.617c.474.227.98.32 1.542.362.543.042 1.21.042 2.027.042h8.56c.817 0 1.484 0 2.027-.042.561-.043 1.069-.135 1.542-.362a3.83 3.83 0 0 0 1.722-1.618c.241-.445.339-.922.385-1.45.044-.51.044-1.136.044-1.904V9.876c0-.768 0-1.395-.044-1.905-.046-.528-.144-1.004-.385-1.45a3.83 3.83 0 0 0-1.722-1.617c-.474-.227-.98-.32-1.542-.362-.543-.042-1.21-.042-2.026-.042H7.758ZM5.314 6.315a3.91 3.91 0 0 1 .527-.07c.46-.035 1.053-.036 1.917-.036h8.484c.864 0 1.457 0 1.917.036.22.017.39.04.527.07l-4.05 3.33c-.583.48-.983.809-1.315 1.042-.324.228-.53.326-.708.376-.4.11-.826.11-1.226 0-.178-.05-.384-.148-.708-.376-.332-.233-.732-.561-1.316-1.041l-4.05-3.33ZM3.97 7.481c-.05.148-.089.344-.114.63-.037.431-.038.989-.038 1.8v4.178c0 .811 0 1.368.038 1.8.037.423.104.65.193.814.204.375.528.68.927.87.175.084.416.148.865.182.46.035 1.053.036 1.917.036h8.484c.864 0 1.457 0 1.917-.036.449-.034.69-.098.865-.181.399-.191.723-.496.927-.872.089-.164.156-.39.193-.812.037-.433.038-.99.038-1.801V9.91c0-.811 0-1.369-.038-1.8a2.713 2.713 0 0 0-.114-.63l-4.196 3.45-.027.022c-.55.453-1.002.825-1.398 1.103-.41.289-.813.516-1.28.645a4.223 4.223 0 0 1-2.258 0c-.466-.13-.87-.356-1.28-.645-.396-.278-.848-.65-1.398-1.102l-.027-.022L3.97 7.48Z" clip-rule="evenodd"/>
</svg>
