<svg xmlns="http://www.w3.org/2000/svg" width="24" height="24" fill="currentColor" viewBox="0 0 24 24">
  <path d="M10.889 19h2.222c.611 0 1.111-.525 1.111-1.167 0-.641-.5-1.166-1.11-1.166h-2.223c-.611 0-1.111.525-1.111 1.166 0 .642.5 1.167 1.11 1.167ZM2 6.167c0 .641.5 1.166 1.111 1.166H20.89c.61 0 1.11-.525 1.11-1.166C22 5.525 21.5 5 20.889 5H3.11C2.5 5 2 5.525 2 6.167Zm4.444 7h11.112c.61 0 1.11-.525 1.11-1.167s-.5-1.167-1.11-1.167H6.444c-.61 0-1.11.525-1.11 1.167s.5 1.167 1.11 1.167Z"/>
</svg>
