<svg xmlns="http://www.w3.org/2000/svg" fill="currentColor" viewBox="0 0 24 24">
  <path d="M22 5.978c0-.58-.469-1.054-1.042-1.054H9.318l2.084 2.109h9.556c.573 0 1.042-.475 1.042-1.055Zm-3.126 5.273c0-.58-.47-1.054-1.042-1.054h-3.304l2.085 2.109h1.219c.573 0 1.042-.475 1.042-1.055Zm-4.19 5.073c.011.063.022.137.022.2 0 .58-.47 1.055-1.043 1.055H11.58a1.051 1.051 0 0 1-1.042-1.055c0-.58.47-1.055 1.042-1.055h2.084a1.2 1.2 0 0 1 .198.022l-3.147-3.185H7.411a1.051 1.051 0 0 1-1.042-1.055c0-.58.469-1.054 1.042-1.054h1.22L5.503 7.033h-1.22a1.051 1.051 0 0 1-1.041-1.055c0-.337.156-.632.396-.833l-1.334-1.35a1.06 1.06 0 0 1 0-1.487 1.03 1.03 0 0 1 1.47 0l17.683 17.896a1.06 1.06 0 0 1 0 1.488 1.029 1.029 0 0 1-1.47 0l-5.303-5.368Z"/>
</svg>
