<svg xmlns="http://www.w3.org/2000/svg" fill="currentColor" viewBox="0 0 24 24">
<path fill-rule="evenodd" d="M22.629 12c0 5.87-4.759 10.629-10.629 10.629C6.13 22.629 1.371 17.87 1.371 12 1.371 6.13 6.13 1.371 12 1.371c5.87 0 10.629 4.759 10.629 10.629ZM24 12c0 6.627-5.373 12-12 12S0 18.627 0 12 5.373 0 12 0s12 5.373 12 12Zm-7.218-1.915c0-2.995-1.997-5.304-4.78-5.304-2.783 0-4.784 2.31-4.784 5.304v1.126c0 .161-.134.375-.5.758l-.186.194c-.75.772-1.046 1.217-1.046 1.932 0 .312.03.54.162.819.303.64.98.993 2.012.993h1.324l-.012-.047c.428 1.673 1.474 2.582 3.028 2.582 1.54 0 2.58-.892 3.016-2.534h1.324c1.002 0 1.673-.345 1.989-.963.15-.293.185-.537.185-.85 0-.715-.296-1.16-1.046-1.932l-.187-.194c-.365-.383-.5-.597-.5-.758v-1.126ZM12 17.175c-.848 0-1.393-.389-1.709-1.267h3.418c-.316.878-.86 1.267-1.709 1.267Zm-3.534-7.09c0-2.327 1.48-4.036 3.537-4.036 2.055 0 3.531 1.707 3.531 4.036v1.126c0 .6.27 1.03.851 1.64l.195.202c.518.533.687.787.687 1.042a.55.55 0 0 1-.045.265c-.082.161-.313.28-.882.28H7.66c-.587 0-.813-.118-.887-.275-.03-.064-.04-.134-.04-.27 0-.255.17-.509.687-1.042l.195-.202c.58-.61.85-1.04.85-1.64v-1.126Z" clip-rule="evenodd"/>
</svg>
