<svg xmlns="http://www.w3.org/2000/svg" width="24" height="24" fill="none" viewBox="0 0 24 24">
  <g clip-path="url(#a)">
    <path fill="#C22" d="M18.402 24H5.598A5.598 5.598 0 0 1 0 18.402V5.598A5.598 5.598 0 0 1 5.598 0h12.804A5.598 5.598 0 0 1 24 5.598v12.804A5.598 5.598 0 0 1 18.402 24Z"/>
    <path fill="#fff" fill-opacity=".8" d="M16.847 6.794h3.403v7.481c-.104 1.744-1.205 3.082-2.867 3.525-1.182.315-2.525.252-3.741.164a2166.06 2166.06 0 0 1-.015-3.605c.075-1.204-1.488-1.516-2.409-1.541 1.247-.237 2.223-1.246 2.33-2.516l.004 3.329c.052 2.087 3.295 2.093 3.295 0V6.794Zm-5.997-.041a80.7 80.7 0 0 0 2.694.005l.003 2.952a3.214 3.214 0 0 0-2.697-2.957Z" opacity=".804"/>
    <path fill="#fff" fill-rule="evenodd" d="M10.806 16.474c.662.914 1.724 1.409 2.836 1.49l-.015-3.605c.036-.576-.359-.99-.854-1.222l-.006-.002c-.476-.224-1.028-.303-1.549-.317 1.23-.233 2.203-1.222 2.326-2.474v-.678a3.212 3.212 0 0 0-2.694-2.913c-2.115-.04-4.234-.003-6.35-.003v11.216l2.872.004v-.022l-.027-3.39c.686.014 1.502-.001 2.142.272.88.384.825.961 1.32 1.644Zm-3.1-8.245 3.67 1.798a.31.31 0 0 1 0 .558l-3.67 1.798a.315.315 0 0 1-.454-.281V8.509c0-.232.246-.382.453-.28Z" clip-rule="evenodd"/>
  </g>
  <defs>
    <clipPath id="a">
      <rect width="24" height="24" fill="#fff" rx="6"/>
    </clipPath>
  </defs>
</svg>
