<svg xmlns="http://www.w3.org/2000/svg" fill="none" viewBox="0 0 24 24">
  <path fill="#07F" fill-rule="evenodd" d="M11.999 24c-5.431 0-8.625 0-10.312-1.687C0 20.625 0 17.43 0 12 0 6.57 0 3.373 1.687 1.687 3.375 0 6.569 0 11.999 0s8.627 0 10.314 1.687C24 3.374 24 6.569 24 12c0 5.43 0 8.626-1.687 10.313C20.625 24 17.43 24 12 24Zm3.413-9.343v1.408c0 .754-.712 1.307-1.447 1.123l-1.642-.41a.482.482 0 0 1-.319-.431l-.202-5.969c-.059-.79-.645-1.418-1.258-1.603-.074-.021-.144.075-.075.127.151.117.568.5.568 1.159l-.002 6.392.002.003v1.409c0 .753-.712 1.306-1.447 1.122l-4.65-1.161a1.462 1.462 0 0 1-1.1-1.404V8.607c0-.754.711-1.307 1.446-1.123l2.929.731V6.807c0-.753.712-1.306 1.446-1.123l2.928.732V5.007c0-.753.712-1.306 1.447-1.122l4.65 1.162c.647.161 1.1.74 1.1 1.403v7.816c0 .753-.711 1.306-1.446 1.123l-1.629-.408a.48.48 0 0 1-.329-.432l-.203-5.969c-.058-.79-.644-1.419-1.257-1.603-.074-.022-.144.074-.076.126.151.118.568.5.568 1.16l-.002 6.394Z" clip-rule="evenodd"/>
  <path fill="#fff" d="M15.412 16.065v-1.408l.002-6.394c0-.66-.417-1.042-.568-1.16-.068-.052.002-.148.076-.126.613.184 1.199.813 1.257 1.603l.203 5.969a.48.48 0 0 0 .33.432l1.628.408a1.162 1.162 0 0 0 1.447-1.123V6.45c0-.663-.454-1.242-1.1-1.403l-4.651-1.162a1.162 1.162 0 0 0-1.447 1.122v1.409l-2.928-.732a1.163 1.163 0 0 0-1.446 1.123v1.408l-2.929-.731A1.161 1.161 0 0 0 3.84 8.607v7.815c0 .657.462 1.246 1.1 1.404l4.65 1.161a1.162 1.162 0 0 0 1.447-1.122v-1.409l-.002-.003.002-6.392c0-.659-.417-1.042-.568-1.159-.069-.052.001-.148.075-.127.613.185 1.2.813 1.258 1.603l.202 5.969a.482.482 0 0 0 .319.43l1.642.411a1.162 1.162 0 0 0 1.447-1.123Z"/>
</svg>
