<svg xmlns="http://www.w3.org/2000/svg" fill="none" viewBox="0 0 24 24">
  <path fill="#100943" d="M18.182 0H5.818A5.818 5.818 0 0 0 0 5.818v12.364A5.818 5.818 0 0 0 5.818 24h12.364A5.818 5.818 0 0 0 24 18.182V5.818A5.818 5.818 0 0 0 18.182 0Z"/>
  <path fill="#ED143B" d="M24 12c-6.627 0-12-5.373-12-12h6.182A5.818 5.818 0 0 1 24 5.818V12Z"/>
  <path fill="#fff" d="M14.749 11.483H8.064V8.838h6.685c.39 0 .662.068.798.187.444.387.392 1.948 0 2.29-.136.119-.407.17-.798.17v-.002Zm.459-5.14h-9.98v11.314h2.836v-3.68h5.225l2.479 3.68h3.175l-2.734-3.698c1.008-.15 1.46-.458 1.834-.967.373-.51.56-1.323.56-2.409 0-1.184.08-2.5-.798-3.425-.71-.672-1.653-.815-2.597-.815Z"/>
</svg>
