<svg xmlns="http://www.w3.org/2000/svg" width="24" height="24" fill="none" viewBox="0 0 24 24">
  <g clip-path="url(#a)">
    <path fill="#100943" fill-rule="evenodd" d="M6.257 0A6.171 6.171 0 0 0 .086 6.171V17.83A6.171 6.171 0 0 0 6.257 24h11.657a6.171 6.171 0 0 0 6.172-6.171V6.17A6.171 6.171 0 0 0 17.914 0H6.257Zm5.875 1.714c.109 1.208.407 2.361.866 3.43l2.21-.001c2.869 0 4.595 1.845 4.595 4.592 0 .556.015 1.115-.035 1.67.844.285 1.718.47 2.603.55v5.874a4.457 4.457 0 0 1-4.457 4.457H6.257A4.457 4.457 0 0 1 1.8 17.829V6.17a4.457 4.457 0 0 1 4.457-4.457h5.875Z" clip-rule="evenodd"/>
    <path fill="#fff" d="M12.998 5.144a11.243 11.243 0 0 1-.866-3.43H6.257A4.457 4.457 0 0 0 1.8 6.171V17.83a4.457 4.457 0 0 0 4.457 4.457h11.657a4.457 4.457 0 0 0 4.457-4.457v-5.875a11.273 11.273 0 0 1-2.603-.55c.05-.554.035-1.113.035-1.669 0-2.747-1.726-4.592-4.595-4.592h-2.21Z"/>
    <path fill="#100943" d="M14.749 11.483H8.064V8.838h6.685c.39 0 .662.068.798.187.444.387.392 1.948 0 2.29-.136.119-.407.17-.798.17v-.002Zm.459-5.14h-9.98v11.314h2.836v-3.68h5.225l2.479 3.68h3.175l-2.734-3.698c1.008-.15 1.46-.458 1.834-.967.373-.51.56-1.323.56-2.409 0-1.184.08-2.5-.798-3.425-.71-.672-1.653-.815-2.597-.815Z"/>
  </g>
  <defs>
    <clipPath id="a">
      <path fill="#fff" d="M0 0h24v24H0z"/>
    </clipPath>
  </defs>
</svg>
