<svg xmlns="http://www.w3.org/2000/svg" fill="none" viewBox="0 0 24 24">
  <path fill="#2AABEF" d="M12 24c6.628 0 12-5.372 12-12S18.628 0 12 0 0 5.372 0 12s5.372 12 12 12Z"/>
  <path fill="#fff" fill-rule="evenodd" d="M5.431 11.873c3.498-1.524 5.831-2.53 6.998-3.015 3.333-1.386 4.025-1.626 4.476-1.635.57-.01.701.46.656.938-.18 1.897-.961 6.502-1.36 8.627-.167.899-.498 1.2-.82 1.23-.696.064-1.225-.46-1.9-.903-1.056-.692-1.653-1.123-2.678-1.799-1.185-.78-.417-1.21.258-1.91.177-.184 3.247-2.977 3.307-3.23.051-.212-.138-.275-.305-.237-.106.024-1.792 1.14-5.061 3.346-.479.329-.913.49-1.302.48-.428-.009-1.252-.242-1.865-.44-.751-.245-1.349-.374-1.297-.79.027-.215.325-.437.893-.662Z" clip-rule="evenodd"/>
</svg>
