<svg xmlns="http://www.w3.org/2000/svg" width="24" height="24" fill="currentColor" viewBox="0 0 24 24">
  <path d="M3.87 3.467c-3.164 3.48-1.474 8.867 3.172 13.535 4.547 4.568 10.177 6.276 13.508 3.177 1.822-1.696 1.553-4.7-.698-6.706l-.206-.175c-2.089-1.691-5.12-1.697-6.973-.03l-.095.09-.053-.045a14.204 14.204 0 0 1-.784-.73l-.322-.326-.332-.354c-.1-.109-.188-.209-.266-.3l-.134-.158-.075.081c1.828-1.836 1.845-5.106.006-7.303-2.042-2.44-5.139-2.527-6.748-.756Zm5.255 2.006c1.277 1.526 1.134 3.647.107 4.68l-.16.15c-.682.614-1.348.975 1.117 3.482 2.66 2.704 2.99 1.755 3.683 1.03 1.088-1.093 3.22-1.194 4.684.112 1.62 1.444 1.444 3.103.667 3.826-2.403 2.236-7.006.687-10.801-3.125-3.795-3.812-5.479-8.246-3.111-10.851.55-.605 2.273-1.145 3.814.696Z"/>
</svg>
