<svg xmlns="http://www.w3.org/2000/svg" width="24" height="24" fill="currentColor" viewBox="0 0 24 24">
  <path d="M11.4 2h1.176c.056.013.114.024.172.031a9.695 9.695 0 0 1 3.603.967c2.286 1.126 3.926 2.861 4.921 5.205.551 1.302.75 2.663.726 4.077-.034 1.97-.628 3.746-1.731 5.358-1.211 1.765-2.834 3.02-4.85 3.757-1.789.652-3.624.772-5.489.384a9.728 9.728 0 0 1-3.982-1.825c-1.732-1.33-2.923-3.037-3.557-5.127a9.19 9.19 0 0 1-.373-3.181c.028-.538.06-1.082.166-1.607.476-2.36 1.67-4.298 3.538-5.816a9.684 9.684 0 0 1 4.387-2.036c.428-.079.863-.125 1.294-.187Zm3.953 9.158-.283-2.479H8.967a16.013 16.013 0 0 0-.28 2.479h6.666Zm0 1.685h-6.66c0 .057-.004.102 0 .146.075.691.16 1.38.221 2.074.02.231.118.274.33.274 1.852-.008 3.704-.005 5.556-.005h.27c.094-.836.188-1.653.283-2.489Zm-5.958 4.161c.075.214.138.412.214.603.31.783.683 1.527 1.27 2.153.632.67 1.349.75 2.026.204.08-.067.155-.138.227-.214.402-.408.701-.889.941-1.402.203-.433.37-.881.56-1.343H9.396Zm5.216-10.012c-.078-.224-.15-.44-.233-.649-.308-.77-.68-1.502-1.26-2.113-.697-.73-1.521-.738-2.215-.016a5.321 5.321 0 0 0-.993 1.485c-.191.417-.353.847-.536 1.291l5.237.002ZM3.7 11.152h3.286l.243-2.465a.04.04 0 0 0-.022-.012c-.92-.003-1.84-.005-2.76 0a.173.173 0 0 0-.13.085 8 8 0 0 0-.617 2.392Zm.004 1.689c0 .036-.002.061 0 .086.09.763.281 1.51.57 2.223.053.133.117.187.266.185.835-.008 1.67-.003 2.505-.004.064 0 .128-.005.183-.008l-.244-2.48-3.28-.002Zm13.074-4.172.246 2.489h3.265a.485.485 0 0 0 .01-.085 7.923 7.923 0 0 0-.609-2.31c-.02-.045-.106-.087-.163-.089-.32-.009-.64-.004-.96-.004l-1.79-.001Zm3.535 4.177h-3.29l-.242 2.47c.021.006.043.01.065.012.894 0 1.788.004 2.682-.004a.234.234 0 0 0 .175-.126c.177-.548.35-1.1.505-1.657.061-.221.07-.457.105-.695Zm-1.648-5.85c-.896-1.171-1.987-2.04-3.273-2.607.345.86.695 1.729 1.05 2.607h2.223Zm-3.268 12.598c.876-.24 2.888-1.835 3.23-2.589h-2.184l-1.046 2.589ZM8.618 4.387c-1.293.577-2.378 1.441-3.27 2.602h2.22l1.05-2.602Zm0 15.225-1.045-2.593H5.35c.895 1.152 1.976 2.02 3.267 2.593Z"/>
</svg>
